<svg id="Layer_1" data-name="Layer 1" xmlns="http://www.w3.org/2000/svg" xmlns:xlink="http://www.w3.org/1999/xlink" viewBox="0 0 480.61 370.56"><defs><style>.cls-1,.cls-10,.cls-16,.cls-17,.cls-18,.cls-19,.cls-2,.cls-3,.cls-4,.cls-45,.cls-47,.cls-48,.cls-5,.cls-51,.cls-52,.cls-53,.cls-56,.cls-57,.cls-58,.cls-59,.cls-6,.cls-60,.cls-61,.cls-62,.cls-63,.cls-64,.cls-65,.cls-66,.cls-67,.cls-68,.cls-69,.cls-7,.cls-71,.cls-72,.cls-75,.cls-76,.cls-77,.cls-78{stroke:#000;}.cls-1,.cls-16,.cls-17,.cls-2,.cls-3,.cls-4,.cls-5,.cls-51,.cls-52,.cls-57,.cls-58,.cls-61,.cls-62,.cls-63,.cls-64,.cls-66,.cls-67{stroke-width:0.5px;}.cls-1{fill:url(#Безымянный_градиент_2);}.cls-2{fill:url(#Безымянный_градиент_3);}.cls-3{fill:url(#Безымянный_градиент_4);}.cls-4{fill:url(#Безымянный_градиент_5);}.cls-5{fill:url(#Безымянный_градиент_6);}.cls-6{fill:url(#Безымянный_градиент_7);}.cls-7{fill:#ed1c24;}.cls-8{fill:url(#Безымянный_градиент_8);}.cls-9{opacity:0.32;fill:url(#Безымянный_градиент_9);}.cls-15,.cls-21,.cls-23,.cls-28,.cls-31,.cls-39,.cls-49,.cls-50,.cls-54,.cls-79,.cls-80,.cls-9{isolation:isolate;}.cls-10,.cls-57{fill:#f7931d;}.cls-10{stroke-width:0.76px;}.cls-11{fill:url(#Безымянный_градиент_10);}.cls-12{fill:url(#Безымянный_градиент_11);}.cls-13,.cls-60{fill:#006e3a;}.cls-14{fill:#014f70;}.cls-15,.cls-49,.cls-50{opacity:0.31;}.cls-15{fill:url(#Безымянный_градиент_12);}.cls-16{fill:url(#Безымянный_градиент_13);}.cls-17{fill:#024f28;}.cls-18,.cls-19,.cls-68,.cls-69{stroke-width:0.82px;}.cls-18{fill:url(#Безымянный_градиент_14);}.cls-19{fill:url(#Безымянный_градиент_15);}.cls-20{fill:url(#Безымянный_градиент_16);}.cls-21,.cls-23,.cls-28,.cls-31,.cls-39{fill:#007070;}.cls-21{opacity:0.37;}.cls-22{fill:url(#Безымянный_градиент_17);}.cls-23{opacity:0.66;}.cls-24{fill:url(#Безымянный_градиент_18);}.cls-25{fill:url(#Безымянный_градиент_19);}.cls-26{fill:url(#Безымянный_градиент_20);}.cls-27{fill:url(#Безымянный_градиент_21);}.cls-28{opacity:0.56;}.cls-29{fill:url(#Безымянный_градиент_22);}.cls-30{fill:url(#Безымянный_градиент_23);}.cls-31{opacity:0.72;}.cls-32{fill:url(#Безымянный_градиент_24);}.cls-33{fill:url(#Безымянный_градиент_25);}.cls-34{fill:url(#Безымянный_градиент_26);}.cls-35{fill:url(#Безымянный_градиент_27);}.cls-36{fill:url(#Безымянный_градиент_28);}.cls-37{fill:url(#Безымянный_градиент_29);}.cls-38{fill:url(#Безымянный_градиент_30);}.cls-39{opacity:0.38;}.cls-40{fill:url(#Безымянный_градиент_31);}.cls-41{fill:url(#Безымянный_градиент_32);}.cls-42{fill:url(#Безымянный_градиент_33);}.cls-43{fill:url(#Безымянный_градиент_34);}.cls-44{fill:url(#Безымянный_градиент_35);}.cls-45{fill:#4f1313;}.cls-46{fill:url(#Безымянный_градиент_36);}.cls-47,.cls-75,.cls-77{fill:#710a0b;}.cls-47,.cls-48,.cls-60{stroke-width:0.7px;}.cls-48{fill:#971b1e;}.cls-49{fill:url(#Безымянный_градиент_37);}.cls-50{fill:url(#Безымянный_градиент_38);}.cls-51{fill:url(#Безымянный_градиент_39);}.cls-52{fill:url(#Безымянный_градиент_40);}.cls-53{stroke-width:0.3px;fill:url(#Безымянный_градиент_41);}.cls-54{opacity:0.48;fill:url(#Безымянный_градиент_42);}.cls-55{fill:#28903a;}.cls-56{fill:#ffc20e;}.cls-58{fill:#c0272d;}.cls-59{fill:url(#Безымянный_градиент_43);}.cls-61{fill:url(#Безымянный_градиент_44);}.cls-62{fill:url(#Безымянный_градиент_45);}.cls-63{fill:url(#Безымянный_градиент_46);}.cls-64{fill:url(#Безымянный_градиент_47);}.cls-65{stroke-width:0.53px;fill:url(#Безымянный_градиент_48);}.cls-66{fill:url(#Безымянный_градиент_49);}.cls-67{fill:url(#Безымянный_градиент_50);}.cls-68{fill:url(#Безымянный_градиент_51);}.cls-69{fill:url(#Безымянный_градиент_52);}.cls-70,.cls-71,.cls-80{fill:#fff;}.cls-70,.cls-73,.cls-74{stroke:#fff;}.cls-70,.cls-71,.cls-72,.cls-73,.cls-74{stroke-linecap:round;stroke-width:2px;}.cls-72,.cls-73,.cls-74{fill:none;}.cls-73{stroke-linejoin:round;}.cls-75{stroke-width:0.49px;}.cls-76{stroke-width:0.21px;fill:url(#Безымянный_градиент_53);}.cls-77{stroke-width:0.6px;}.cls-78{stroke-width:0.26px;fill:url(#Безымянный_градиент_54);}.cls-80{font-size:14px;font-family:ArialMT, Arial;}.cls-81{letter-spacing:-0.02em;}.cls-82{letter-spacing:-0.03em;}.cls-83{letter-spacing:-0.01em;}.cls-84{letter-spacing:0.02em;}.cls-85{letter-spacing:0.01em;}</style><linearGradient id="Безымянный_градиент_2" x1="-1514.21" y1="230.01" x2="-1497.01" y2="209.7" gradientTransform="matrix(-0.94, -0.34, -0.34, 0.94, -1165.42, -351.34)" gradientUnits="userSpaceOnUse"><stop offset="0.01" stop-color="#0c4220"/><stop offset="1" stop-color="#28903a"/></linearGradient><linearGradient id="Безымянный_градиент_3" x1="-1257.69" y1="-271.99" x2="-1240.49" y2="-292.3" gradientTransform="matrix(-0.36, -0.93, -0.93, 0.36, -628.31, -706.27)" xlink:href="#Безымянный_градиент_2"/><linearGradient id="Безымянный_градиент_4" x1="37.32" y1="789.81" x2="56.52" y2="789.81" gradientTransform="matrix(0.8, 0.6, 0.6, -0.8, -362.19, 768.86)" gradientUnits="userSpaceOnUse"><stop offset="0.01" stop-color="#cadb2a"/><stop offset="0.01" stop-color="#c8d82b"/><stop offset="0.28" stop-color="#7fa839"/><stop offset="0.52" stop-color="#478d3c"/><stop offset="0.73" stop-color="#007b3c"/><stop offset="0.9" stop-color="#00723b"/><stop offset="1" stop-color="#006e3a"/></linearGradient><linearGradient id="Безымянный_градиент_5" x1="-373.74" y1="-264.44" x2="-354.54" y2="-264.44" gradientTransform="matrix(0.78, -0.63, -0.63, -0.78, 140.11, -153.72)" xlink:href="#Безымянный_градиент_4"/><linearGradient id="Безымянный_градиент_6" x1="36.6" y1="186.71" x2="55.8" y2="186.71" gradientTransform="matrix(1, 0, 0, -1, 0, 404)" xlink:href="#Безымянный_градиент_4"/><linearGradient id="Безымянный_градиент_7" x1="345.41" y1="260.34" x2="397.48" y2="150.42" gradientTransform="matrix(1, 0, 0, -1, 0, 404)" gradientUnits="userSpaceOnUse"><stop offset="0.01" stop-color="#28903a"/><stop offset="0.3" stop-color="#287a35"/><stop offset="0.92" stop-color="#204a25"/><stop offset="1" stop-color="#1f4423"/></linearGradient><linearGradient id="Безымянный_градиент_8" x1="75.31" y1="183.72" x2="412.28" y2="183.72" gradientTransform="matrix(1, 0, 0, -1, 0, 404)" gradientUnits="userSpaceOnUse"><stop offset="0.01" stop-color="#c5eafb"/><stop offset="1" stop-color="#0071bc"/></linearGradient><linearGradient id="Безымянный_градиент_9" x1="202.48" y1="239.08" x2="265.15" y2="122.41" gradientTransform="matrix(1, 0, 0, -1, 0, 404)" gradientUnits="userSpaceOnUse"><stop offset="0.01" stop-color="#c5eafb"/><stop offset="0.19" stop-color="#c5e7f9"/><stop offset="0.26" stop-color="#bddff5"/><stop offset="0.3" stop-color="#b1d3f0"/><stop offset="0.34" stop-color="#a1c3e7"/><stop offset="0.37" stop-color="#8db0dd"/><stop offset="0.4" stop-color="#769bd0"/><stop offset="0.43" stop-color="#5c83c2"/><stop offset="0.45" stop-color="#3a6db5"/><stop offset="0.47" stop-color="#0057a8"/><stop offset="0.48" stop-color="#0054a6"/><stop offset="1" stop-color="#bbe0f6"/></linearGradient><radialGradient id="Безымянный_градиент_10" cx="292.69" cy="230.78" r="3.99" gradientTransform="matrix(1, 0, 0, -1, -4.83, 384.61)" gradientUnits="userSpaceOnUse"><stop offset="0" stop-color="#fff"/><stop offset="1" stop-color="#0054a6"/></radialGradient><radialGradient id="Безымянный_градиент_11" cx="106.5" cy="177.5" r="3.99" xlink:href="#Безымянный_градиент_10"/><linearGradient id="Безымянный_градиент_12" x1="249.3" y1="186.89" x2="320.57" y2="234.24" gradientTransform="matrix(1, 0, 0, -1, 0, 404)" gradientUnits="userSpaceOnUse"><stop offset="0.01" stop-color="#00adef"/><stop offset="1" stop-color="#015d70"/></linearGradient><linearGradient id="Безымянный_градиент_13" x1="-305.61" y1="-192.37" x2="-291.05" y2="-209.57" gradientTransform="matrix(0.8, -0.6, -0.6, -0.8, 167.52, -95.49)" xlink:href="#Безымянный_градиент_4"/><linearGradient id="Безымянный_градиент_14" x1="-1484.07" y1="563.77" x2="-1466.87" y2="543.46" gradientTransform="matrix(-0.98, 0.19, 0.19, 0.98, -1315.9, 75.92)" xlink:href="#Безымянный_градиент_2"/><linearGradient id="Безымянный_градиент_15" x1="238.47" y1="88.51" x2="254.25" y2="88.51" gradientTransform="matrix(1, 0, 0, -1, 0, 404)" xlink:href="#Безымянный_градиент_2"/><radialGradient id="Безымянный_градиент_16" cx="101.7" cy="153.8" r="3.99" xlink:href="#Безымянный_градиент_10"/><radialGradient id="Безымянный_градиент_17" cx="-602.46" cy="-28.45" r="12.22" gradientTransform="matrix(-0.08, -1.15, -1, 0.07, 40.89, -393.82)" gradientUnits="userSpaceOnUse"><stop offset="0.01" stop-color="#71a03a"/><stop offset="1" stop-color="#006e3a"/></radialGradient><radialGradient id="Безымянный_градиент_18" cx="94.72" cy="130.57" r="3.99" xlink:href="#Безымянный_градиент_10"/><radialGradient id="Безымянный_градиент_19" cx="146.7" cy="153.8" r="3.99" xlink:href="#Безымянный_градиент_10"/><radialGradient id="Безымянный_градиент_20" cx="144.46" cy="147.5" r="3.99" xlink:href="#Безымянный_градиент_10"/><radialGradient id="Безымянный_градиент_21" cx="165.92" cy="193.24" r="3.99" xlink:href="#Безымянный_градиент_10"/><radialGradient id="Безымянный_градиент_22" cx="148.05" cy="189.51" r="3.99" xlink:href="#Безымянный_градиент_10"/><radialGradient id="Безымянный_градиент_23" cx="139.04" cy="173.3" r="3.99" xlink:href="#Безымянный_градиент_10"/><radialGradient id="Безымянный_градиент_24" cx="189.54" cy="195.3" r="3.99" xlink:href="#Безымянный_градиент_10"/><radialGradient id="Безымянный_градиент_25" cx="182.74" cy="214.59" r="3.99" xlink:href="#Безымянный_градиент_10"/><radialGradient id="Безымянный_градиент_26" cx="245.89" cy="247.44" r="3.99" xlink:href="#Безымянный_градиент_10"/><radialGradient id="Безымянный_градиент_27" cx="17.05" cy="-41.91" r="3.99" gradientTransform="matrix(0.89, -0.45, -0.45, -0.89, 209, 126.31)" xlink:href="#Безымянный_градиент_10"/><radialGradient id="Безымянный_градиент_28" cx="-915.42" cy="-273.51" r="3.99" gradientTransform="matrix(0.01, -1, -1, -0.01, -137.04, -616.84)" xlink:href="#Безымянный_градиент_10"/><radialGradient id="Безымянный_градиент_29" cx="-827.33" cy="-270.2" r="3.99" gradientTransform="matrix(0.02, -1, -1, -0.02, -45.67, -536.4)" xlink:href="#Безымянный_градиент_10"/><radialGradient id="Безымянный_градиент_30" cx="-1289.64" cy="222.86" r="3.99" gradientTransform="matrix(-0.66, -0.75, -0.75, 0.66, -523.67, -833.9)" xlink:href="#Безымянный_градиент_10"/><radialGradient id="Безымянный_градиент_31" cx="-973.2" cy="-269.11" r="3.99" gradientTransform="matrix(-0.13, -0.99, -0.99, 0.13, -218.43, -667.71)" xlink:href="#Безымянный_градиент_10"/><radialGradient id="Безымянный_градиент_32" cx="-883.24" cy="-391.5" r="3.99" gradientTransform="matrix(0.01, -1, -1, -0.01, -137.04, -616.84)" xlink:href="#Безымянный_градиент_10"/><radialGradient id="Безымянный_градиент_33" cx="-842.99" cy="-428.12" r="3.99" gradientTransform="matrix(0.01, -1, -1, -0.01, -137.04, -616.84)" xlink:href="#Безымянный_градиент_10"/><radialGradient id="Безымянный_градиент_34" cx="-1333.96" cy="133.1" r="3.99" gradientTransform="matrix(-0.66, -0.75, -0.75, 0.66, -523.67, -833.9)" xlink:href="#Безымянный_градиент_10"/><radialGradient id="Безымянный_градиент_35" cx="-1313.87" cy="180.68" r="3.99" gradientTransform="matrix(-0.66, -0.75, -0.75, 0.66, -523.67, -833.9)" xlink:href="#Безымянный_градиент_10"/><radialGradient id="Безымянный_градиент_36" cx="178.64" cy="179.32" r="3.99" xlink:href="#Безымянный_градиент_10"/><linearGradient id="Безымянный_градиент_37" x1="175.28" y1="146.51" x2="183.15" y2="146.51" gradientTransform="matrix(1, 0, 0, -1, 0, 404)" gradientUnits="userSpaceOnUse"><stop offset="0.01" stop-color="#c5eafb"/><stop offset="0.35" stop-color="#76b0bb"/><stop offset="0.8" stop-color="#007f83"/><stop offset="1" stop-color="#007070"/></linearGradient><linearGradient id="Безымянный_градиент_38" x1="183.63" y1="155.6" x2="189.46" y2="155.6" xlink:href="#Безымянный_градиент_37"/><linearGradient id="Безымянный_градиент_39" x1="271.61" y1="210.37" x2="325.94" y2="244.7" gradientTransform="matrix(1, 0, 0, -1, 0, 404)" gradientUnits="userSpaceOnUse"><stop offset="0.01" stop-color="#c0272d"/><stop offset="1" stop-color="#2c1111"/></linearGradient><linearGradient id="Безымянный_градиент_40" x1="211.59" y1="195.31" x2="235.59" y2="147.97" gradientTransform="matrix(1, 0, 0, -1, 0, 404)" gradientUnits="userSpaceOnUse"><stop offset="0.01" stop-color="#7a1b1e"/><stop offset="0.32" stop-color="#a02327"/><stop offset="0.6" stop-color="#c0272d"/><stop offset="1" stop-color="#710a0b"/></linearGradient><linearGradient id="Безымянный_градиент_41" x1="234.33" y1="210.8" x2="259.67" y2="176.46" gradientTransform="matrix(1, 0, 0, -1, 0, 404)" gradientUnits="userSpaceOnUse"><stop offset="0.01" stop-color="#971b1e"/><stop offset="0.17" stop-color="#ae1c21"/><stop offset="0.6" stop-color="#ed1c24"/><stop offset="1" stop-color="#971b1e"/></linearGradient><linearGradient id="Безымянный_градиент_42" x1="150.5" y1="129.21" x2="321.39" y2="232.69" gradientTransform="matrix(1, 0, 0, -1, 0, 404)" gradientUnits="userSpaceOnUse"><stop offset="0.01" stop-color="#0054a6"/><stop offset="1"/></linearGradient><linearGradient id="Безымянный_градиент_43" x1="188.07" y1="257.28" x2="243.14" y2="141.01" gradientTransform="matrix(1, 0, 0, -1, 0, 404)" gradientUnits="userSpaceOnUse"><stop offset="0.01" stop-color="#7e4131"/><stop offset="0.15" stop-color="#aa3e2e"/><stop offset="0.26" stop-color="#c62e29"/><stop offset="0.31" stop-color="#d32229"/><stop offset="0.41" stop-color="#cc2128"/><stop offset="0.55" stop-color="#bf2025"/><stop offset="0.69" stop-color="#aa1c20"/><stop offset="0.86" stop-color="#8e1517"/><stop offset="1" stop-color="#710a0b"/></linearGradient><linearGradient id="Безымянный_градиент_44" x1="-1536.04" y1="408.93" x2="-1518.84" y2="388.62" gradientTransform="matrix(-1, -0.1, -0.1, 1, -1273.56, -191.11)" xlink:href="#Безымянный_градиент_2"/><linearGradient id="Безымянный_градиент_45" x1="-1428.57" y1="-74.87" x2="-1411.37" y2="-95.18" gradientTransform="matrix(-0.63, -0.77, -0.77, 0.63, -860.13, -671.01)" xlink:href="#Безымянный_градиент_2"/><linearGradient id="Безымянный_градиент_46" x1="55.25" y1="217.77" x2="72.45" y2="197.46" gradientTransform="matrix(1, 0, 0, -1, 0, 404)" xlink:href="#Безымянный_градиент_4"/><linearGradient id="Безымянный_градиент_47" x1="-353.26" y1="-237.09" x2="-336.06" y2="-257.41" gradientTransform="matrix(0.78, -0.63, -0.63, -0.78, 140.11, -153.72)" xlink:href="#Безымянный_градиент_4"/><linearGradient id="Безымянный_градиент_48" x1="104.71" y1="419.42" x2="121.91" y2="399.11" gradientTransform="matrix(0.97, 0.15, 0.12, -1.12, -33.38, 606.22)" xlink:href="#Безымянный_градиент_4"/><linearGradient id="Безымянный_градиент_49" x1="-576.94" y1="-409.56" x2="-559.73" y2="-429.87" gradientTransform="matrix(0.51, -0.86, -0.86, -0.51, -52.83, -403.05)" gradientUnits="userSpaceOnUse"><stop offset="0.01" stop-color="#cadb2a"/><stop offset="0.13" stop-color="#99b936"/><stop offset="0.27" stop-color="#6c9e3b"/><stop offset="0.42" stop-color="#428a3c"/><stop offset="0.57" stop-color="#0e7e3c"/><stop offset="0.72" stop-color="#00753b"/><stop offset="0.86" stop-color="#00703b"/><stop offset="1" stop-color="#006e3a"/></linearGradient><linearGradient id="Безымянный_градиент_50" x1="-1254.5" y1="-235.68" x2="-1237.29" y2="-256" gradientTransform="matrix(-0.35, -0.94, -0.94, 0.35, -607.17, -724.82)" xlink:href="#Безымянный_градиент_2"/><linearGradient id="Безымянный_градиент_51" x1="-696.09" y1="908.51" x2="-679.15" y2="888.5" gradientTransform="matrix(-0.62, 1.69, 1.38, 0.62, -1634.09, 934.16)" gradientUnits="userSpaceOnUse"><stop offset="0.01" stop-color="#006e3a"/><stop offset="0.22" stop-color="#006837"/><stop offset="0.6" stop-color="#00572d"/><stop offset="1" stop-color="#0c4220"/></linearGradient><linearGradient id="Безымянный_градиент_52" x1="-1507.29" y1="23.97" x2="-1490.09" y2="3.66" gradientTransform="matrix(-0.77, -0.64, -0.64, 0.77, -997, -596.85)" xlink:href="#Безымянный_градиент_2"/><linearGradient id="Безымянный_градиент_53" x1="199.13" y1="184.83" x2="204.89" y2="177.01" gradientTransform="matrix(0.99, 0.11, 0.11, -0.99, -50.14, 460.31)" xlink:href="#Безымянный_градиент_41"/><linearGradient id="Безымянный_градиент_54" x1="61.71" y1="719.87" x2="67.47" y2="712.06" gradientTransform="matrix(0.89, 0.81, 0.82, -0.91, -488.99, 806.42)" xlink:href="#Безымянный_градиент_41"/></defs><path id="path15" class="cls-1" d="M176.31,351.68s-2.44-1.59-4.47,1.45l7.42,20.33s2.25,2.74,3.4,1.92c0,0,1.77-.89,1.45-3.64Z" transform="translate(-4.83 -19.39)"/><path id="path22" class="cls-2" d="M90,350.15s-.38-2.88-4-2.44L75.43,366.59s-.62,3.49.75,3.83c0,0,1.83.77,3.72-1.27Z" transform="translate(-4.83 -19.39)"/><path id="path39" class="cls-3" d="M148.56,174.76s1.79,1.42,3.34-1.74l-5.29-19.72s-1.64-2.57-2.5-1.68c0,0-1.33,1-1.13,3.71Z" transform="translate(-4.83 -19.39)"/><path id="path56" class="cls-4" d="M32.63,281.88s1.83-1.38-.84-3.67l-20.41.15s-2.91.93-2.26,2c0,0,.63,1.53,3.31,2Z" transform="translate(-4.83 -19.39)"/><path id="path73" class="cls-5" d="M54,225.53s2.29.07,1.64-3.38l-16-12.66s-2.86-1.09-3,.15c0,0-.47,1.59,1.32,3.65Z" transform="translate(-4.83 -19.39)"/><path id="path84" class="cls-6" d="M305.72,322.18c6.26-9.25,18.95-17.26,26.27-21.76,26.76-16.46,57.91-26.37,87.66-35.89,20.15-6.45,43.57-12.34,53.63-33.09,11.44-23.61-13.36-43.79-6.7-69.08,2.73-10.39,4.19-23.85-1.57-33.52-4.86-8.16-20.62-12.27-29.72-10.82A88.32,88.32,0,0,0,418,122.51c-6.56,2.49-17.25,12.21-24.68,8.83-12.24-5.57,7.18-16.37,12.19-18.69,17.3-8,36.77-12.18,54.86-4.27,15.1,6.61,20.37,35.65,18.55,49.78C478,165,476,171.6,476.67,178.33c1.31,13.37,9.27,23.84,8.16,38.37-1.36,17.81-4,35.86-21.82,44.25-38.57,18.21-83.88,20.61-121.61,41.78-14.12,7.93-39.39,17.59-30.33,35.51,3.28,6.47,13,21.13.76,25,5.07-11.12,2.79-11.67-4.9-19.68C300,336.37,301.15,329,305.72,322.18Z" transform="translate(-4.83 -19.39)"/><path id="path86" class="cls-7" d="M84.3,205.91S38.75,242,64.25,318.75c0,0,38.25,52.75,119.25,27.75L390,220s10-50.7-15-76.85-54-41.24-92.5-36.94Z" transform="translate(-4.83 -19.39)"/><path id="path93" class="cls-8" d="M173.12,334.8c-56.37,16.95-93.4-20-93.79-23.06-1.54-12-12.66-63,10.47-96.73,0,0,225.08-107.79,233.39-113.14,8.56-5.51,46.53,33,49.31,37.88,6.85,11.87,48.63,39.2,38.08,51.37Z" transform="translate(-4.83 -19.39)"/><path id="path120" class="cls-9" d="M173.78,333.79c-56.36,17-93.39-20-93.78-23.05-1.54-12-16.27-63,10.47-96.73,0,0,225.08-107.79,233.38-113.14,8.56-5.51,46.53,33,49.32,37.88,6.84,11.87,48.63,39.2,38.08,51.37Z" transform="translate(-4.83 -19.39)"/><path id="path228" class="cls-10" d="M182.13,254.51" transform="translate(-4.83 -19.39)"/><ellipse id="ellipse235" class="cls-11" cx="287.86" cy="153.83" rx="3.8" ry="4.18"/><ellipse id="ellipse242" class="cls-12" cx="101.67" cy="207.12" rx="3.8" ry="4.18"/><ellipse id="ellipse244" class="cls-13" cx="254.17" cy="145.33" rx="3.8" ry="4.18"/><ellipse id="ellipse246" class="cls-13" cx="320.28" cy="201.18" rx="3.8" ry="4.18"/><ellipse id="ellipse248" class="cls-13" cx="304.17" cy="178.28" rx="3.8" ry="4.18"/><ellipse id="ellipse250" class="cls-14" cx="92.98" cy="224.87" rx="3.8" ry="4.18"/><path id="path339" class="cls-15" d="M249.32,143c-4.3,1.43-8.31,3.25-11.07,7.15-3.36,4.74-4.3,10.85-4.58,16.52a77.55,77.55,0,0,0,1,15.27c1,6.81,5.41,12,9.59,17.39,3.76,4.83,6.41,10.27,10.42,15,5.7,6.65,10.7,14.34,17.64,19.81,7.91,6.25,17.53,10.28,27.27,12.59,5.76,1.36,13.29,2.91,18.89,0,4.61-2.41,4.69-8.48,7.25-12.47,1.44-2.24,3-4.42,4.37-6.67a169.45,169.45,0,0,0,9.6-17.35c5.77-12.12,11-26.42,8.54-40a28.8,28.8,0,0,0-7.91-15.47c-4.19-4.2-10.14-7.38-15.3-10.12-12-6.36-25.3-10.41-38.9-10.59A70.78,70.78,0,0,0,264,137.19c-4.1,1.28-7.88,3.68-11.91,4.91Z" transform="translate(-4.83 -19.39)"/><path id="path356" class="cls-16" d="M58.69,248.63s3.58-1.25,2.15-4.61l-17-3.47s-4.24-.1-4.24,3.07a3.15,3.15,0,0,0,3.08,2.21Z" transform="translate(-4.83 -19.39)"/><path id="path358" class="cls-17" d="M88.75,358.25c-1.14.91-3.75.21-4.6-.76-1-1.14-.66-2.61-.06-3.84,1-1.94,4.5-4.51,5.78-1.66.93,2.05.26,5.42-1.75,6.64" transform="translate(-4.83 -19.39)"/><path id="path365" class="cls-18" d="M231,328.77s-2.91-.12-3.1,3.53L244.6,346s3.33,1.21,3.9-.09c0,0,1.07-1.67-.61-3.87Z" transform="translate(-4.83 -19.39)"/><path id="path372" class="cls-19" d="M238.47,312.39c0,1.24.25,1.23,1.31,1.91.33.22,8.68,5.74,9.1,5.88,1.45.48,5.43-.42,5.37-1.07-.19-2.17-11.63-8.09-13.45-8.43C239.84,310.5,238.47,312,238.47,312.39Z" transform="translate(-4.83 -19.39)"/><ellipse id="ellipse379" class="cls-20" cx="96.87" cy="230.82" rx="3.8" ry="4.18"/><ellipse id="ellipse381" class="cls-21" cx="96.87" cy="230.82" rx="3.8" ry="4.18"/><g id="g383"><path id="path390" class="cls-22" d="M114.88,283.38c7.05-.48,13.16,5.12,13.66,12.5s-4.82,13.74-11.86,14.22S103.52,305,103,297.59,107.84,283.85,114.88,283.38Z" transform="translate(-4.83 -19.39)"/><path id="path392" class="cls-21" d="M116.05,300.67c8.43-.57,12.49-4.89,12.49-4.89.5,7.38-4.82,13.75-11.86,14.22s-15.91-5.7-13.05-17.51C103.63,292.49,108,300.55,116.05,300.67Z" transform="translate(-4.83 -19.39)"/></g><ellipse id="ellipse394" class="cls-23" cx="101.67" cy="207.12" rx="3.8" ry="4.18"/><ellipse id="ellipse401" class="cls-24" cx="89.89" cy="254.04" rx="3.8" ry="4.18"/><path id="path403" class="cls-21" d="M93.6,273.43a7,7,0,0,0,1.15,4.18,4,4,0,0,1-3.8-4.18c0-2.31,1.91-5.06,5.21-3.87A5.15,5.15,0,0,0,93.6,273.43Z" transform="translate(-4.83 -19.39)"/><g id="g405"><ellipse id="ellipse412" class="cls-25" cx="141.87" cy="230.82" rx="3.8" ry="4.18"/><ellipse id="ellipse414" class="cls-21" cx="141.87" cy="230.82" rx="3.8" ry="4.18"/></g><ellipse id="ellipse421" class="cls-26" cx="139.64" cy="237.12" rx="3.8" ry="4.18"/><path id="path423" class="cls-21" d="M143.35,256.5a7,7,0,0,0,1.14,4.18,4,4,0,0,1-3.8-4.18c0-2.3,1.92-5.06,5.21-3.87A5.12,5.12,0,0,0,143.35,256.5Z" transform="translate(-4.83 -19.39)"/><g id="g425"><ellipse id="ellipse432" class="cls-27" cx="161.09" cy="191.37" rx="3.8" ry="4.18"/><ellipse id="ellipse434" class="cls-28" cx="161.09" cy="191.37" rx="3.8" ry="4.18"/></g><ellipse id="ellipse441" class="cls-29" cx="143.23" cy="195.1" rx="3.8" ry="4.18"/><path id="path443" class="cls-21" d="M146.54,214.49a5.91,5.91,0,0,0,1.52,4.18,4.2,4.2,0,0,1,0-8.36A6.3,6.3,0,0,0,146.54,214.49Z" transform="translate(-4.83 -19.39)"/><ellipse id="ellipse445" class="cls-14" cx="168.73" cy="213.73" rx="3.8" ry="4.18"/><g id="g447"><ellipse id="ellipse454" class="cls-30" cx="134.21" cy="211.32" rx="3.8" ry="4.18"/><ellipse id="ellipse456" class="cls-31" cx="134.21" cy="211.32" rx="3.8" ry="4.18"/></g><g id="g458"><ellipse id="ellipse465" class="cls-32" cx="184.71" cy="189.32" rx="3.8" ry="4.18"/><path id="path467" class="cls-21" d="M191.14,208.4a4.74,4.74,0,0,0,.05,1.61c.09.45.39,1.09.92,1.17a1.27,1.27,0,0,0,.55-.13,3.19,3.19,0,0,1-1.32,1.33,3.57,3.57,0,0,1-1.81.5,4.2,4.2,0,0,1,0-8.36,3.45,3.45,0,0,1,1.78.49,3.35,3.35,0,0,1,.74.56,3.85,3.85,0,0,1,.51.56c.07.1.2.27.18.4-.11,0-.17-.13-.3-.15a.58.58,0,0,0-.36.12,1.84,1.84,0,0,0-.51.6A3.17,3.17,0,0,0,191.14,208.4Z" transform="translate(-4.83 -19.39)"/></g><ellipse id="ellipse469" class="cls-14" cx="179.54" cy="163.74" rx="3.8" ry="4.18"/><g id="g471"><ellipse id="ellipse478" class="cls-33" cx="177.91" cy="170.03" rx="3.8" ry="4.18"/><ellipse id="ellipse480" class="cls-31" cx="177.91" cy="170.03" rx="3.8" ry="4.18"/></g><g id="g482"><ellipse id="ellipse489" class="cls-34" cx="241.06" cy="137.17" rx="3.8" ry="4.18"/><ellipse id="ellipse491" class="cls-31" cx="241.06" cy="137.17" rx="3.8" ry="4.18"/></g><g id="g493"><path id="path500" class="cls-35" d="M246.48,154.34a3.81,3.81,0,1,1-5.27-2A4,4,0,0,1,246.48,154.34Z" transform="translate(-4.83 -19.39)"/><path id="path502" class="cls-21" d="M242.09,156.56a6.94,6.94,0,0,0,2.91,3.21,4,4,0,0,1-5.28-2c-1-2.06-.57-5.38,2.91-5.8A5.14,5.14,0,0,0,242.09,156.56Z" transform="translate(-4.83 -19.39)"/></g><ellipse id="ellipse504" class="cls-14" cx="208.59" cy="185.37" rx="3.8" ry="4.18"/><g id="g506"><path id="path513" class="cls-36" d="M128.09,297.3a3.82,3.82,0,1,1-4.21,3.76A4,4,0,0,1,128.09,297.3Z" transform="translate(-4.83 -19.39)"/><path id="path515" class="cls-21" d="M128.05,302.21a7,7,0,0,0,4.19-1.1,4,4,0,0,1-4.22,3.76c-2.3,0-5-2-3.82-5.24A5.12,5.12,0,0,0,128.05,302.21Z" transform="translate(-4.83 -19.39)"/></g><g id="g517"><path id="path524" class="cls-37" d="M210.74,291.56a3.82,3.82,0,1,1-4.24,3.73A4,4,0,0,1,210.74,291.56Z" transform="translate(-4.83 -19.39)"/><path id="path526" class="cls-21" d="M210.4,293.75a4.85,4.85,0,0,0,1.62,0c.45-.09,1.1-.38,1.18-.91a1.16,1.16,0,0,0-.12-.55,3.25,3.25,0,0,1,1.31,1.34,3.61,3.61,0,0,1,.47,1.82,4.2,4.2,0,0,1-8.36-.14,3.48,3.48,0,0,1,.52-1.77,3.68,3.68,0,0,1,.57-.73,3.85,3.85,0,0,1,.57-.5c.1-.06.28-.2.4-.18,0,.11-.13.18-.15.3a.7.7,0,0,0,.11.37,2.09,2.09,0,0,0,.59.52A3.32,3.32,0,0,0,210.4,293.75Z" transform="translate(-4.83 -19.39)"/></g><ellipse id="ellipse528" class="cls-14" cx="154.86" cy="290.93" rx="4.18" ry="3.8" transform="translate(-158.38 155.35) rotate(-41.33)"/><g id="g530"><path id="path537" class="cls-38" d="M158.16,278.81a3.82,3.82,0,1,1-.63,5.62A4,4,0,0,1,158.16,278.81Z" transform="translate(-4.83 -19.39)"/><ellipse id="ellipse539" class="cls-39" cx="160.66" cy="281.67" rx="4.18" ry="3.8" transform="translate(-150.82 156.87) rotate(-41.33)"/></g><g id="g541"><path id="path548" class="cls-40" d="M178.16,256.9a3.82,3.82,0,1,1-3.63,4.33A4,4,0,0,1,178.16,256.9Z" transform="translate(-4.83 -19.39)"/><path id="path550" class="cls-21" d="M178.82,261.77a7,7,0,0,0,4-1.69,4,4,0,0,1-3.64,4.32c-2.28.31-5.27-1.21-4.53-4.64A5.12,5.12,0,0,0,178.82,261.77Z" transform="translate(-4.83 -19.39)"/></g><g id="g552"><path id="path559" class="cls-41" d="M246.37,266.2a3.82,3.82,0,1,1-4.22,3.76A4,4,0,0,1,246.37,266.2Z" transform="translate(-4.83 -19.39)"/><path id="path561" class="cls-21" d="M246.32,271.12a7,7,0,0,0,4.19-1.11,4,4,0,0,1-4.21,3.76c-2.31,0-5.05-2-3.82-5.24A5.12,5.12,0,0,0,246.32,271.12Z" transform="translate(-4.83 -19.39)"/></g><g id="g563"><path id="path570" class="cls-42" d="M283.37,226.3a3.82,3.82,0,1,1-4.22,3.76A4,4,0,0,1,283.37,226.3Z" transform="translate(-4.83 -19.39)"/><path id="path572" class="cls-21" d="M283.32,231.21a6.92,6.92,0,0,0,4.19-1.1,4,4,0,0,1-4.21,3.76c-2.31,0-5.05-2-3.82-5.24A5.12,5.12,0,0,0,283.32,231.21Z" transform="translate(-4.83 -19.39)"/></g><g id="g574"><path id="path581" class="cls-43" d="M254.82,252.81a3.82,3.82,0,1,1-.62,5.62A4,4,0,0,1,254.82,252.81Z" transform="translate(-4.83 -19.39)"/><ellipse id="ellipse583" class="cls-39" cx="257.32" cy="255.67" rx="4.18" ry="3.8" transform="translate(-109.58 214.24) rotate(-41.33)"/></g><g id="g585"><path id="path592" class="cls-44" d="M205.82,269.15a3.81,3.81,0,1,1-.62,5.61A4,4,0,0,1,205.82,269.15Z" transform="translate(-4.83 -19.39)"/><ellipse id="ellipse594" class="cls-39" cx="208.32" cy="272" rx="4.18" ry="3.8" transform="translate(-132.57 185.95) rotate(-41.33)"/></g><path id="path596" class="cls-45" d="M165.28,249.42c-1.54-1.47.33-3.45,1.44-4.48,2.36-2.18,3.22-1.38,3.87-4.62.57-2.8,1.54-8.49,5-9-1.32-3.37,5-10.52,8-11.55,2.13-.73,4.12-.54,6.35-1.71,2.55-1.33,2.74-2.78,4.07-5s3.6-3.17,5.64-4.58c2.53-1.74,6.32-6.41,9.61-6.09,1.63.15,1.88,1.54,4,1.26s3.8-2.33,6-1.38c1.94-3.39,4.15-8.86,8.34-10.16,1-.31,2.1.11,3-.05,1.09-.21,2.33-.7,3.35-1,1.51-.46,1.19.34,2.35-1,.7-.79,1-2.65,2-3.69,3.36-3.43,9-5,13.62-6.06-.21,0,.39-2.87.56-3.2a9.39,9.39,0,0,1,2.67-2.62,15.68,15.68,0,0,1,7-3.14c3.71-.52,6.82-.42,10.56-1.86a36.57,36.57,0,0,0,8.38-5.21,16,16,0,0,1,8.59-2.94c6.25-.53,10.38-5.05,16.8-5.5,6.15-.43,13.43,1.39,18.2,5.45,3.81,3.23,7.58,10.19,5.83,15.23-1.66,4.79-6.85,8.43-11.24,5-.38,1-1.17,1.08-2,1.49-1.8.84-2.93,1.28-4,3.28-2,3.65,0,6.67-1.22,10.19-1.05,3-1.94,5.93-4.74,7.77-2.06,1.35-5.65,3.21-8,1.77-.32,2.44-2.05,2.25-3.48,3.48-1.17,1-1,2.26-1.56,3.69a15.53,15.53,0,0,1-5.08,6.51c-2.08,1.6-4.28,1.9-6.47,3.07-5,2.67-8.3,7.93-13.13,10.91-2.08,1.28-5,3.49-7.59,3.58-1.8.07-3.12-1.15-5.07-.29-2.22,1-3,3.19-3.8,5.08-2.46,5.46-7.35,10.71-12.18,14.23-3.46,2.52-18.65,9.53-20,1.4-3.09,1.63-7,1.44-9.86,3.29-4.5,2.86-10.22,11.15-16.37,10-.86-.17-1.06-1.28-1.68-1.31-1.87-.06-4.68,2.32-6.44,3-2.57.94-10.33,3.16-12.6.41-1.05-1.27.11-3.75-2.4-4.47-1.26-.36-2.7.81-4,.81s-2.5-1-3.67-1c-3.41.06-8.09,4.27-11.25,5.63-2.45,1.06-8.79,3.8-11,1a11.44,11.44,0,0,0,.59-1.27c-3.59-.07-4.81-2.38-2-5.08,2.64-2.49,4.19-1.34,6.95-.35.54-1.42,1.28-5.61,3.3-4.68-.23-.12,4-6.33,4.39-6.81C155.9,255.71,164.79,249,165.28,249.42Z" transform="translate(-4.83 -19.39)"/><g id="g598"><ellipse id="ellipse605" class="cls-46" cx="173.81" cy="205.29" rx="3.8" ry="4.18"/><path id="path607" class="cls-21" d="M177.52,224.68a7,7,0,0,0,1.15,4.18,4,4,0,0,1-3.8-4.18c0-2.31,1.91-5.06,5.21-3.87A5.15,5.15,0,0,0,177.52,224.68Z" transform="translate(-4.83 -19.39)"/></g><g id="g609"><path id="path611" class="cls-47" d="M296.35,176.66c-2.23-.9-5.61.45-7.49,1.24-5.06,2.12-9.76,6.24-13.61,10.1-2.34,2.35-4.89,4.72-8.18,5.56-2.61.66-5.71,2.35-8.09.19-2.86-2.58,1.07-5.41,3.2-6.49,3.19-1.63,6.42-1.34,9.81-2a29.63,29.63,0,0,0,9.76-4,30.33,30.33,0,0,0,8.27-7.15c1.43-2,4-6.54,2.18-8.86-1.08-1.36-3.5-1.24-5-.93-3.36.7-5.91,2.71-8.2,5.2a13.26,13.26,0,0,1-7.52,4.32c-2.43.63-4.35,1.88-6.67,1.17-2.05-.62-4.17-1.16-6.28,0-1.27.71-2,2-3,3-2.5,2.35-5.76,2.48-8.68,3.92l-.42.2-1.83.79a16.57,16.57,0,0,0-6.83,4.43c-1.71,2-2.36,4.66-3,7.25s-1.27,5.18-2.88,5.93a5.93,5.93,0,0,1-2.14.27,9.09,9.09,0,0,0-4,.73,7.78,7.78,0,0,0-3.46,3.92,7.84,7.84,0,0,1-1.13,1.82,6,6,0,0,1-2.13,1.59,6.37,6.37,0,0,0-3.6-3c-5.53-2.21-13.27,1.74-16.59,4.15a39.87,39.87,0,0,0-8.14,7.88,17.67,17.67,0,0,0-2.23,4.29l-1.12,2.46a8.18,8.18,0,0,1-2.23,1.84c-1.94,1.31-4.6,3.09-4.4,6.33.12,1.95.82,3.27,2.09,3.94,2.19,1.16,4.72-.35,6.56-1.45l.28-.16c2.39-1.42,7.4-2.43,8.26-1.68a3.33,3.33,0,0,1-.37,1.47c-.44,1.06-2.18,3.15-8.81,5.21a13.59,13.59,0,0,1-3,.38,13.84,13.84,0,0,0-4.08.63c-2.07.75-3.83,2.41-5.52,4a22.43,22.43,0,0,1-2.94,2.49l-2,1.27a78.33,78.33,0,0,1-8.44,5c-1.86.89-11.13,5.68-11.42,12.67,0,0,0,.06,0,.09a2,2,0,0,0,2.64,1.89,65.06,65.06,0,0,0,11.78-5.79,82.12,82.12,0,0,1,8.35-4.4c.13.47.24.95.36,1.43.63,2.7,1.29,5.5,3.75,6.31s4.82-.95,6.69-2.54c2.87-2.45,3.72-5.47,4.54-8.39l.77-2.53c.6-1.74.6-1.74,2.54-1.92l.48,0a23.9,23.9,0,0,0,7.09-2l.94-.35c-2.53,2.54-4.69,5.4-4.69,8.33a5.44,5.44,0,0,0,.1,1.06A4.29,4.29,0,0,0,199,261c2.35,1.16,5.35,0,8.24-1.5a32.53,32.53,0,0,0,14.58-15,21.33,21.33,0,0,0,3.39-4.69,3.2,3.2,0,0,1,.79,1.37,2.84,2.84,0,0,1,.1.76,5.6,5.6,0,0,1-.89,2.73,5.94,5.94,0,0,1-1,1.18,9.19,9.19,0,0,0-1.52,1.75,11.66,11.66,0,0,0-1.37,4.46.68.68,0,0,1,0,.14,8.38,8.38,0,0,0-.71,3.07,6.41,6.41,0,0,0,1.14,3.69c1.73,2.5,5.09,3.63,8.76,2.95,5.94-1.1,10.42-5.13,13.66-8.52a24.21,24.21,0,0,0,6.9-14.46c0-.14,0-.29,0-.45a16.86,16.86,0,0,0-.22-2.2,15.39,15.39,0,0,1-.2-1.78,1.07,1.07,0,0,1,.43-.2,1.88,1.88,0,0,0,.83.82,1.94,1.94,0,0,0,1.55.07l1-.37.55-.2,1.33.58a10.66,10.66,0,0,0,8.26.32c6.35-2,11-6.56,14.3-13.89a8.74,8.74,0,0,0,5.92-.94c1.95-1.31,2-2.68,2.46-4.68.49-2.15,1.82-3.92,2.56-6a22.85,22.85,0,0,1,2.25-5.31,7.22,7.22,0,0,1,5.51-3.38c2.18-.26,2.64.25,3.43-2,.92-2.63.05-2.79,2.79-3.05s3.93-.69,5-3.25c2.41-5.95,1.35-12.68,6.06-17.78,1.31-1.42,2.94-2.41,2.28-4.66-1.33-4.56-8.3-4.24-11.59-2.55-5.46,2.81-3.39,8.85-3,13.5.18,2.07-.74,5.33-1.2,7.42-.75,3.39-8.15,7.05-10,2.64-1.06-2.51,1.74-3.42,3.45-4.08a6.46,6.46,0,0,0,2.93-9.88A3.12,3.12,0,0,0,296.35,176.66ZM224.09,210a11.1,11.1,0,0,0,1.76-2.73c.58-1.14.91-1.75,1.68-2.14a6,6,0,0,1,2.28-.31,8.9,8.9,0,0,0,3.74-.64c3.36-1.56,4.28-5.31,5.08-8.62s1.87-7.26,5.39-8.79c3.13-1.36,6.78-.89,9.72-2.8,2-1.27,3.69-4.32,5.75-5.2s5.08.75,7.26.76c7.05,0,10.19-4.62,15-8.76,1.47-1.26,4.39-3.69,5.57-.8,1,2.37-2.27,5.28-3.87,6.62-6.34,5.29-14.18,4.3-21.74,6.63-3.24,1-6.11,2.16-7.64,5.49-2.84,6.17,3.22,11.09,9.2,10.14s11.4-5,15.5-9.32a30.8,30.8,0,0,1,5.49-4.43c2.21-1.51,3.91-4.23,6.73-4.41s3.66,2.14,1.27,3.77c-1.72,1.17-3.93,2-5.06,3.81-1.66,2.72-.15,6.7,2.45,8.28,3.61,2.18,6.58-.64,9.6-2.27,2.66-1.43,4.88-1.45,6.45-4.44,1.37-2.6.52-19.78,4.52-18.77.75,1.5-2.15,5.13-2.77,6.77-1.13,3-.86,5.22-.94,8.19-.19,6.72-9.86,6.62-10,12.71-3.84.64-7.32,1.06-9.72,4.6a18.86,18.86,0,0,0-2.65,7.46c-.36,2,.36,5.28-1.6,6.59a4.7,4.7,0,0,1-3.35.23,2,2,0,0,0-1.83-.48,2,2,0,0,0-1.43,1.19c-2.84,7.35-6.84,11.6-12.57,13.39a6.79,6.79,0,0,1-5.56-.21l-1-.42a3.66,3.66,0,0,0-3.44-.12,3.52,3.52,0,0,0-1.91-.67,4.78,4.78,0,0,0-4.5,2.53c-.52,1.07-.32,2.44-.09,4a14,14,0,0,1,.18,1.71,20.31,20.31,0,0,1-5.82,12.07c-2.82,2.95-6.67,6.46-11.49,7.35-2.07.38-3.93-.13-4.74-1.3a2.38,2.38,0,0,1-.36-1.21,15.39,15.39,0,0,0,.51-2.22,5.28,5.28,0,0,1,.26-.54l-.15-.08a8.24,8.24,0,0,1,.8-2.91,6.06,6.06,0,0,1,.91-1,9.77,9.77,0,0,0,1.68-2,9.37,9.37,0,0,0,1.45-4.78,6.9,6.9,0,0,0-.22-1.76,7.93,7.93,0,0,0-3.49-4.55c0-.2,0-.41,0-.6s0-.62,0-.93v-1.4a7.65,7.65,0,0,1,1.35-3.79l.4-.74.16-.29c3.57,3,6.64,3.46,10.95,1.54,4-1.77,9.87-7.92,9.73-13.14a8.15,8.15,0,0,0-3.32-6.42c-3.68-2.85-9.79-3.43-13.67-2.54a40.42,40.42,0,0,0-8.22,3C223.87,210.16,224,210.1,224.09,210Zm-39.39,22.6v-.06c0-.86,1.05-1.64,2.64-2.71a10.41,10.41,0,0,0,3.47-3.18l1.36-3a14,14,0,0,1,1.71-3.36c.1-.13.24-.25.34-.38-.11.19-.26.39-.35.57a9.18,9.18,0,0,0-1,3.85,4.89,4.89,0,0,0,1.67,3.82,5.72,5.72,0,0,0,1.94,1.06,21.24,21.24,0,0,0-8.91,2.46l-.29.18a12.19,12.19,0,0,1-2.54,1.24A3.6,3.6,0,0,1,184.7,232.57Zm12.49-7.43c-.7-.61.06-2.42.31-3,1.71-3.68,9.44-9.18,13.33-9.48a16.27,16.27,0,0,1,3.56.22,4.13,4.13,0,0,0-.61,2.09v.08a6.27,6.27,0,0,0,1,3.28,7.18,7.18,0,0,0-.5,2.58,11.35,11.35,0,0,0,.14,1.61,5.44,5.44,0,0,1,.07.67c0,.48-.24.63-1.17,1.15-2.28,1.26-5.93,1.57-7.74,0a2,2,0,0,0-2.39-.15C201,225.71,198.1,225.93,197.19,225.14ZM219.4,212.9l-.46.37.12-.27C219.17,213,219.29,212.93,219.4,212.9Zm-4.11,15c2.47-1.37,3.12-2.83,3.19-4.28a22.69,22.69,0,0,1,2,9.2c0,.37-.07.73-.09,1.1-4.86.3-8.89,4.55-11.81,7.66l-.69.73-2,1.86-.53-.74a2.68,2.68,0,0,0-2.35,0l-.88.3L198.84,245a19.86,19.86,0,0,1-6,1.71l-.46,0c-3.28.3-4.64.77-6,4.59l-.84,2.76c-.72,2.56-1.34,4.77-3.29,6.43-2.11,1.8-2.87,1.77-2.88,1.77a12.8,12.8,0,0,1-1.07-3.42,24.82,24.82,0,0,0-1.16-4,2,2,0,0,0-2.52-1.1,68,68,0,0,0-10.92,5.48c-2.17,1.25-4.39,2.51-6.65,3.61a22.81,22.81,0,0,1,7.39-5.4,80.45,80.45,0,0,0,8.88-5.22l2-1.26a26,26,0,0,0,3.53-3,14.74,14.74,0,0,1,4.15-3.16,10.93,10.93,0,0,1,2.94-.4,16.34,16.34,0,0,0,3.94-.55c6.33-2,10-4.42,11.31-7.49a7.58,7.58,0,0,0,.67-2.92,3.93,3.93,0,0,0-1.36-3.1,4.51,4.51,0,0,0-1.6-.86,12.2,12.2,0,0,0,5.28-1.32C207.55,230.15,212.21,229.58,215.29,227.87Zm17.58-16.66c3-.69,7.75-.19,10.32,1.8a4.22,4.22,0,0,1,1.78,3.36c.07,3-4.22,8-7.37,9.38-2.9,1.3-4.35,1.09-6.74-.94L230,224a2.91,2.91,0,0,0-2.56-1.1c-1.21.2-1.69,1.14-2.25,2.23l-.58,1.1-.39.7-.29.55a27.74,27.74,0,0,0-2.18-6.45,14.31,14.31,0,0,0-2.07-2.87.34.34,0,0,0-.08-.09C222.44,214.68,228.9,212.12,232.87,211.21ZM210.81,245l.7-.75c3-3.15,5.6-5.71,8.3-6.29a24.24,24.24,0,0,1-1.44,4.31,16.06,16.06,0,0,1-7.05,4.53,4.78,4.78,0,0,1-2.47,0Zm-10.19,12a2.22,2.22,0,0,1,0-.37c0-1.94,2.54-4.63,5-6.87a8.28,8.28,0,0,0,6.69,1c.12,0,.24-.09.36-.12a29.11,29.11,0,0,1-7.21,5.3c-3.66,1.85-4.52,1.56-4.66,1.48A1.18,1.18,0,0,1,200.62,257Z" transform="translate(-4.83 -19.39)"/></g><g id="g613"><path id="path615" class="cls-48" d="M242.56,200.54a7.88,7.88,0,0,0-1.53,4.3c0,2.38,1.64,3.92,2.77,5a7,7,0,0,1,1.79,2.27l-.49.31c-1,.59-3.18,1.94-3.18,4.55a5.92,5.92,0,0,0,.52,2.32,4.9,4.9,0,0,0,2,2.1l.35.25a2.58,2.58,0,0,1,.13.91,10.51,10.51,0,0,1-.37,2.5,9.58,9.58,0,0,1-4.92,5.93,9.34,9.34,0,0,1-7.47.67c-3.71-1.34-3.43-3.73-2.89-5.4l.52-1.27a5,5,0,0,0-1.54-6.79,4.18,4.18,0,0,1-.49-.42c-.09-.42,0-.79.37-1.65l.58-1.77c.9-3.86.63-7-.81-9.2a7.61,7.61,0,0,0-5-3.28c-5.19-1-12,1.78-15,6.17a13.7,13.7,0,0,0-2.1,6.41c0,.16,0,.31,0,.46a6.36,6.36,0,0,0,.82,2.38l.13.27-.07,0-1.2,1-1,1-.52.57c-2.88,2.6-3.86,2.36-6.78.15a12.28,12.28,0,0,0-12.26-1.7,9.32,9.32,0,0,0-5.44,8.12s0,.35,0,.74l-.08,0a5,5,0,0,1-1.06.2,6.82,6.82,0,0,0-2.64.75c-2,1.18-2.51,2.53-2.51,3.58a3,3,0,0,0,0,.42c.3,2.38,2.78,3.44,5.35,4.24L176,240l3.12.92,2.33.79c.41.12,1,.29,1.53.47a4.59,4.59,0,0,1-1,.31c-1.32.21-2.65-.4-4.2-1.1a13.14,13.14,0,0,0-5.79-1.58c-3.42.07-7.14,1.91-7.22,5.8v.13a5,5,0,0,0,.52,2.17,5.83,5.83,0,0,0-3.56.94,7.05,7.05,0,0,0-2.81,5.16l-.22,1.81,1.65.76a2.09,2.09,0,0,1,.88.59c0,.74-2.4,3-4.57,4a11,11,0,0,1-3,.65c-2.35.31-5.28.69-7.08,3.52a3.15,3.15,0,0,0-.2.47,4.08,4.08,0,0,0-2.69-.63,5.13,5.13,0,0,0-4.19,4.69c0,.15,0,.29,0,.43a4.39,4.39,0,0,0,.57,2.1c0,.15-.06.3-.06.45a6.34,6.34,0,0,0,.72,2.85c1.27,2.1,4.51,2.4,4.88,2.43,3.1.23,6.76-1.91,8.67-3.21a13,13,0,0,0,2.94-3,6.45,6.45,0,0,1,2.2-2.16h0a6,6,0,0,1,1.46-.16,7.7,7.7,0,0,0,3.66-.77,5.25,5.25,0,0,0,2-2.31l.17-.29a5.6,5.6,0,0,0,1.63.54,8.8,8.8,0,0,0,4.34-.5c.24,2.83.83,5.66,3,7.44,1.64,1.34,3.88,1.81,6.64,1.39s7.62-3,9-6c1.27-2.76.35-5.57-.39-7.84a12.79,12.79,0,0,1-.7-2.67c-.11-1.18.14-1.64.21-1.69s.75-.25,2.13.19a2.1,2.1,0,0,1,.83.4,7,7,0,0,1-.11,1.5,10,10,0,0,0,.34,5c1.29,3.3,4.36,4.7,8.22,3.73,4.39-1.1,10.37-5.8,11.72-10.45l1.35-.08c2.37-.12,5.07-.26,7.17-1.93,1.9-1.51,2.41-3,2.41-4.19a4.25,4.25,0,0,0-.08-.83c-.47-2.32-2.77-4.08-6.85-5.22a28.64,28.64,0,0,0-6.64-.57c-2.75,0-7.34-.12-8.35-1.19-.1-.11-.12-.16-.12-.17a5.07,5.07,0,0,1,2.25-2.3c5.42-3.39,14.6-2.27,20.87.58a20.47,20.47,0,0,1,2.78,1.9c3,2.24,6.39,4.78,9.66,3.78a5.19,5.19,0,0,0,2.42-1.73c4,1,8.3-.09,12.17-3.19a19.28,19.28,0,0,0,7.14-12.64,5.23,5.23,0,0,0,3.5-.95c3.67-2.69,2.46-8.19-.21-12.16a26.86,26.86,0,0,0-2.78-3.38c-1.69-1.84-2.81-3.05-3.07-5.56a7.86,7.86,0,0,1,1.7-6.05c1.06-1.14,1.06-1.14,2.4-.56a14.15,14.15,0,0,0,2,.7c0,.12.09.22.11.34a5.72,5.72,0,0,1,.09,1,5.09,5.09,0,0,1-1.61,3.72l-2.76,2.63,3.52,1.48c3,1.24,5.78.76,8.36,0a13,13,0,0,0-2.57,7v.35c.14,3.51,2.19,5.88,5.47,6.35,4.59.64,10.44-2.8,11.82-6.95a9.23,9.23,0,0,0,.43-2.85,11.6,11.6,0,0,0-2.46-7.05,8.93,8.93,0,0,0-4.61-3.13,7.32,7.32,0,0,0-.4-2.25c-1.07-3.12-3.85-4.47-5.84-5.21a10.54,10.54,0,0,0-5.61-.33c-.28,0-.52.05-.77.08a11.26,11.26,0,0,0-4.95-4C254.84,190,246.47,194.65,242.56,200.54Zm-63,28.06h0v0Zm68.15-11.93c1-.6,3.05-1.86,3.05-4.3a5,5,0,0,0-.24-1.5,10.69,10.69,0,0,0-3.29-4.69c-.81-.77-1.18-1.11-1.18-1.51s.25-.7.69-1.36c1.85-2.79,5.79-5.76,9.49-6.28a10,10,0,0,0-1,.9,12.49,12.49,0,0,0-3.09,8.5,14.64,14.64,0,0,0,.08,1.47c.42,4.17,2.52,6.44,4.36,8.45a22.27,22.27,0,0,1,2.31,2.78,9.57,9.57,0,0,1,1.67,4.52,1,1,0,0,1-.27.82,2.17,2.17,0,0,1-1.52-.54l-5.8-5.14,1.7,7.56c.85,3.76-1.34,8.74-5.2,11.84-1.44,1.15-5.21,3.64-9.1,1.81l-2.52-1.19-.91,2.63a1.89,1.89,0,0,1-.43.81c-.88.17-3.87-2.07-5.15-3a22.51,22.51,0,0,0-3.71-2.44c-7.5-3.41-18.32-4.82-25.59-.27-1.24.77-4.16,2.9-4.56,5.92a4.87,4.87,0,0,0,0,.66,5.08,5.08,0,0,0,1.48,3.55c2.45,2.61,7.26,2.69,11.91,2.77a27.18,27.18,0,0,1,5.36.38,10.14,10.14,0,0,1,3,1.29,3.22,3.22,0,0,1-.25.23c-.84.67-2.61.76-4.32.85a18.71,18.71,0,0,0-3.95.47l-2.11.55.26,2.16v.12c0,1.84-4.33,6.4-8.23,7.37-1.88.47-2.15-.23-2.34-.7a5.57,5.57,0,0,1,0-2.56c.26-2,.73-5.72-4.14-7.29-3.52-1.13-5.64-.26-6.79.66s-2.38,2.66-2.07,6.05a17.41,17.41,0,0,0,.93,3.78c.54,1.65,1,3.21.6,4.18s-3.4,2.9-5.24,3.18a3.83,3.83,0,0,1-2.73-.32c-1.06-.86-1.21-3.76-1.33-6.08l-.13-2.51-2-.31a8.69,8.69,0,0,0-4.09.53,4.81,4.81,0,0,1-2.11.38,1.45,1.45,0,0,1-.5-.21c-1.29-.71-2.56-.94-4.57.21a3,3,0,0,0-.42.37,7.51,7.51,0,0,0,2.52-5.07h0a5,5,0,0,0-1.86-3.84,1.72,1.72,0,0,1,.2-.27,1.6,1.6,0,0,1,1.12,0l1.09.43c2.18,1,3.73.73,5.9-1.19L174,251l-.73-1.67a6.84,6.84,0,0,0-2.63-2.82,4.78,4.78,0,0,1-.9-.74c0-.43,1.1-.93,2.31-.95a9.1,9.1,0,0,1,3.63,1.12c1.89.87,4.25,1.94,7,1.49,1.86-.29,4.4-1.35,5.46-3.36a4.12,4.12,0,0,0,.49-2,4.37,4.37,0,0,0-.43-1.88c-.76-1.61-2.38-2.38-4-2.91a5.11,5.11,0,0,0,.54-1.81l.2-2-1.6-.51-2-.68-.38-.11a5.15,5.15,0,0,0,.87-.33l.46-.25c.95-.52,2.21-1.22,2.21-3a3.78,3.78,0,0,0,0-.56l0-.94a4.32,4.32,0,0,1,2.52-3.93,7.42,7.42,0,0,1,7.17,1.13c4.27,3.23,8,4.27,13.2-.47l.82-.87.8-.86.62-.5a4.72,4.72,0,0,0,2.23-3.69,2.48,2.48,0,0,0,0-.38,5.58,5.58,0,0,0-.8-2.59l-.28-.59a9.13,9.13,0,0,1,1.26-3.59c1.79-2.68,6.64-4.68,9.81-4a2.57,2.57,0,0,1,1.83,1.08,4.54,4.54,0,0,1,.53,2.38,13.34,13.34,0,0,1-.39,3l-.37,1.08a8.62,8.62,0,0,0-.74,3.2,6.18,6.18,0,0,0,.14,1.32,5.56,5.56,0,0,0,2.33,3.33l.28.23c-.06.12-.21.47-.21.47l-.76,1.88A10.87,10.87,0,0,0,224,228c0,3.77,2.3,6.83,6.49,8.34a14.34,14.34,0,0,0,11.5-.94,14.57,14.57,0,0,0,7.42-9.09,14.85,14.85,0,0,0,.53-3.73,7.25,7.25,0,0,0-.74-3.42,5.4,5.4,0,0,0-1.95-1.93l-.16-.12C247.24,217,247.49,216.8,247.7,216.67ZM162.77,263a8.93,8.93,0,0,0-.66,1.07s-.13.2-.22.36a7.15,7.15,0,0,1-1.16.12A19,19,0,0,0,162.77,263Zm-5.31,2.08ZM144,269.7Zm0,0a.68.68,0,0,1,.37.42l-.49-.05C143.89,270,144,269.7,144,269.7Zm-1.56,4.75Zm11.81-7.68c.28,0,.59-.09.88-.14a18,18,0,0,0-1.94,2.2,9.32,9.32,0,0,1-1.8,1.95c-2.15,1.46-4.41,2.43-5.48,2.35a3.47,3.47,0,0,1-1-.24s0-.06,0-.07h0v.06a1.57,1.57,0,0,1-.27-.1l.22.26a1.74,1.74,0,0,1-.72,1.08,2,2,0,0,1-1.71.33s1.16-3.55,1.4-4.3l.37.24a4.94,4.94,0,0,0,3.49,1.1,3.94,3.94,0,0,0,2.91-1.55,2.9,2.9,0,0,0,.5-1.65,3.45,3.45,0,0,0-.05-.6C151.6,267.19,152.53,267,154.24,266.77ZM247,217.31Zm24.09-15.66c1.73.65,2.56,1.27,2.86,2.16a2.41,2.41,0,0,1,.13.75c-.95.23-1.88.5-2.78.79a25.15,25.15,0,0,1-3.43.88,9.86,9.86,0,0,0,.63-3.36,10,10,0,0,0-.13-1.33A5.3,5.3,0,0,1,271.13,201.65Zm3.51,17.8c-.63-.09-1.12-.26-1.17-1.59,0-.05,0-.1,0-.15,0-1.72,1.23-3.54,2.52-5.45a32.25,32.25,0,0,0,1.84-3,4.1,4.1,0,0,1,2,1.42,6.63,6.63,0,0,1,1.39,3.93,4.21,4.21,0,0,1-.19,1.3C280.37,217.8,276.86,219.77,274.64,219.45Z" transform="translate(-4.83 -19.39)"/></g><path id="path626" class="cls-49" d="M177.43,255.51c.31.17-.75,1-.86,1a4.67,4.67,0,0,1-1.29.18,4.81,4.81,0,0,0,5,3c1.84-.31,2.67-2.88,2.9-4.41-1,.39-3.16.93-4.06.1A1.85,1.85,0,0,1,177.43,255.51Z" transform="translate(-4.83 -19.39)"/><path id="path637" class="cls-50" d="M183.63,247.25c.59.53.8,1.32,1.33,1.89s1.2.61,2,.81c-.12-1.33,1.51-2.31,2.45-3a7.42,7.42,0,0,1-3.44.14c-.53-.13-2.21-.56-2.27,0" transform="translate(-4.83 -19.39)"/><g id="g639"><path id="path646" class="cls-51" d="M307.32,153A7.83,7.83,0,0,0,304,156.8a5.92,5.92,0,0,0-2.06,0,4.24,4.24,0,0,0-1.91.92h0a3.22,3.22,0,0,1-1.07-1.07l0,.12a2.15,2.15,0,0,0-1-1.32,2,2,0,0,0-1.59-.21,5,5,0,0,1-1.48.14,4.89,4.89,0,0,0-4.66,2.19,5.47,5.47,0,0,0-.75,3,4.44,4.44,0,0,1-.09.94l-.11.15-1.58.6a8.14,8.14,0,0,0-2.64,2.44,4.66,4.66,0,0,1-.93,1c-1.38,1.07-1.5,1-3.4-.42l-.48-.35a8.68,8.68,0,0,0-6.6-1.63,7.59,7.59,0,0,0-6.4,7.21,5.78,5.78,0,0,1-.41,1.83,11,11,0,0,1-1.94-.34l-2.22-.36a10.88,10.88,0,0,0-6.39,1.93l2,3.43a7.12,7.12,0,0,1,4.25-1.37L264,176c1.57.36,3.52.81,5.1-.27s1.9-3.06,2.11-4.61a6,6,0,0,1,.42-1.89,4.09,4.09,0,0,1,2.71-1.89,4.7,4.7,0,0,1,3.54.92l.46.34c2,1.46,4.45,3.29,8.23.37a9.24,9.24,0,0,0,1.68-1.79,4.11,4.11,0,0,1,1.43-1.38l.6-.23a3.58,3.58,0,0,0,2.44-1.78,5.43,5.43,0,0,0,.75-3,4.77,4.77,0,0,1,.09-1c.25-.37.26-.38,1.3-.38.33,0,.72,0,1.12,0a6.09,6.09,0,0,0,3.3,2.31,3.52,3.52,0,0,0,3.15-.76c.18-.15.18-.15.29-.17h.13a23.14,23.14,0,0,0-.23,3.34,33,33,0,0,0,.65,6.33,7.17,7.17,0,0,0-3.41,2.59,11.45,11.45,0,0,0-3.53,2c-1.23.94-2,1.51-2.83,1.4a6,6,0,0,1-1.74-.81,8.31,8.31,0,0,0-4.93-1.54c-3.34.2-4.16,1.51-5.13,3.65l-.2.46-.86,2.48c-.37,1.36-.51,1.77-1.29,2.2a23.79,23.79,0,0,1-5.29,1.75,37.1,37.1,0,0,0-4.15,1.21l1.45,3.73a34.45,34.45,0,0,1,3.67-1.06,26.47,26.47,0,0,0,6.23-2.12,6.54,6.54,0,0,0,3.24-4.65l.63-1.87.22-.49a5.93,5.93,0,0,1,.57-1.11,3.07,3.07,0,0,1,1.14-.19,4.78,4.78,0,0,1,2.66,1,8.63,8.63,0,0,0,3.23,1.33c2.44.34,4.24-1,5.69-2.1a11.9,11.9,0,0,0,2.83,6.43,10.86,10.86,0,0,1,2.1,3.84c-.49,0-1,0-1.44-.08l-2-.28c-2.34-.38-4.77-.76-7.73.67l-2.15,1.32a5.48,5.48,0,0,1-2.5,1.22l-1.12,0a6.25,6.25,0,0,0-3.42.44c-2.27.89-6.81,4-7.53,7.49a9.37,9.37,0,0,0,1.9,7.14c2.13,3,5.51,5.39,8.41,5.82,6.09.91,11.28-7.57,12.73-10.2l.63-1.66a2.24,2.24,0,0,1,.26-.7,7.18,7.18,0,0,1,2.19-1.1,13,13,0,0,0,2.72-1.29,7,7,0,0,0,3.22-5c6.53-.78,13.85-3.53,17.39-7.77a8.54,8.54,0,0,0,1.84-4.63c.18-1.11.28-1.66.76-2.13l1-.76c1.54-1.19,3.44-2.64,3.44-4.57a2.74,2.74,0,0,0-.06-.56c-.25-1.34-1.33-2.3-3.21-2.84-3.83-1.1-7.38,1.74-10.5,4.25a18.73,18.73,0,0,1-3.91,2.69c-2.35.89-3.94.16-6.55-1.2-.68-.36-1.42-.73-2.19-1.07.19-.07.31-.13.53-.2a2,2,0,0,0,1.36-1.89,1.86,1.86,0,0,0-.07-.52,28.36,28.36,0,0,1-.9-7,17.93,17.93,0,0,1,.31-3.29,5.23,5.23,0,0,0,.69-.31,10,10,0,0,0,3.34-.59,8.76,8.76,0,0,1,1.53-.36.34.34,0,0,1,0,.1,7.45,7.45,0,0,1-.66,1.38,9,9,0,0,0-1.4,4.09,3.89,3.89,0,0,0,.85,2.45c2.62,3.39,11.08.37,12.46-.57a2,2,0,0,0,.57-2.7l-.48-.78c-1.92-3.14-3.31-5.41-7.72-7.35-.13-.06-.25-.08-.38-.13a7.2,7.2,0,0,0-2.27-2.66A5.71,5.71,0,0,0,307.32,153Zm8.59,26.7a20.61,20.61,0,0,0,5-3.31c2.25-1.81,4.79-3.83,6.61-3.56-.41.36-.9.74-1.21,1l-1.33,1.1a7.1,7.1,0,0,0-1.9,4.36,4.89,4.89,0,0,1-1,2.68c-2.75,3.31-8.95,5.61-14.49,6.32,0-.11,0-.22,0-.34a13.56,13.56,0,0,0-2.86-5.63c-1.28-1.75-2.11-3-2.11-4.58a5,5,0,0,1,0-.54c0-.1,0-.16.05-.26a15.93,15.93,0,0,1,3.4,1.39C308.62,179.65,311.77,181.3,315.91,179.73Zm-23.31,13.7,1.59-1c1.83-.89,3.24-.66,5.36-.32l2.18.31c.6.06,1.24.08,1.89.1a3.42,3.42,0,0,1-1.3,1.46,9.94,9.94,0,0,1-1.89.86,9.77,9.77,0,0,0-3.57,2,5.07,5.07,0,0,0-1.31,2.47l-.29.81c-2.39,4.34-6.12,8.54-8.63,8.17-1.82-.27-4.23-2-5.72-4.15a5.61,5.61,0,0,1-1.26-4c.3-1.45,3.11-3.81,5.07-4.58a2.57,2.57,0,0,1,1.53-.19l2,0A9.09,9.09,0,0,0,292.6,193.43Zm22.79-30.49a10.59,10.59,0,0,0,.93-2.16,10.63,10.63,0,0,1,3.37,3.61c-1.83.53-4.3.94-5.2.61A7.83,7.83,0,0,1,315.39,162.94Z" transform="translate(-4.83 -19.39)"/></g><g id="g648"><path id="path659" class="cls-52" d="M251.35,178a3.83,3.83,0,0,0-.35,1.63,6.74,6.74,0,0,0,.71,2.73,5.14,5.14,0,0,0-2.13-.7c-6.58-.68-9.59,5-10.16,10.15,0,0-.09,1.24-.09,1.26l-1,.65-.94.43a10,10,0,0,0-1.81.88,3.77,3.77,0,0,0-.49-1.83c-.75-1.31-2.21-2-4.33-2.13-5.15-.23-8.72,6.12-9.87,10.44a6.43,6.43,0,0,0-.21,1.7,12.93,12.93,0,0,0,.19,2,10,10,0,0,1,.13,1.19c0,.05,0,.1,0,.14a3.72,3.72,0,0,0-1.44,1.75,3.65,3.65,0,0,0-.29,1.4,8.17,8.17,0,0,0-.53-.71c-1.62-1.61-4.2-2.1-7.27-1.38-3.53.83-7.66,3.31-8.73,6.46a5.75,5.75,0,0,0-.33,1.85c0,2.61,2.16,4,3.63,4.84a2,2,0,0,0-.52,1.26v0a2,2,0,0,0,1.08,1.74,5.5,5.5,0,0,1,2.82,4.76,3.92,3.92,0,0,1-.14,1.05c-.36,1.28-1.34,1.84-3,1.7a6.56,6.56,0,0,1-5.27-3.63,7.34,7.34,0,0,1-.42-2.65,8.43,8.43,0,0,0-.92-4.1,4.49,4.49,0,0,0-4.8-2.23c-3,.59-5.76,4.11-6.2,6.73a6.63,6.63,0,0,0,.18,2.56c.21,1,.2,1.23,0,1.38a9.42,9.42,0,0,1-3.41.34,2.33,2.33,0,0,0-2.11,2s-.06.33-.1.59a16.74,16.74,0,0,1-1.85-.43c-2.17-.65-5.14-1.52-8.4,1.33a10.25,10.25,0,0,0-3.23,7.41,7.21,7.21,0,0,0,1.25,4.21,7,7,0,0,0,2.07,1.65,19.77,19.77,0,0,1,1.72,1.18c-.28.08-.64,0-1.59-.43-1.6-.71-4.57-2-7.53,1.52s-3.37,10.73-.59,14.52c2.65,3.62,7.37,4.61,11.74,2.46l0,0a11,11,0,0,0-.89,3.87,4.71,4.71,0,0,0,.49,2.21,3.76,3.76,0,0,0,2.71,2c3,.58,4.89-2.7,6.11-4.87l.63-1.05c2.89-3.94,5.88-5,9.68-3.28,3,1.32,10.35.84,13.38-2.22a5,5,0,0,0,1.5-3.56,5.67,5.67,0,0,0-.19-1.39,4,4,0,0,0,2.2-.27,4.33,4.33,0,0,0,2.21-2.56,4.25,4.25,0,0,0,2.18-1.05,5,5,0,0,0,1.22-3.77c0-.33,0-.65,0-1l0-.79v-.25a41.28,41.28,0,0,1,2.25-12.3,5.62,5.62,0,0,1,2.13-2.87,11,11,0,0,0,1.06-.35,1.88,1.88,0,0,1,1.19.59,2.9,2.9,0,0,1,1,2.23c0,1.72-1.18,4-3.59,7a15,15,0,0,0-3,8.67,8.75,8.75,0,0,0,1.25,4.7c1.79,2.81,8.22,5.15,11.1,5a8.34,8.34,0,0,0,6.66-4.5,6,6,0,0,0,.64-2.67c0-.14-.06-.27-.07-.4a6.06,6.06,0,0,0,7-3.09c3.51-6.32-2.2-11.85-5.61-15.16l-.65-.63a14.15,14.15,0,0,1-3.53-8.5,3.88,3.88,0,0,1,1-2.89c.35-.35.65-.65,2.11.22,1.24.74,1.24.77,1.14,2.14l-.06,1.5c0,2.25,1.3,8.91,5.25,10.47a9.57,9.57,0,0,0,7.87-.84,8.08,8.08,0,0,0,4.26-5.39,8.65,8.65,0,0,0,.15-1.56,6,6,0,0,0-.23-1.62,5.88,5.88,0,0,0,3.67,3.74c3.48,1.38,8.84-.24,11.38-1.77a12.22,12.22,0,0,0,5.06-9.24,6.67,6.67,0,0,0-.12-1.27,5,5,0,0,0-1.49-2.69c.36-.15.73-.24,1.09-.43a11.43,11.43,0,0,0,5.63-7,11.65,11.65,0,0,0,.44-3.13,10.93,10.93,0,0,0-1.54-5.6c-3.54-6-8.58-5.67-13.46-5.39l-.73,0c-1.54.09-4.37-.58-5.51-1.85a1.29,1.29,0,0,1-.37-1.17c.11-.62.36-.86,2.76-1.1,1.95-.19,4.89-.47,5.54-3.48a3.85,3.85,0,0,0-.89-3.52c-1.42-1.53-3.95-1.8-5.68-1.56a5.79,5.79,0,0,0-1.57.48,4.19,4.19,0,0,1,2.83-1.6c.27-.06.64-.06.8-.32s-.19-1.27-.37-1.59c-.54-.93-2.09-2.14-3.21-1.67a9.6,9.6,0,0,0-2.28,1.73,6.62,6.62,0,0,0-1.9,2.71,3.89,3.89,0,0,0,.19,3.21c1.59,3,4.31,1.74,5.2,1.33a4.47,4.47,0,0,1,.85-.32,3.53,3.53,0,0,1,2.11.3,8.27,8.27,0,0,1-2,.32c-2.12.2-5.66.55-6.32,4.4a6.19,6.19,0,0,0-.08.95,5.3,5.3,0,0,0,1.4,3.56c2.27,2.54,6.55,3.3,8.72,3.18l.74,0c4.92-.28,7.59-.26,9.79,3.45a7.06,7.06,0,0,1,.69,5.59,7.4,7.4,0,0,1-3.64,4.55c-1.89,1-3.83,1-5.06.05s-1.47-2.35-1-4.14a2,2,0,0,0-1.86-2.45l-1.85-.08c-4.22-.15-7.28-.27-11.26-2s-6.58-1.45-9.88,1.26c-1.57,1.29-6.67,5.8-6.73,9.86v.13a5.87,5.87,0,0,0,1,3.48,4.68,4.68,0,0,0-4.33,1.38,7.84,7.84,0,0,0-2.11,5.74,18.08,18.08,0,0,0,4.73,11.34l.66.65c3.79,3.66,6.77,7,4.9,10.34-.45.8-1.56,1.65-2.48,1.15-.57-.3-.67-.66-.67-2.36a8.31,8.31,0,0,0-.45-3.28l-.16-.42a4.17,4.17,0,0,0-2.15-2.68,4.28,4.28,0,0,0-3.41.39,7.33,7.33,0,0,0-3.42,4.85c-.47,3.57,1.95,4.87,3.4,5.64a4.58,4.58,0,0,1,1.59,1.13,1.75,1.75,0,0,1,.1,1.93,4.33,4.33,0,0,1-3.31,2.26c-1.87.11-6.69-1.91-7.47-3.14a4.82,4.82,0,0,1-.62-2.57,10.63,10.63,0,0,1,2.11-6.15c1.32-1.66,4.51-5.66,4.51-9.65a6.66,6.66,0,0,0-2.31-5.06c-.15-.14-.32-.19-.48-.32a6.87,6.87,0,0,0,1.11-3.62c0-.07,0-.14,0-.2,0-4.18-3.79-4.83-5.63-5.15a10.31,10.31,0,0,1-1.24-.28,9,9,0,0,1,1.37-1.5,8.24,8.24,0,0,0,2.75-3.9,6.08,6.08,0,0,0,.15-1.28,5,5,0,0,0-1.9-3.76l-.11-.11a3.37,3.37,0,0,0,1.46-2.27,6,6,0,0,0,.09-1,11.18,11.18,0,0,0-.18-1.79,10.41,10.41,0,0,1-.14-1.38,2.49,2.49,0,0,1,.08-.68c.83-3.12,3.38-7.58,5.82-7.47a2.42,2.42,0,0,1,1,.18,12.18,12.18,0,0,1-1.41,3.41l-.74,1.48a21.76,21.76,0,0,0-1.74,7.48,6.25,6.25,0,0,0,1,3.71,4.26,4.26,0,0,0,4.2,1.61c4.33-.55,5.37-8.36,5.38-8.44a11,11,0,0,0-.4-3.55,8.72,8.72,0,0,1-.34-2.42,4.29,4.29,0,0,1,1.32-.67l1.53-.72c2.11-1.27,2.84-1.82,2.94-3.95l.07-.94c.18-1.67,1.16-7.09,5.78-6.62.4,0,.63.22,1.17.69a4.41,4.41,0,0,0,3.64,1.37,3.17,3.17,0,0,0,2.6-1.6,2.79,2.79,0,0,0,.32-1.32,7.06,7.06,0,0,0-1.07-3.09c-.39-.74-.84-1.41-.32-2.19a5.13,5.13,0,0,1,1.67-1.36c1-.61,2.69-.75,1.44-2.1-.56-.61-1.53-1.5-2.43-1.41a6.08,6.08,0,0,0-3,1.5A5.66,5.66,0,0,0,251.35,178Zm-66.1,55.7h0Zm6.56-1.61A4.28,4.28,0,0,0,193,229a9.48,9.48,0,0,0-.24-1.87,6.27,6.27,0,0,1-.16-1,.31.31,0,0,1,0-.1c.19-1.14,1.88-3.23,3-3.47.16,0,.32-.06.63.44a6.9,6.9,0,0,1,.31,2.19,10.07,10.07,0,0,0,.9,4.32,10.5,10.5,0,0,0,8.47,5.73c3.54.29,6.28-1.48,7.16-4.6,0-.11,0-.23.05-.35a9.28,9.28,0,0,0,4.1,2.16,10.32,10.32,0,0,0-.73,1.6,45.12,45.12,0,0,0-2.45,13.57v.3l0,.86c0,.26,0,.57,0,.87a2.83,2.83,0,0,1-.1,1,5.48,5.48,0,0,1-.91.06,2,2,0,0,0-2,1.93c0,.55-.19.76-.23.77s-.25,0-.58-.27c-.77-.62-.84-1.63-.8-3.62a10.78,10.78,0,0,0-.47-4.17,6.85,6.85,0,0,0-6.34-4.42c-3.19-.13-6.35,1.53-7.5,3.94a5.13,5.13,0,0,0,1,5.78,9.67,9.67,0,0,0,2.29,1.83l1,.67a8.58,8.58,0,0,1,1.09,1.32,7.85,7.85,0,0,0,1.66,1.87,7.11,7.11,0,0,0,2.58,1c.81.18,1.4.33,1.52.58.4.9.16,1.25-.14,1.57-1.78,1.8-7.31,2.08-8.93,1.37-3.85-1.7-9.5-2.28-14.52,4.58l-.88,1.44a13.39,13.39,0,0,1-1.84,2.69,8.47,8.47,0,0,1,.85-3.06,15.15,15.15,0,0,1,4.25-5.14,32.65,32.65,0,0,0,2.75-2.67,5,5,0,0,0,1.46-3.27A3.44,3.44,0,0,0,189,254a4.25,4.25,0,0,0-4.1-2.2,6.37,6.37,0,0,0-5.8,3.85,8.51,8.51,0,0,0-.57,2.44,3.77,3.77,0,0,1-.39,1.53,7.68,7.68,0,0,1-3,2.47c-2.07,1-4.93,1.23-6.75-1.24-1.69-2.3-1.46-7.32.44-9.59,1-1.23,1.34-1.09,2.84-.42,1.27.56,3.18,1.4,5.3.24,1.86-1,2.29-2.31,2.31-3.21a.31.31,0,0,0,0-.1c0-2.21-2.21-3.6-4-4.72l-1-.66a3.32,3.32,0,0,1-.48-1.8,6.41,6.41,0,0,1,1.87-4.43c1.53-1.34,2.53-1.12,4.63-.5a11,11,0,0,0,5,.61,2.43,2.43,0,0,0,1.7-2s.07-.38.11-.63C188.65,233.59,190.71,233.26,191.81,232.08Zm-9,25.11a2.24,2.24,0,0,1,1.43-1.27,2.58,2.58,0,0,1,.79-.13.93.93,0,0,1-.16.22,25.05,25.05,0,0,1-2.28,2.2A4,4,0,0,1,182.78,257.19Zm21.7-4.13s-.72-.93-.72-.93a10.06,10.06,0,0,0-1.87-2.14l-1.28-.88a6.94,6.94,0,0,1-1.44-1.09,1.73,1.73,0,0,1-.53-1.07.89.89,0,0,1,.09-.36c.4-.84,2-1.73,3.74-1.66a2.83,2.83,0,0,1,2.77,1.85,5.59,5.59,0,0,1,.21,1.81c0,.28,0,.56,0,.85s0,.58,0,.89a10.41,10.41,0,0,0,.4,3.12l-.18,0a5.38,5.38,0,0,1-1.17-.35Zm37.15-36.93c-.15-.09-.31-.56-.3-1.39,0-1.43,2.28-4.36,5.27-6.82,2.13-1.74,3.09-1.86,5.71-.69,4.58,2,8.09,2.21,12.44,2.37a7.32,7.32,0,0,0,2.76,5.85,6.25,6.25,0,0,0,.63.33l-.56.31a6.5,6.5,0,0,1-2,.89,2.22,2.22,0,0,1-1,0,5.18,5.18,0,0,1-.55-.74l-.82-1.17c-4.78-6.1-9.49-4.2-14.3-1.52C243.54,216.6,242,216.37,241.63,216.13Zm-7,28c0,.06.07.17.07.17l.19.47a4.85,4.85,0,0,1,.15,1.55v.4c0,.3,0,.63,0,1l-.33-.18c-1.13-.61-1.37-.78-1.37-1.2a3.22,3.22,0,0,1,0-.39,4.13,4.13,0,0,1,1.18-1.77Zm-23.27-23.65h0a1.79,1.79,0,0,0-.8-1.61l-2.22-1.44c-1.53-.87-1.91-1.19-1.91-1.59a1.61,1.61,0,0,1,.12-.51c.43-1.27,3-3.19,5.86-3.85,1.6-.38,3-.26,3.53.32.43.42.48.63.48.64a6.24,6.24,0,0,1-1.29,1.38,8,8,0,0,0-2,2.29,4.34,4.34,0,0,0-.39,1.95c0,.11,0,.21,0,.31l0,.7a10.34,10.34,0,0,1-.8,1.83,14.42,14.42,0,0,0-.76,1.67c-.2-.24-.36-.51-.58-.73A1.8,1.8,0,0,0,211.31,220.49Zm3.63,5.52a4,4,0,0,1-.21-1.17,4.41,4.41,0,0,1,.73-2.1,15.23,15.23,0,0,0,1.07-2.51l.2-1.93v-.52a10.14,10.14,0,0,1,1-1c1.14-1,2.55-2.32,2.6-4.27v-.09c0-.07-.05-.14-.05-.21.19.21.37.38.51.51.47.44.62.58.62.82a1.41,1.41,0,0,1-.06.36,5.86,5.86,0,0,1-1.59,1.91c-1.23,1.16-2.75,2.59-2.75,4.66a2.17,2.17,0,0,0,0,.26c.17,2.93,3.1,3.44,4.67,3.71,2.13.37,2.31.57,2.31,1.13a.92.92,0,0,1,0,.16,2.73,2.73,0,0,1-1.66,2.53c-.09,0-.18,0-.27,0a4.78,4.78,0,0,0-.76.35c-.18,0-.36.09-.51.11C218.51,229.08,215.6,228.12,214.94,226Zm35.93-8.91c4.8-2.68,6.59-2.94,9.25.47l.63.9c1.09,1.64,2.25,3,5.48,2.46a9.46,9.46,0,0,0,3.36-1.38c1.05-.61,1.73-1,2.38-.88,1.22.18,1.32.7,1.39,1,.37,1.87-1.52,5.35-3.09,6.3-2.07,1.25-6,2.19-7.84,1.47-1.21-.48-1.32-1-1.66-2.43a11.87,11.87,0,0,0-1-2.9c-1.6-3.09-6.48-4.21-9.85-3.27a5.3,5.3,0,0,0-4.26,5.51,2,2,0,0,0,1.74,1.86l.55.07c1.88.24,4.45.57,5.24,1.65.11.16.46.63.22,1.95a4.26,4.26,0,0,1-2.27,2.62,5.7,5.7,0,0,1-4.47.61c-1.32-.52-2.7-4.38-2.72-6.78l.05-1.18c0-.33.05-.65.05-1a4.81,4.81,0,0,0-1.86-3.95C244.79,220.24,247.85,218.78,250.87,217.1Zm.15,5.6c2-.56,4.7.25,5.23,1.26a8.16,8.16,0,0,1,.62,2c.08.32.16.67.27,1a5.51,5.51,0,0,0-.69-1.37c-1.28-1.75-3.37-2.46-5.46-2.87ZM231.92,209a1.89,1.89,0,0,1-.25-1.17,16.72,16.72,0,0,1,1.4-6s.61-1.2.64-1.27c.08.43.17.85.26,1.27a11.91,11.91,0,0,1,.35,2.07.66.66,0,0,1,0,.15c-.22,1.89-1.33,4.63-2,5A.76.76,0,0,1,231.92,209Z" transform="translate(-4.83 -19.39)"/></g><g id="g661"><path id="path672" class="cls-53" d="M265.42,188.32c-2.33,1.09-4.35,1.41-4.92-.13a3,3,0,0,0-1.86-1.83,5,5,0,0,0-4,.47l-.55.23-.46.16a9,9,0,0,0-3.81,2.15,10.54,10.54,0,0,0-2.44,6.82,7.31,7.31,0,0,0,1,3.88l1.3,1.62a6.46,6.46,0,0,1,1.17,1.57s-.1.1-.29.27c-.43.36-.58.48-2.28-1.1l-1.58-1.31L245,200.3l-.89-.44a4.11,4.11,0,0,1-.92-1c-1-1.38-2.15-2.1-4.74-1.71-5.41.81-12.69,5.21-12.69,11.44,0,.14,0,.28,0,.42l.26,2.11a22.42,22.42,0,0,1,.33,3.26,3.7,3.7,0,0,1,0,.37,5.86,5.86,0,0,0-4.09-.84,9.27,9.27,0,0,0-6.56,4.67l-.12.22c-.64,1.3-1.72,3.47-.68,5.54a8.27,8.27,0,0,0,2.73,2.81c1.76,1.28,1.77,1.46,1.32,2.45a1.39,1.39,0,0,1-.89.75,3.8,3.8,0,0,1-2.71-.16,3.54,3.54,0,0,1-1.7-1.92,10.86,10.86,0,0,1,0-1.39c.07-1.52.15-3.24-1-4.36-2.06-2-4.83-.68-6.67.21a8.44,8.44,0,0,1-1.84.75h-1.59a12,12,0,0,0-4.22.43c-3.08.93-8.26,2.5-9.54,7.5a3.38,3.38,0,0,0-1.18-.45,3.18,3.18,0,0,0-3,.89,3.5,3.5,0,0,0-.84,2.44,8.37,8.37,0,0,0,.32,2.1l.45,1.28,0,.08-.09.17a5.24,5.24,0,0,1-1.89,1.68c-1.47,1-3.48,2.28-3.79,5.45a5.33,5.33,0,0,0,0,.56,6.76,6.76,0,0,0,1.36,3.85,3.92,3.92,0,0,0-1.42,1.15l-.16.19-.21.07-.09-.07a6.8,6.8,0,0,0-2.39-1.46,4.35,4.35,0,0,0-4.09.36,4.47,4.47,0,0,0-1.76,3.72c-.08,3.26,2.3,6.53,4.56,8.5,2.84,2.49,6.32,2.71,9.06.59a9.6,9.6,0,0,0,3.51-7.43,8.73,8.73,0,0,0-.11-1,8.66,8.66,0,0,0,1.9.11c2.47-.23,10.07-1.88,12.56-6.38a5.78,5.78,0,0,0,.77-2.85,6.44,6.44,0,0,0-.74-2.91,7.28,7.28,0,0,0-3.09-3,6.1,6.1,0,0,1-1.05-.74c.28-.3.63-.66,1.17-1.17l.26-.25c2.48-2.45,5.31-4.11,6.22-4a.68.68,0,0,1,0,.15,12.54,12.54,0,0,1-.3,2,12,12,0,0,0-.35,2.49,3.7,3.7,0,0,0,0,.47c.32,3.27,2,3.94,3.69,4.34l1.23.39c.72.32,1,.88,1.57,2a9.18,9.18,0,0,0,2.59,3.56c4.26,3.36,11.11,2.07,13.11,1.59l.5-.11c1.34-.31,3.47-.81,4.44-2.3a3.53,3.53,0,0,0,1.69,1.4c1.92.77,5.6-.6,6.71-1.58a3.49,3.49,0,0,0,1.54-2.69,4.34,4.34,0,0,0-.12-1l-.12-.77,0-.65a7.31,7.31,0,0,0-1.93-5.22l-1.82-1.89a9.39,9.39,0,0,1-2.6-3.33,6.63,6.63,0,0,1-.27-2.09c0-2.68.91-6.31,2.13-7.77l1-1.19-.92-1.27a11.44,11.44,0,0,1-2.31-6.17,4.9,4.9,0,0,1,.08-.94,4.5,4.5,0,0,1,2-3,8.82,8.82,0,0,1,1.22-.64c-.06.32-.3,1.54-.3,1.54v.19a5.35,5.35,0,0,0,1.8,4.36c2.35,1.91,5.89,1.11,8.74.47l.41-.1a51.68,51.68,0,0,0,7.4-2.4l3.09-1.14a3.82,3.82,0,0,1,1.67-.34,2.25,2.25,0,0,1,.16,1,8.43,8.43,0,0,1-.38,1.67,11.28,11.28,0,0,0-.57,3.11,3.83,3.83,0,0,0,2.19,3.67,5.27,5.27,0,0,0,4.5.05c3.35-1.34,6.54-5.41,7.36-7.75a10.38,10.38,0,0,0,.61-3.45,8,8,0,0,0-.61-3.14,7.32,7.32,0,0,0-1.16-1.84l-.14-.19c.54-.57,1.88-.46,3.71-.22a11.72,11.72,0,0,0,4.17.07c5.49-1.3,13.11-8.26,13.87-13.92.88-6.51-2.87-14,1.75-19.68a8.06,8.06,0,0,1,10.5-1.91c3.07,1.83,5.71,6,9.74,5.6,2.14-.2,8.55-3.28,9.35-5.28,1.87-4.65-4.38-2.16-6.35-1.16-3.07,1.55-5.09,2.54-7.76-.23s-4.57-4.27-8.91-3.94c-8.94.69-13.54,10.13-13,18.17.21,3.16,1.12,6,.09,9.08-1.66,5-7.54,10-12.92,9.24-2.3-.31-5.45-.72-7.41,1.71a3.7,3.7,0,0,0,.18,5.16,4.3,4.3,0,0,1,.61.89,5.44,5.44,0,0,1-.1,3.72c-.46,1.33-2.92,4.5-5.06,5.36a1.48,1.48,0,0,1-1.2.09,6.51,6.51,0,0,1,.4-2.1,9.71,9.71,0,0,0,.54-2.94,4.9,4.9,0,0,0-1.87-4.16c-1.68-1.16-3.81-.62-5.27-.12l-3.2,1.19a49.7,49.7,0,0,1-6.85,2.23l-.42.1c-1.57.35-4.49,1-5.33.33-.31-.25-.34-1-.33-1.37,0,0,.18-.7.18-.7.33-1.1.94-3.17-.73-4.61-2.26-2-6.47.93-6.65,1.05a8.55,8.55,0,0,0-3.66,5.66,10,10,0,0,0-.12,1.56,14.52,14.52,0,0,0,2.34,7.4,19.35,19.35,0,0,0-2.25,9,10.89,10.89,0,0,0,.48,3.45,12.65,12.65,0,0,0,3.6,4.92l1.54,1.58a3.51,3.51,0,0,1,1,2.86l0,.7.16,1.05a1,1,0,0,0-.11.11,7.47,7.47,0,0,1-2.47.8,1.43,1.43,0,0,1,0-.23c0-.36.05-.85.08-1.19s.09-.91.09-1.45c0-1.59-.42-3.48-2.71-4.21a3.49,3.49,0,0,0-3,.38,6.15,6.15,0,0,0-2.53,4.09,6.92,6.92,0,0,0-.07.87,2.9,2.9,0,0,0,.84,2.17c-.42.13-.93.25-1.34.35l-.52.12c-3.06.73-7.44.94-9.71-.84a5.75,5.75,0,0,1-1.47-2.16,7.22,7.22,0,0,0-3.5-3.93l-2-.63-.52-.14a3.68,3.68,0,0,1-.13-.7v-.1a10.84,10.84,0,0,1,.27-1.66,14.11,14.11,0,0,0,.35-2.73,3.76,3.76,0,0,0-2.8-4c-3.72-1.06-8.76,3.55-10.22,5l-.2.19a11.84,11.84,0,0,0-2.75,3.36c-.09-.48-.18-1-.27-1.41l-.15-.8a9.91,9.91,0,0,1-.14-1.56c0-3,1.89-4.54,7-6.08a8.13,8.13,0,0,1,2.94-.26h1.91a9.33,9.33,0,0,0,3.4-1.15,12.25,12.25,0,0,1,1.92-.81c0,.07,0,.11,0,.19,0,.33,0,.72,0,1s0,.74,0,1.1a5.27,5.27,0,0,0,.25,1.8,7.49,7.49,0,0,0,3.74,4.19,7.76,7.76,0,0,0,5.81.31,5.36,5.36,0,0,0,3.16-2.86c1.84-4.07-1.05-6.19-2.6-7.33a5.38,5.38,0,0,1-1.52-1.38c-.12-.32.47-1.5.69-2l.12-.24a5.3,5.3,0,0,1,3.55-2.48,2,2,0,0,1,1,.09l-.88,2.9,3.24-.5c5.19-1.07,4.28-7,3.84-9.84l-.22-1.71c-.2-3.77,5.45-7.13,9.28-7.7a3.39,3.39,0,0,1,.77-.06l.18.22a7.87,7.87,0,0,0,1.73,1.76l1.77.94.91.44,1.09.93c1.39,1.29,4.29,4,7.57,1.21a4.38,4.38,0,0,0,1.72-3.06c0-.09,0-.18,0-.27,0-1.77-1.22-3.13-2.2-4.23l-.9-1.09a3.39,3.39,0,0,1-.39-1.75,6.51,6.51,0,0,1,1.38-4.09,5.84,5.84,0,0,1,2.21-1.1l.5-.18.83-.35a6.5,6.5,0,0,1,.8-.3,3,3,0,0,0,.84,1.07c5.76,4.83,16.58-2.31,19.86-7.24,2.29-3.44.76-8.7-1-12.05,1.82,3.53,8.18,2.91,8.94-.87.7-3.49,2.27-4.74,5.92-5.82s7.16-1.47,10.1-4.58c2.15-2.28,4.34-6.58-.35-7.29-1.42,2.77-1.48,5-4.75,6.63-2.91,1.49-6.24,1.3-9.26,2.41-2.7,1-3.61,2.18-4.73,4.57-.48,1,.83,1.65-1,2.28-.86.3-2.19-.85-3-1-5.5-1.28-7.17,3.41-5.08,7.75,1,2.14,2.08,3.23.83,5.67C273.86,182.75,269.23,186.55,265.42,188.32Zm-70.07,49.06a1.48,1.48,0,0,1,.9.4Zm-4.12,8.94c1.8-.71,2.33-2.58,2.33-4.67,0-.35-.07-.7-.1-1.05a2.4,2.4,0,0,0,1.24.65,10.18,10.18,0,0,0,1.71,1.27,3.54,3.54,0,0,1,1.58,1.37,2.5,2.5,0,0,1,.31,1.11,1.81,1.81,0,0,1-.26.91c-1.26,2.27-6.34,4.05-9.43,4.33a10.55,10.55,0,0,1-3.05-.49l-.18,0c-.3-.41-.62-.8-.93-1.18-1-1.23-1.64-2.07-1.64-2.9a.76.76,0,0,1,0-.15c.12-1.22.66-1.62,2-2.49a14.05,14.05,0,0,0,1.8-1.35c.2,1.83.64,3.61,2,4.46A2.86,2.86,0,0,0,191.23,246.32Zm-14,12.63c-1.59-1.4-3.19-3.67-3.19-5.34v-.06a1.6,1.6,0,0,1,.07-.48,1.28,1.28,0,0,1,.48.1,2.74,2.74,0,0,1,1.05.67c1,.91,2.33,1.77,4.81.53l1.37-1.17,0,0a5.58,5.58,0,0,1,.93.09,4.84,4.84,0,0,1,.39,1.85,5.6,5.6,0,0,1-2,4.28C180,260.33,178.66,260.19,177.24,259ZM231,242.5l0,.49-.12-.08A2.86,2.86,0,0,1,231,242.5Z" transform="translate(-4.83 -19.39)"/></g><path id="path679" class="cls-54" d="M169.43,258.69a5.32,5.32,0,0,1,1.57-.36c.86,0,1.25,1.19,1.75,1.9a9.75,9.75,0,0,0,2,1.89,6.81,6.81,0,0,0,2.65,1.71,3.16,3.16,0,0,0,1.56-.07c.69-.12,1.39,0,2.07-.15a7.35,7.35,0,0,0,2.18-.86,7.17,7.17,0,0,0,2.06-1.85c1-1.36,1-3,1.62-4.56a1.66,1.66,0,0,0,2.15,0c.51-.48.36-1.51.26-2.17a6,6,0,0,0,1.74-.25c.43-.13.78-.42,1.25-.27s.69.46,1.1.59a5.1,5.1,0,0,0,3.34.06c1.47-.55-.27-1.61-1.16-1.81.77-.5,1.45-1.17,2.28-.73.6.32,1,.91,1.52,1.25,1.17.76,6.11,0,3.93-1.62.23-.46-.49-.81-.77-1.12a3.75,3.75,0,0,0,2.58,0c0,.29-.17.63,0,.91.28.45,1.62.6,2.06.65s3.9-.08,2.79-1.14c.74-.07,1.51,0,2.24-.1a5.45,5.45,0,0,1,1.55-.24c-.1,0,.23.44.24.46a2.06,2.06,0,0,0,.81.37,4.85,4.85,0,0,0,2.33.13c.68-.15,1.08-.85,1.59-.91s.87.21,1.31.27a14.78,14.78,0,0,0,10.17-2.39,4.77,4.77,0,0,0,1.58-4.16c-.06.44.14.84.08,1.28.17-.4,1.24-.31,1.66-.45a1.88,1.88,0,0,0,1.27-1.1,9.19,9.19,0,0,0,.07-3.35,3.29,3.29,0,0,0-2-2.56c-1.28-.47-2.57.44-3.81.3a4.4,4.4,0,0,0,.59-2.39c.65,0,2.23-.13,2.43-.9a31.84,31.84,0,0,0,3.14,3.23,7,7,0,0,1,1.32,1.83c.5,1.14.51,1.05,1.61,1.52.81.34,1.84,1.45,2.68.49.69-.79-.12-2.46-.39-3.22.66.58,4.29.84,3.83-.29-.18-.46-.77-.54-1.07-.88s-.35-.79-.63-1.12a24.76,24.76,0,0,0-2.13-1.66c.38-.45,1.13-.52,1.59-1,.25,1.15,2.24,2.67,3.27,3.09a6.17,6.17,0,0,0,3.42-.21c1.23-.33,4.66-2.6,2.77-4.21-.68-.58-1.87.21-2.6.38a2.15,2.15,0,0,1-2.09-.44,4.41,4.41,0,0,1-1.74-2.15,3.94,3.94,0,0,0,2.06-1.52c.34-.42,1.15-1.36.88-2a5.13,5.13,0,0,1,3.47.25c.85.37,2.56,1.62,1.75,2.74-.14.2-.89.3-.57.81a5.71,5.71,0,0,0,2,1.08,2.35,2.35,0,0,0,2.29-1c.51-.85-.05-2.69.53-3.2.55,1.83,2,2.09,3.75,1.24.77-.37,1.39-1.13.84-2-.37-.61-1.43-.53-1.32-1.5.22,0,.34-.16.58-.16-.08-.29.06-.45-.18-.74a6.57,6.57,0,0,0,2.32-1,19,19,0,0,0,1.73-1.6c.6.58.57-.36.41-.75a8.22,8.22,0,0,0,2.74-.88c.26.32.51.65.78,1a6.71,6.71,0,0,0,1.81-.62c.26-.16.6-.31.72-.63s-.19-.88-.13-1c.61-.81,3.83.7,5-.49.89-.92-.23-1.37-.74-2.2a7.7,7.7,0,0,0,3.23-1.33c.51-.36,1.72-1.3,1.75,0l.33,0c0,1-1.07,1.45-.32,2.33s3.13,1.15,4.19.76c2.92-1.09.58-3.39,1.64-5.16s4.2-1.08,4.53-3.82c.42-3.45-1.95-1.44-3.63-1.38.4-1.37.47-3.21-1.35-3.69a4.41,4.41,0,0,0,.1-3c1.46-1,4.74-3.25,3.55-5.59s-3.44-.15-3.75,1.64a2.62,2.62,0,0,1-1.56-1c1.94-2.11.71-7-2.38-4a7.84,7.84,0,0,0-2.62-2.37c.09-1.82,3.11-2.74,3.56-4.33s-.79-5.76-2.61-4.05a2.11,2.11,0,0,0-1.94-1.61,11.84,11.84,0,0,0-2-6.86,2.69,2.69,0,0,0-.7-4.09c-1.64-.77-2.41.77-3.26,1.87-.64-1.21-2.64-4.92-4.4-3.22,1.19-4.31,7.6-4.7,11.14-4.1.66.11.87.49,1.5.29s1.13-.88,1.67-1.17A23.79,23.79,0,0,1,286,161c1.07-.34,2.58-.41,3.12-1.29s.06-2.07.83-3c1-1.2,2.69-1.57,4.21-1.84a8.87,8.87,0,0,1,4.17.21c1.12.34,1.81.52,2.52-.46.92-1.27-.19-2.89.59-4.07,1.31-2,4.52-.3,5.85.81.91.77.36,1.55,1.66,2.29s4,.3,5.47.7c8.39,2.26,14.38,11.07,16.84,19,.41,1.32,2.2,8.93,1.17,10-1.28,1.36-4.63-.83-6.23.35-.32.23-.61,1.11-.87,1.46-1.69,2.28-4.89,4.17-7.48,5.26a45.94,45.94,0,0,1-4.51,1.27c.91,2.1-.65,5.44-1.3,7.47-.94,3-4.63,6.94-7.75,7.65-1.53.35-3.54-.58-4.92.51-.36.28-.45.92-.88,1.31a8.72,8.72,0,0,1-1.16.7c-2,1.23-1.86,2.77-2.67,4.83-1.77,4.52-6.27,7.6-10.84,8.77s-7.94,6.89-11.57,10a18,18,0,0,1-4,2.27c-1.28.65-2.11,1.91-3.47,2.48a6.53,6.53,0,0,1-3.64.55c-.88-.12-2.16-.9-3-.75-1.12.2-2.25,2-3,2.84a25.23,25.23,0,0,0-3.1,4.69c-1.66,3-3.94,7.24-6.92,9.13-2.77,1.76-5,4.19-7.82,5.92a14.35,14.35,0,0,1-8.66,2.32,42.82,42.82,0,0,1-5.32-.35,3.63,3.63,0,0,1-2.35-1.33c-.13-.18-.88-1.85-.72-1.95a12.75,12.75,0,0,1-5.3,1.9c-4.17.52-7.42,4.24-10.36,6.88-2.36,2.12-6.2,5.13-9.64,4.33-1-.24-1.73-1.5-2.67-1.67-1.56-.29-2.34,1.35-3.24,2.22a13.87,13.87,0,0,1-4.09,2.39c-3.33,1.45-6.05,1.13-9.35,0a4.34,4.34,0,0,1-2.35-1.46c-.78-1.19-.42-3.58-2.33-3.94-1.69-.32-3.05,1.93-4.93,1.35-1.32-.4-1.56-1.2-3.1-1a9.45,9.45,0,0,0-4.69,1.52c-1.36,1.09-2.27,2.69-3.58,3.84a13.2,13.2,0,0,1-9.42,3.1,5.91,5.91,0,0,1-3.47-1.42,6.1,6.1,0,0,1-1.65-1.67c-.36-.63-.17-1.63-.47-2.13.46.77,1.5.58,2.14.18-.07,0,1.92-1.84,1.85-1.16a10.43,10.43,0,0,1,.12-1.48c1.54.74,2.86,1.77,4.67,1a4.28,4.28,0,0,0,2.83-3.46,28.27,28.27,0,0,1,3.56-1.34c-.41.48-.46,1,.25,1.22a6,6,0,0,0,4.51-1.05c.47-.36,1.85-1.09,1.9-1.76s-.8-.51-1.31-.5a7,7,0,0,0,2.48-1.68c.3-.27.64-.73,1-.82s.27-.11.54.33a6.06,6.06,0,0,0,.86,1.25c1.22,1.22,3.37,2.66,5.16,2.65,1.63,0,4.69-3.18,1.92-3.48a5.3,5.3,0,0,1-3.77-2.51c-.19-.26-.38-.56-.55-.83A11.9,11.9,0,0,1,169.43,258.69Z" transform="translate(-4.83 -19.39)"/><g id="g681"><path id="path683" class="cls-55" d="M238.72,146.27l88.08-43.06s50.34,7.21,58,39.94c0,0,25.7,11.16,24.64,47.78,0,0-88.71,51.51-88.13,51.51,12.16-20.65,20.92-100.69-55.53-95.23C265.8,147.21,260,140.7,238.72,146.27Z" transform="translate(-4.83 -19.39)"/><path id="path685" class="cls-56" d="M326.79,100.9c-.05-.15-.34-.06-.44-.06-1.41,0-3.17,1.09-4.43,1.62-2.8,1.18-5.55,2.46-8.3,3.75-8,3.72-15.83,7.62-23.68,11.57-8.59,4.31-39.12,18.67-47.61,23.17-3.59,1.9,2.46,0,.9.9-1.11.64-.16,1.26,1.4,1.16.65,0,1.45-.41,2.12-.53a29.69,29.69,0,0,1,5.57-.44A26.25,26.25,0,0,1,265.94,146c.39-.53,17.35-9.93,21.52-11.26,8.39-2.68,38.16,4.92,50.29,17.05C367.5,178,359.25,211,357.57,223l53-31.83c0-34.12-20.72-46.47-25.76-48C381.65,113.55,329.42,99.31,326.79,100.9Z" transform="translate(-4.83 -19.39)"/><path id="path687" class="cls-57" d="M287.5,131.88c-.5.5-21,12.12-21,12.12-8-5.75-23.27-2.15-23.27-2.15L89.8,215h0C63,250.57,79.15,311.12,79.33,311.74l.07.23.16.19c19.12,22.31,43.55,27.28,60.68,27.51a100.82,100.82,0,0,0,32.88-4.88l.1,0L358.5,222S378.5,139.75,287.5,131.88Zm-44.39,11.84c8.49-2.57,18.12,0,23.3,2,.49.49,21.47-11.48,21.47-11.48,84.37,5,68.88,85.32,69,85.24,4.07.65-184.48,113.07-184.68,113.2a101,101,0,0,1-32.05,4.7c-16.59-.24-39.22-5.05-57.74-26.54a203.78,203.78,0,0,1-4.52-42.7c0-17.62,2.19-35.34,13.37-50.34Z" transform="translate(-4.83 -19.39)"/><path id="path689" class="cls-58" d="M282.25,106.32l.47.69,7.22,10.77S379,117.5,379,210.5l10.75,9.62s13.38-48.48-20.44-82.3S300,104.64,282.25,106.32Z" transform="translate(-4.83 -19.39)"/><path id="path710" class="cls-59" d="M76.25,198.12,300.54,90.74c5.21-2.49,11.77-3.27,17.43-3.9,6.7-.75,14.07-2.11,20.81-1.73,7.39.42,14.9,2.09,22.08,3.78a93.26,93.26,0,0,1,29.51,12.5C423.77,122.45,438.7,159,426.76,197a89.21,89.21,0,0,1-13.59,26.65c-6.3,8.42-15.26,14.06-24.26,19.42l-194,116s-101,49-157-28S76.25,198.12,76.25,198.12Zm7.81,7.9S38.5,242.12,64,318.86c0,0,38.25,52.75,119.25,27.75l206.5-126.5s10-50.7-15-76.85-54-41.23-92.5-36.94Z" transform="translate(-4.83 -19.39)"/></g><path id="path712" class="cls-60" d="M91.28,216.42l-.16.21c-6.82,9.06-10.68,19.85-12.67,30.83-.12.67-32.45-6.79-32.45-6.79-4.22-.65-5.46,1.2-5.5,1.45s-.56,2.72,3.71,3.93c0,0,33.45,6.54,33.35,7.29-3.53,28.8,4.45,57.1,4.57,57.51l.06.23.16.18a74.66,74.66,0,0,0,19.54,16.31S85.54,351.76,85,353c-2.18,5,3.79,7.67,6.67,3.33,0,0,15.81-26.23,16.65-25.83A79.47,79.47,0,0,0,141,337.84a97.59,97.59,0,0,0,31.77-4.71l.1,0,50.05-30.56,25.23,16s3.93,2.56,6.12.38c1.31-1.32-1.87-3.63-1.87-3.63l-25-15.5,93.95-57.31c18.67-32.89,15.18-98.77-54.92-96.71-15.41-7.4-25.87-.4-26.33-.46s-1.58.74-2,.92c-1.66.78-96.43,46.16-118.36,56.63-2.1,1-4.44,2.61-6.67,3.23-1.68.48-3.36-2.27-4.17-3.45L97.6,181.26c-.61-2-3.88-5.72-5.6-3.11-1.51,2.29.87,4.87,1.87,6.89,1.44,2.92,7.65,14.2,9.13,17,.86,1.62,1.7,3.23,2.62,4.8s.91,2.19-.72,3.07c-1.93,1.05-4,1.91-6,2.85l-5.7,2.73C92.78,215.7,91.59,216,91.28,216.42Zm152.35-70.79c2.87-.42,6-5.56,22.17,1.58,31.35-5.88,85.5,22.42,54.27,94.79-.54.32-52.65,31.11-94.92,56.52a1.47,1.47,0,0,0,.27,2.33l25.83,16.52S230.82,304.18,225.18,301c-1.31-1-3.62.1-3.67.13-27.88,16.77-49.53,29.92-49.61,30a97.69,97.69,0,0,1-31,4.55,88.14,88.14,0,0,1-32.41-7.35c-.8-.35-3.21-.05-3.82,1.53-.34-.16-16.37,25.18-16.37,25.18l16-25.5c1.54-2.55-.7-3.45-1.44-3.88A72.6,72.6,0,0,1,84.18,310a169.24,169.24,0,0,1-5.34-41.26,124.9,124.9,0,0,1,.82-14.58,3.27,3.27,0,0,0-2.86-4.07l-32.63-6.91,33.66,6.91c2.54.33,2.63-1.46,2.72-1.94,1.9-10.69,5.62-21.17,12.18-30,.31-.42,1.54-.74,2-1l5.69-2.73,5.86-2.82c1.88-.9,3.46-1.75,2.86-4.08L94.67,180.67l14.47,26.91c1.87,2.2,3.18,1.19,5.76-.05l6.19-3,30.06-14.42c8.9-4.28,67.15-32.52,69.41-33.48,1.08-.47,2.15-.93,3.22-1.42.81-.36,2.33-1.48,3.19-1.49Z" transform="translate(-4.83 -19.39)"/><ellipse id="ellipse714" class="cls-14" cx="309.17" cy="189.28" rx="3.8" ry="4.18"/><path id="path721" class="cls-61" d="M202,347.8s-2.75-1-4,2.48l12.1,17.94s2.84,2.12,3.76,1c0,0,1.51-1.29.53-3.89Z" transform="translate(-4.83 -19.39)"/><path id="path728" class="cls-62" d="M110.85,362.16s-1.28-2.62-4.58-1.05l-4.09,21.25s.52,3.51,1.93,3.4c0,0,2,.14,3.12-2.38Z" transform="translate(-4.83 -19.39)"/><path id="path745" class="cls-63" d="M69.26,206.37s2.83.67,3.72-2.88L59.14,186.85s-3-1.82-3.84-.66c0,0-1.37,1.43-.14,3.92Z" transform="translate(-4.83 -19.39)"/><path id="path762" class="cls-64" d="M36.27,259.16s2.63-1.24,1.1-4.56l-21.2-4.34s-3.51.48-3.42,1.89c0,0-.17,2,2.34,3.14Z" transform="translate(-4.83 -19.39)"/><path id="path779" class="cls-65" d="M129.49,176.08s2.67,1.2,3.95-2.64L122,152.6s-2.73-2.52-3.65-1.34c0,0-1.5,1.39-.6,4.38Z" transform="translate(-4.83 -19.39)"/><path id="path798" class="cls-66" d="M33.19,299.88s2-2.1-.59-4.65l-21.36,3.51s-3.11,1.7-2.52,3c0,0,.55,1.91,3.31,2.11Z" transform="translate(-4.83 -19.39)"/><path id="path805" class="cls-67" d="M63.88,349.33s-.36-2.89-4-2.49L49.09,365.6s-.65,3.48.72,3.84c0,0,1.82.78,3.72-1.23Z" transform="translate(-4.83 -19.39)"/><path id="path816" class="cls-68" d="M21.21,326.66c-1.9,1.1-4.38,2.38-4.22,5s2.75,3.8,4.85,3.54c3.27-.39,7.65-3.3,10.75-4.58L43,326.25c2.6-1.08,6.68-1.86,8.88-3.78,2.84-2.49,2.94-7-.9-8,0,0-26.37,10.13-29.39,11.94Z" transform="translate(-4.83 -19.39)"/><path id="path823" class="cls-69" d="M145.13,365.07s-1.73-2.34-4.69-.19l-.09,21.64s1.16,3.35,2.53,3c0,0,2-.22,2.62-2.92Z" transform="translate(-4.83 -19.39)"/><line id="line825" class="cls-70" x1="342.5" y1="327.28" x2="200.24" y2="213.54"/><line id="line827" class="cls-70" x1="349.29" y1="309.63" x2="322.97" y2="288.59"/><path id="path829" class="cls-71" d="M130,100.88" transform="translate(-4.83 -19.39)"/><path id="path831" class="cls-72" d="M237.32,166.66" transform="translate(-4.83 -19.39)"/><line id="line833" class="cls-70" x1="308.95" y1="133.38" x2="206.54" y2="49.9"/><line id="line835" class="cls-70" x1="309.64" y1="112.67" x2="209.92" y2="32.75"/><line id="line837" class="cls-70" x1="311.23" y1="93.82" x2="208.86" y2="11.98"/><line id="line857" class="cls-70" x1="233.72" y1="151.7" x2="144.57" y2="80.42"/><polyline id="polyline859" class="cls-73" points="184.51 189.99 91.28 115.51 177.91 170.03"/><polyline id="polyline871" class="cls-74" points="54.32 167.46 41.82 154.97 89.84 161.28"/><g id="g875"><path id="path877" class="cls-75" d="M168.78,298.8c.63-2.58,4.12-.68,5.57-.65.83,0,3-.12,3.68.44s.55,2.41-.59,2.54c-.1-.13-.25-.26-.32-.35-.29,2.89-3.09,3.53-5.27,2.65,1,1.55-.13,3.6-1.57,4.45a3,3,0,0,1-2.52.4c-.36-.09-.68-.6-1-.62s-1.19.43-1.68.47c-4.1.31-4.22-5.3-.51-5.2-.89-2.13,2.74-3.94,4.36-4.11M167.16,304c-.77-.41,0-1.2.46-1.48s1.15-.41,1.37-1c.13-.36,0-1-.46-1,.08.4.08,1.27-.32,1.56a.92.92,0,0,1-1.42-.81,2.41,2.41,0,0,1,1-1.74,2.31,2.31,0,0,0-1.26,1.29,9.4,9.4,0,0,0-.16,2.05C166.31,303.38,166.49,304,167.16,304Zm-1.8.23a1.11,1.11,0,0,0-1.34,1.21.8.8,0,0,0,.55.68c.56.19,1.35-.16,1.72.5-.27-.49.22-1,.53-1.4a2.73,2.73,0,0,0-1,.88c-.35-.14-.9-.21-1-.62A1.19,1.19,0,0,1,165.36,304.22Zm2.59,1.94c0,.86,1.06.55,1.51.31a2.06,2.06,0,0,0,1.1-2.12c-.11-.41-.9-1-.91-.27,0,.32.37.67.38,1.05s-.85,1.92-1.35,1c-.22-.4.32-.87.24-1.3C168.85,305.41,168,305.6,168,306.16Zm2.73-7.6c.88.59-.44,1.62-.63,2.2s.2.72.7.52a1.36,1.36,0,0,0,.56-.5c.05-.08.2-.55.23-.57-.36.19-1.07,1.16-.78,0C171,299.48,171.4,299.21,170.68,298.56Zm3.48,1.35a6.74,6.74,0,0,0-2,2.25,2.11,2.11,0,0,0,2.33-2.19,2.29,2.29,0,0,0-.68-.1" transform="translate(-4.83 -19.39)"/><path id="path888" class="cls-76" d="M174.11,300.05a3.13,3.13,0,0,1-1.86.29,6.74,6.74,0,0,1-2.08-1c-.45-.23-2-.18-1.31.62.32.35,1.15.4,1.58.47,1.29.23,3,.54,4,1.55a2.71,2.71,0,0,1,.2,3.39c-.83,1.27-2.93,2.3-4.19,1a1.59,1.59,0,0,1-.34-1.27c0-.27.25-1,.07-1.24s-.73-.1-.84.21a1.81,1.81,0,0,0,.23,1.15c.48,1.15.91,1.9.36,3.18a2.17,2.17,0,0,1-3.43.74c-1.17-1.06-.15-2.63-.15-3.9,0-.87-.13-3-1.43-2.95-.58,0-.73.77-.55,1.19s1,.87,1.34,1.31c.64.73.38,1.52,0,2.33-.24.56-2,2.12-2.07.67,0-.78.88-1.14,1-1.85.24-1.08-.89-.9-1.4-1.45a2.42,2.42,0,0,1,.33-3.3,2.45,2.45,0,0,1,3.11.23,4.79,4.79,0,0,1,1,3.91,15.51,15.51,0,0,0-.43,1.91c0,.69.55,1.51,1.27.85s.32-1.67.12-2.37c-.31-1.09-.82-2,.17-2.81.53-.45,1.9-.82,2.42-.12s-.45,1.69.39,2.19c.5.29,1-.09,1.22-.54.33-.67.09-1.08-.49-1.43a8.15,8.15,0,0,0-2.66-1.14,8.46,8.46,0,0,1-1.6-.24A1.94,1.94,0,0,1,167,299.4a2.14,2.14,0,0,1,2.31-1.59,4.87,4.87,0,0,1,2.37.87c.65.3,1.62.87,2-.13.28-.73-.45-1.28.39-1.85a2.23,2.23,0,0,1,1.56-.27c1,.13,2.25.85,1.94,2.05-.2.76-1.48,1.16-1.43,1.91s1.49.82,1,1.76-1.89.26-2.18-.52a2,2,0,0,1,.65-2.35c.3-.29,1.25-1.58.19-1.58-.54,0-.69.73-.77,1.14A1.48,1.48,0,0,1,174.11,300.05Z" transform="translate(-4.83 -19.39)"/></g><g id="g890"><path id="path892" class="cls-77" d="M159.55,205.63c2.48-2.1,4.5,2.24,5.88,3.3.8.6,3,2,3.27,3,.33,1.21-1.21,2.77-2.42,2.09,0-.19-.05-.43-.05-.57-2.37,2.65-5.56,1.31-7-1.11-.18,2.22-2.73,3.47-4.74,3.29a3.61,3.61,0,0,1-2.75-1.39c-.29-.34-.23-1.07-.5-1.31s-1.47-.41-2-.72c-4.22-2.59-.27-8.21,3.27-5.5.68-2.73,5.51-2,7.22-1m-5.49,3.84c-.46-1,.87-1.19,1.51-1.13s1.42.41,2.1-.06c.38-.27.75-1,.26-1.31-.21.45-.84,1.32-1.44,1.31a1.11,1.11,0,0,1-.79-1.8,3,3,0,0,1,2.2-1,2.8,2.8,0,0,0-2.16.39,11.56,11.56,0,0,0-1.64,1.91C153.83,208.41,153.55,209.16,154.22,209.61Zm-1.92-1a1.34,1.34,0,0,0-2.18.25,1,1,0,0,0,0,1.06c.41.58,1.44.79,1.31,1.7.1-.67,1-.86,1.53-1a3.23,3.23,0,0,0-1.6.15c-.24-.38-.73-.84-.57-1.34A1.45,1.45,0,0,1,152.3,208.57Zm1.11,3.74c-.67.82.63,1.3,1.25,1.38a2.56,2.56,0,0,0,2.6-1.32c.19-.48-.15-1.61-.69-.91-.23.31-.12.92-.39,1.3-.36.54-2.22,1.3-2.05.06.08-.55.94-.63,1.18-1.12C154.84,212.21,153.84,211.78,153.41,212.31Zm8.16-5.57c.43,1.19-1.6,1.28-2.21,1.72s-.32.86.31,1a1.67,1.67,0,0,0,.91-.1c.11,0,.59-.41.64-.4-.49-.06-1.89.38-.78-.52C161.18,207.85,161.8,207.89,161.57,206.74Zm2.41,3.79a8.26,8.26,0,0,0-3.57.81c1.19.85,3,1,3.84-.52a2.28,2.28,0,0,0-.59-.57" transform="translate(-4.83 -19.39)"/><path id="path903" class="cls-78" d="M163.82,210.63a3.58,3.58,0,0,1-2-1,7.69,7.69,0,0,1-1.31-2.44c-.27-.54-1.83-1.59-1.72-.31.05.57.83,1.21,1.19,1.58,1.09,1.14,2.55,2.68,2.72,4.33a3.33,3.33,0,0,1-2.24,3.49c-1.74.67-4.52.2-4.81-2a1.91,1.91,0,0,1,.59-1.49c.2-.26,1-.82,1-1.18,0-.54-.64-.62-1-.39s-.51.9-.61,1.3c-.37,1.48-.5,2.52-2,3.4a2.59,2.59,0,0,1-3.86-1.7c-.37-1.87,1.76-2.7,2.68-4,.62-.85,2.07-3.09.74-3.93-.59-.36-1.27.25-1.39.79-.17.7.3,1.55.35,2.25.09,1.16-.73,1.76-1.65,2.31-.65.4-3.5.67-2.51-.79.54-.8,1.68-.51,2.34-1.1,1-.9-.21-1.52-.3-2.43a3,3,0,0,1,2.7-3,2.91,2.91,0,0,1,2.86,2.43c.27,1.54-.79,3.49-1.87,4.56a19.2,19.2,0,0,0-1.8,1.58c-.52.66-.56,1.88.62,1.73,1-.13,1.52-1.42,1.84-2.25.48-1.3.62-2.52,2.19-2.65.84-.07,2.44.53,2.44,1.59s-1.66,1.35-1.2,2.43c.27.65,1,.62,1.57.33a1.19,1.19,0,0,0,.56-1.75,9.94,9.94,0,0,0-1.75-3,10,10,0,0,1-1.39-1.37,2.35,2.35,0,0,1,.53-3,2.57,2.57,0,0,1,3.39.06c1,.69,1.16,1.55,1.68,2.53.41.76.94,2,2,1.29.79-.52.49-1.59,1.71-1.56a2.69,2.69,0,0,1,1.71.84c.89.84,1.57,2.44.4,3.39-.74.61-2.27.11-2.77.89s.85,1.85-.27,2.46c-1.29.7-2-1.07-1.75-2.05a2.45,2.45,0,0,1,2.35-1.87c.49-.07,2.36-.67,1.32-1.43-.52-.38-1.2.24-1.57.59A1.8,1.8,0,0,1,163.82,210.63Z" transform="translate(-4.83 -19.39)"/></g><line id="line905" class="cls-74" x1="151.4" y1="191.6" x2="75.84" y2="130.59"/><g id="text3285" class="cls-79"><text class="cls-80" transform="translate(146.36 12.01)">Капс<tspan class="cls-81" x="30.52" y="0">у</tspan><tspan x="37.21" y="0">ла</tspan></text></g><g id="text3293" class="cls-79"><text class="cls-80" transform="translate(77.62 31.32)">Кл<tspan class="cls-82" x="16.32" y="0">е</tspan><tspan class="cls-83" x="23.65" y="0">т</tspan><tspan class="cls-81" x="29.9" y="0">о</tspan><tspan x="37.38" y="0">чная с</tspan><tspan class="cls-83" x="78.66" y="0">т</tspan><tspan x="84.92" y="0">ен</tspan><tspan class="cls-84" x="100.43" y="0">к</tspan><tspan x="106.87" y="0">а</tspan></text></g><g id="text3299" class="cls-79"><text class="cls-80" transform="translate(106.18 51.02)">Пл<tspan class="cls-83" x="18.23" y="0">а</tspan><tspan x="25.86" y="0">зм</tspan><tspan class="cls-81" x="41.9" y="0">о</tspan><tspan x="49.38" y="0">лемма</tspan></text></g><g id="text3307" class="cls-79"><text class="cls-80" transform="translate(347.5 337.62)">Ну<tspan class="cls-85" x="17.11" y="0">к</tspan><tspan x="23.39" y="0">леоид</tspan></text><text class="cls-80" transform="translate(347.5 355.12)">(замкну<tspan class="cls-83" x="49.35" y="0">т</tspan><tspan x="55.6" y="0">ая ДНК)</tspan></text></g><g id="text3315" class="cls-79"><text class="cls-80" transform="translate(354.41 313.61)">Жгутик</text></g><g id="text3319" class="cls-79"><text class="cls-80" transform="translate(54.79 80.9)">Ци<tspan class="cls-83" x="18.18" y="0">т</tspan><tspan x="24.43" y="0">опл</tspan><tspan class="cls-83" x="47.97" y="0">а</tspan><tspan x="55.6" y="0">зма</tspan></text></g><g id="text3323" class="cls-79"><text class="cls-80" transform="translate(20.22 112.98)">Рибо<tspan class="cls-85" x="32.96" y="0">с</tspan><tspan x="40.12" y="0">омы</tspan></text></g><g id="text3327" class="cls-79"><text class="cls-80" transform="translate(3 132.95)">Пл<tspan class="cls-83" x="18.23" y="0">а</tspan><tspan x="25.86" y="0">змида</tspan></text></g><g id="text3331" class="cls-79"><text class="cls-80" transform="translate(0 156.03)">Пили</text></g></svg>