<svg id="Слой_1" data-name="Слой 1" xmlns="http://www.w3.org/2000/svg" xmlns:xlink="http://www.w3.org/1999/xlink" viewBox="0 0 1743.28 401.15"><defs><style>.cls-1,.cls-12,.cls-13,.cls-15,.cls-16,.cls-2,.cls-7,.cls-8{fill:none;}.cls-1,.cls-12,.cls-13,.cls-15,.cls-16,.cls-7{stroke-width:11.87px;}.cls-1{stroke:url(#Безымянный_градиент_6);}.cls-2,.cls-8{stroke-width:11.96px;}.cls-2{stroke:url(#Безымянный_градиент_7);}.cls-3{fill:url(#Безымянный_градиент_8);}.cls-4,.cls-6{isolation:isolate;font-family:Arial-BoldMT, Arial;font-weight:700;}.cls-4{font-size:21.68px;fill:#fff;}.cls-5{fill:url(#Безымянный_градиент_9);}.cls-6{font-size:32.52px;}.cls-7{stroke:url(#Безымянный_градиент_6-2);}.cls-8{stroke:url(#Безымянный_градиент_7-2);}.cls-9{fill:url(#Безымянный_градиент_8-2);}.cls-10{fill:url(#Безымянный_градиент_9-2);}.cls-11{fill:#9d9d9c;}.cls-12{stroke:url(#Безымянный_градиент_6-3);}.cls-13{stroke:url(#Безымянный_градиент_6-4);}.cls-14{fill:url(#Безымянный_градиент_9-3);}.cls-15{stroke:url(#Безымянный_градиент_6-5);}.cls-16{stroke:url(#Безымянный_градиент_6-6);}.cls-17{fill:url(#Безымянный_градиент_8-3);}.cls-18{fill:url(#Безымянный_градиент_9-4);}.cls-19{fill:url(#Безымянный_градиент_8-4);}</style><linearGradient id="Безымянный_градиент_6" x1="136.68" y1="423.75" x2="307.43" y2="423.75" gradientTransform="matrix(-0.62, 2.17, -1.56, -0.44, 1088.49, 261.56)" gradientUnits="userSpaceOnUse"><stop offset="0" stop-color="blue" stop-opacity="0.45"/><stop offset="1" stop-color="blue" stop-opacity="0.27"/></linearGradient><linearGradient id="Безымянный_градиент_7" x1="-260.78" y1="1071.23" x2="-90.03" y2="1071.23" gradientTransform="matrix(0.62, -2.17, 1.56, 0.44, -1404.09, -341.09)" gradientUnits="userSpaceOnUse"><stop offset="0" stop-color="blue" stop-opacity="0.27"/><stop offset="1" stop-opacity="0"/></linearGradient><radialGradient id="Безымянный_градиент_8" cx="2590.66" cy="4633.43" r="186.81" gradientTransform="translate(-71.21 -326.5) scale(0.15)" gradientUnits="userSpaceOnUse"><stop offset="0" stop-color="blue"/><stop offset="1" stop-color="blue" stop-opacity="0.5"/></radialGradient><radialGradient id="Безымянный_градиент_9" cx="2590.66" cy="4633.43" r="186.81" gradientTransform="translate(-149.96 -157.58) scale(0.15)" gradientUnits="userSpaceOnUse"><stop offset="0" stop-color="red"/><stop offset="1" stop-color="red" stop-opacity="0.5"/></radialGradient><linearGradient id="Безымянный_градиент_6-2" x1="85.94" y1="170.75" x2="256.69" y2="170.75" xlink:href="#Безымянный_градиент_6"/><linearGradient id="Безымянный_градиент_7-2" x1="-210.04" y1="1324.23" x2="-39.29" y2="1324.23" xlink:href="#Безымянный_градиент_7"/><radialGradient id="Безымянный_градиент_8-2" cx="5431.56" cy="4641.51" r="186.81" xlink:href="#Безымянный_градиент_8"/><radialGradient id="Безымянный_градиент_9-2" cx="5431.56" cy="4641.51" r="186.81" xlink:href="#Безымянный_градиент_9"/><linearGradient id="Безымянный_градиент_6-3" x1="9.59" y1="-194.97" x2="180.34" y2="-194.97" xlink:href="#Безымянный_градиент_6"/><linearGradient id="Безымянный_градиент_6-4" x1="1070.98" y1="511.22" x2="1379.07" y2="511.22" gradientTransform="matrix(1, 0, 0, 1, 0, 0)" xlink:href="#Безымянный_градиент_6"/><radialGradient id="Безымянный_градиент_9-3" cx="9550.67" cy="4609.68" r="186.81" xlink:href="#Безымянный_градиент_9"/><linearGradient id="Безымянный_градиент_6-5" x1="-25.33" y1="-372.67" x2="145.42" y2="-372.67" xlink:href="#Безымянный_градиент_6"/><linearGradient id="Безымянный_градиент_6-6" x1="1369.83" y1="513.64" x2="1677.93" y2="513.64" gradientTransform="matrix(1, 0, 0, 1, 0, 0)" xlink:href="#Безымянный_градиент_6"/><radialGradient id="Безымянный_градиент_8-3" cx="9974.62" cy="4928.5" r="186.81" xlink:href="#Безымянный_градиент_8"/><radialGradient id="Безымянный_градиент_9-4" cx="11543.03" cy="4625.82" r="186.81" xlink:href="#Безымянный_градиент_9"/><radialGradient id="Безымянный_градиент_8-4" cx="9993.08" cy="6576.61" r="186.81" xlink:href="#Безымянный_градиент_8"/></defs><path id="path2623" class="cls-1" d="M333.27,377.16c88.21,56,114.89,175.83,58.66,263.3s-177.16,113.89-265.4,57.9a187.17,187.17,0,0,1-15.44-10.88" transform="translate(-26.93 -333.79)"/><path id="path2625" class="cls-2" d="M111.37,687.41C26.77,626.26,7.41,505,68.9,421.08c60-81.91,178.17-102.45,262.87-45.73" transform="translate(-26.93 -333.79)"/><path id="path2627" class="cls-3" d="M338.18,364.88a27.5,27.5,0,1,1-27.5-27.51,27.5,27.5,0,0,1,27.5,27.51Z" transform="translate(-26.93 -333.79)"/><g id="text2629"><text class="cls-4" transform="translate(278.85 36.86) scale(0.93 1)">e</text></g><path id="path2633" class="cls-5" d="M259.43,533.79a27.5,27.5,0,1,1-27.5-27.5h0A27.52,27.52,0,0,1,259.43,533.79Z" transform="translate(-26.93 -333.79)"/><g id="text2635"><text class="cls-6" transform="translate(194.95 208.58) scale(0.93 1)">p</text></g><path id="path2623-2" data-name="path2623" class="cls-7" d="M759.4,378.37c88.21,56,114.89,175.83,58.66,263.3s-177.16,113.89-265.4,57.9a188.88,188.88,0,0,1-15.44-10.88" transform="translate(-26.93 -333.79)"/><path id="path2625-2" data-name="path2625" class="cls-8" d="M537.5,688.62c-84.6-61.15-104-182.41-42.47-266.33,60-81.91,178.17-102.45,262.87-45.73" transform="translate(-26.93 -333.79)"/><path id="path2627-2" data-name="path2627" class="cls-9" d="M764.31,366.09a27.5,27.5,0,1,1-27.5-27.51,27.49,27.49,0,0,1,27.5,27.51Z" transform="translate(-26.93 -333.79)"/><g id="text2629-2" data-name="text2629"><text class="cls-4" transform="translate(704.99 38.07) scale(0.93 1)">e</text></g><path id="path2633-2" data-name="path2633" class="cls-10" d="M685.56,535a27.5,27.5,0,1,1-27.5-27.5h0A27.5,27.5,0,0,1,685.56,535Z" transform="translate(-26.93 -333.79)"/><g id="text2635-2" data-name="text2635"><text class="cls-6" transform="translate(621.09 209.79) scale(0.93 1)">p</text></g><path class="cls-11" d="M1007.2,547.14l-88.85,53.27v-4.69l82.67-50.5-82.67-50.28v-4.69l88.85,53Z" transform="translate(-26.93 -333.79)"/><path id="path2623-3" data-name="path2623" class="cls-12" d="M1377.27,373.6c88.21,56,114.89,175.83,58.66,263.3s-177.16,113.89-265.4,57.9q-8-5.07-15.44-10.88" transform="translate(-26.93 -333.79)"/><path id="path2625-3" data-name="path2625" class="cls-13" d="M1155.37,683.85c-84.6-61.15-104-182.41-42.47-266.33,60-81.91,178.17-102.45,262.87-45.73" transform="translate(-26.93 -333.79)"/><path id="path2633-3" data-name="path2633" class="cls-14" d="M1303.43,530.23a27.5,27.5,0,1,1-27.5-27.5h0A27.51,27.51,0,0,1,1303.43,530.23Z" transform="translate(-26.93 -333.79)"/><g id="text2635-3" data-name="text2635"><text class="cls-6" transform="translate(1238.96 205.02) scale(0.93 1)">p</text></g><path id="path2623-4" data-name="path2623" class="cls-15" d="M1676.12,376c88.21,56,114.89,175.83,58.66,263.3s-177.16,113.89-265.4,57.9q-8-5.07-15.44-10.88" transform="translate(-26.93 -333.79)"/><path id="path2625-4" data-name="path2625" class="cls-16" d="M1454.22,686.27c-84.6-61.15-104-182.41-42.47-266.33,60-81.91,178.17-102.45,262.87-45.73" transform="translate(-26.93 -333.79)"/><path id="path2627-3" data-name="path2627" class="cls-17" d="M1445.77,409.14a27.5,27.5,0,1,1-27.5-27.51,27.49,27.49,0,0,1,27.5,27.51Z" transform="translate(-26.93 -333.79)"/><g id="text2629-3" data-name="text2629"><text class="cls-4" transform="translate(1386.45 81.12) scale(0.93 1)">e</text></g><path id="path2633-4" data-name="path2633" class="cls-18" d="M1602.28,532.65a27.5,27.5,0,1,1-27.5-27.5h0A27.5,27.5,0,0,1,1602.28,532.65Z" transform="translate(-26.93 -333.79)"/><g id="text2635-4" data-name="text2635"><text class="cls-6" transform="translate(1537.81 207.44) scale(0.93 1)">p</text></g><path id="path2627-4" data-name="path2627" class="cls-19" d="M1448.54,656.36a27.5,27.5,0,1,1-27.5-27.51,27.5,27.5,0,0,1,27.5,27.51Z" transform="translate(-26.93 -333.79)"/><g id="text2629-4" data-name="text2629"><text class="cls-4" transform="translate(1389.22 328.34) scale(0.93 1)">e</text></g></svg>