<svg id="Слой_1" data-name="Слой 1" xmlns="http://www.w3.org/2000/svg" viewBox="0 0 824.45 572.74"><defs><style>.cls-1,.cls-10,.cls-11,.cls-12,.cls-13,.cls-14,.cls-15,.cls-16,.cls-17,.cls-18,.cls-19,.cls-2,.cls-21,.cls-22,.cls-23,.cls-3,.cls-4,.cls-5,.cls-7,.cls-8,.cls-9{isolation:isolate;}.cls-2{font-size:25.2px;font-family:Georgia;}.cls-19,.cls-2,.cls-3,.cls-4,.cls-5,.cls-8,.cls-9{fill:#fff;}.cls-3{font-size:14.4px;}.cls-23,.cls-3,.cls-4,.cls-8{font-family:ArialMT, Arial;}.cls-4{font-size:16.2px;}.cls-19,.cls-5,.cls-8,.cls-9{font-size:13.5px;}.cls-19,.cls-5,.cls-9{font-family:Arial-BoldMT, Arial;font-weight:700;}.cls-5{letter-spacing:-0.07em;}.cls-6{letter-spacing:0em;}.cls-7{fill:#3c4e66;}.cls-10,.cls-11,.cls-12,.cls-13,.cls-14,.cls-15,.cls-16,.cls-17,.cls-18,.cls-21,.cls-22,.cls-7{opacity:0.85;}.cls-10{fill:#b13507;}.cls-11{fill:#00847e;}.cls-12{fill:#6d3e91;}.cls-13{fill:#cf0a66;}.cls-14{fill:#883039;}.cls-15{fill:#00823f;}.cls-16{fill:#4c6a9c;}.cls-17{fill:#c05917;}.cls-18{fill:#d73c50;}.cls-19{letter-spacing:-0.06em;}.cls-20{letter-spacing:0em;}.cls-21{fill:#287669;}.cls-22{fill:#cd2285;}.cls-23{font-size:12.6px;fill:#777;}.cls-24{letter-spacing:-0.02em;}.cls-25{letter-spacing:-0.02em;}.cls-26{fill:none;}</style></defs><g class="cls-1"><text class="cls-2" transform="translate(4.59 21.33)">Global vaccination coverage, World, 2019</text></g><g class="cls-1"><text class="cls-3" transform="translate(4.59 41.89)">Share of one-year-olds who have been immunized against a disease or a pathogen.</text></g><text class="cls-4" transform="translate(226.26 533.57)">0%</text><text class="cls-4" transform="translate(337.58 533.57)">20%</text><text class="cls-4" transform="translate(465.18 533.57)">40%</text><text class="cls-4" transform="translate(592.68 533.57)">60%</text><text class="cls-4" transform="translate(720.18 533.57)">80%</text><text class="cls-5" transform="translate(95.53 77.76)">T<tspan class="cls-6" x="7.24" y="0">uberculosis (BCG)</tspan></text><rect class="cls-7" x="226.29" y="62.77" width="561.2" height="29.97"/><text class="cls-8" transform="translate(792.49 77.76)">88%</text><text class="cls-9" transform="translate(147.04 115.22)">Polio (Pol3)</text><rect class="cls-10" x="226.29" y="100.24" width="548.4" height="29.97"/><text class="cls-8" transform="translate(779.69 115.22)">86%</text><text class="cls-9" transform="translate(0 152.69)">Diphteria/tetanus/pertussis (DTP3)</text><rect class="cls-11" x="226.29" y="137.7" width="542" height="29.97"/><text class="cls-8" transform="translate(773.29 152.69)">85%</text><text class="cls-9" transform="translate(50.24 190.16)">Measles, first dose (MCV1)</text><rect class="cls-12" x="226.29" y="175.17" width="542" height="29.97"/><text class="cls-8" transform="translate(773.29 190.16)">85%</text><text class="cls-9" transform="translate(95.28 227.62)">Hepatitis B (HepB3)</text><rect class="cls-13" x="226.29" y="212.64" width="542" height="29.97"/><text class="cls-8" transform="translate(773.29 227.62)">85%</text><text class="cls-9" transform="translate(26.99 265.09)">Inactivated polio vaccine (IPV)</text><rect class="cls-14" x="226.29" y="250.1" width="522.9" height="29.97"/><text class="cls-8" transform="translate(754.19 265.09)">82%</text><text class="cls-9" transform="translate(52.53 302.56)">H. influenzae type b (Hib3)</text><rect class="cls-15" x="226.29" y="287.57" width="459.1" height="29.97"/><text class="cls-8" transform="translate(690.39 302.56)">72%</text><text class="cls-9" transform="translate(118.51 340.02)">Measles (MCV2)</text><rect class="cls-16" x="226.29" y="325.04" width="452.8" height="29.97"/><text class="cls-8" transform="translate(684.09 340.02)">71%</text><text class="cls-9" transform="translate(123.78 377.49)">Rubella (RCV1)</text><rect class="cls-17" x="226.29" y="362.5" width="452.8" height="29.97"/><text class="cls-8" transform="translate(684.09 377.49)">71%</text><text class="cls-9" transform="translate(24.71 414.96)">Pneumococcal vaccine (PCV3)</text><rect class="cls-18" x="226.29" y="399.97" width="306.1" height="29.97"/><text class="cls-8" transform="translate(537.39 414.96)">48%</text><text class="cls-19" transform="translate(104.26 452.42)">Y<tspan class="cls-20" x="8.26" y="0">ellow fever (YFV)</tspan></text><rect class="cls-21" x="226.29" y="437.44" width="293.3" height="29.97"/><text class="cls-8" transform="translate(524.59 452.42)">46%</text><text class="cls-9" transform="translate(159.03 489.89)">Rotavirus</text><rect class="cls-22" x="226.29" y="474.9" width="248.7" height="29.97"/><text class="cls-8" transform="translate(479.99 489.89)">39%</text><g class="cls-1"><text class="cls-23" transform="translate(4.59 568.65)">Source: <tspan class="cls-24" x="46.92" y="0">W</tspan><tspan x="58.59" y="0">orld Health Organization (WHO); UNICEF</tspan></text></g><g class="cls-1"><text class="cls-23" transform="translate(786.04 568.65)">CC B<tspan class="cls-25" x="30.1" y="0">Y</tspan></text></g><path class="cls-26" transform="translate(-10.41 -13.83)"/></svg>