<svg id="svg1718" xmlns="http://www.w3.org/2000/svg" xmlns:xlink="http://www.w3.org/1999/xlink" viewBox="0 0 1400.43 710.52"><defs><style>.cls-1,.cls-10,.cls-16,.cls-17,.cls-2,.cls-9{fill:none;}.cls-1,.cls-16,.cls-9{stroke-width:11.87px;}.cls-1{stroke:url(#Безымянный_градиент);}.cls-10,.cls-17,.cls-2{stroke-width:11.96px;}.cls-2{stroke:url(#Безымянный_градиент_2);}.cls-3{fill:url(#Безымянный_градиент_3);}.cls-12,.cls-14,.cls-19,.cls-21,.cls-23,.cls-24,.cls-25,.cls-26,.cls-27,.cls-28,.cls-29,.cls-30,.cls-31,.cls-33,.cls-35,.cls-4,.cls-5,.cls-7{isolation:isolate;}.cls-5{font-size:21.68px;}.cls-12,.cls-19,.cls-21,.cls-23,.cls-25,.cls-26,.cls-27,.cls-28,.cls-29,.cls-30,.cls-31,.cls-33,.cls-35,.cls-5{fill:#fff;}.cls-12,.cls-14,.cls-19,.cls-21,.cls-23,.cls-24,.cls-25,.cls-26,.cls-27,.cls-28,.cls-29,.cls-30,.cls-31,.cls-33,.cls-35,.cls-5,.cls-7{font-family:Arial-BoldMT, Arial;font-weight:700;}.cls-6{fill:url(#Безымянный_градиент_4);}.cls-7{font-size:32.52px;}.cls-8{fill:url(#Безымянный_градиент_5);}.cls-9{stroke:url(#Безымянный_градиент_6);}.cls-10{stroke:url(#Безымянный_градиент_7);}.cls-11{fill:url(#Безымянный_градиент_8);}.cls-12{font-size:21.68px;}.cls-13{fill:url(#Безымянный_градиент_9);}.cls-14{font-size:32.52px;}.cls-15{fill:url(#Безымянный_градиент_10);}.cls-16{stroke:url(#Безымянный_градиент_11);}.cls-17{stroke:url(#Безымянный_градиент_12);}.cls-18{fill:url(#Безымянный_градиент_13);}.cls-19{font-size:21.68px;}.cls-20{fill:url(#Безымянный_градиент_14);}.cls-21{font-size:21.68px;}.cls-22{fill:url(#Безымянный_градиент_15);}.cls-23{font-size:21.68px;}.cls-24{font-size:32.52px;}.cls-25{font-size:65.03px;}.cls-26{font-size:32.52px;}.cls-27{font-size:32.52px;}.cls-28{font-size:65.03px;}.cls-29{font-size:32.52px;}.cls-30{font-size:32.52px;}.cls-31{font-size:53.65px;}.cls-32{letter-spacing:-0.02em;}.cls-33{font-size:53.65px;letter-spacing:0.01em;}.cls-34{letter-spacing:0em;}.cls-35{font-size:53.65px;}.cls-36{letter-spacing:-0.04em;}</style><linearGradient id="Безымянный_градиент" x1="-4.62" y1="584.87" x2="166.13" y2="584.87" gradientTransform="matrix(-0.62, 2.17, 1.56, 0.44, -47.33, -179.13)" gradientUnits="userSpaceOnUse"><stop offset="0" stop-color="blue" stop-opacity="0.45"/><stop offset="1" stop-color="blue" stop-opacity="0.27"/></linearGradient><linearGradient id="Безымянный_градиент_2" x1="-121.48" y1="82.14" x2="49.27" y2="82.14" gradientTransform="matrix(0.62, -2.17, -1.56, -0.44, 834.05, 165.16)" gradientUnits="userSpaceOnUse"><stop offset="0" stop-color="blue" stop-opacity="0.27"/><stop offset="1" stop-opacity="0"/></linearGradient><radialGradient id="Безымянный_градиент_3" cx="2416.81" cy="-1310.37" r="186.81" gradientTransform="matrix(0.15, 0, 0, -0.15, 480.1, -131.57)" gradientUnits="userSpaceOnUse"><stop offset="0" stop-color="blue"/><stop offset="1" stop-color="blue" stop-opacity="0.5"/></radialGradient><radialGradient id="Безымянный_градиент_4" cx="2416.81" cy="-1310.37" r="186.81" gradientTransform="matrix(0.15, 0, 0, -0.15, 376.24, 37.35)" gradientUnits="userSpaceOnUse"><stop offset="0" stop-color="red"/><stop offset="1" stop-color="red" stop-opacity="0.5"/></radialGradient><radialGradient id="Безымянный_градиент_5" cx="2416.81" cy="-1310.37" r="186.81" gradientTransform="matrix(0.15, 0, 0, -0.15, 414.66, 37.35)" gradientUnits="userSpaceOnUse"><stop offset="0"/><stop offset="1" stop-opacity="0.5"/></radialGradient><linearGradient id="Безымянный_градиент_6" x1="-4.62" y1="584.87" x2="166.13" y2="584.87" gradientTransform="matrix(-0.62, 2.17, 1.56, 0.44, -547.33, -179.13)" xlink:href="#Безымянный_градиент"/><linearGradient id="Безымянный_градиент_7" x1="-121.48" y1="82.14" x2="49.27" y2="82.14" gradientTransform="matrix(0.62, -2.17, -1.56, -0.44, 334.05, 165.16)" xlink:href="#Безымянный_градиент_2"/><radialGradient id="Безымянный_градиент_8" cx="2416.81" cy="-1310.37" r="186.81" gradientTransform="matrix(0.15, 0, 0, -0.15, -19.9, -131.57)" xlink:href="#Безымянный_градиент_3"/><radialGradient id="Безымянный_градиент_9" cx="2416.81" cy="-1310.37" r="186.81" gradientTransform="matrix(0.15, 0, 0, -0.15, -98.65, 37.35)" xlink:href="#Безымянный_градиент_4"/><radialGradient id="Безымянный_градиент_10" cx="-1645.11" cy="-2125.47" r="186.79" gradientTransform="matrix(0, -0.15, -0.15, 0, 938.34, -31.14)" xlink:href="#Безымянный_градиент_5"/><linearGradient id="Безымянный_градиент_11" x1="-4.62" y1="584.87" x2="166.13" y2="584.87" gradientTransform="matrix(-0.62, 2.17, 1.56, 0.44, 452.67, -179.13)" xlink:href="#Безымянный_градиент"/><linearGradient id="Безымянный_градиент_12" x1="-121.48" y1="82.14" x2="49.27" y2="82.14" gradientTransform="matrix(0.62, -2.17, -1.56, -0.44, 1334.05, 165.16)" xlink:href="#Безымянный_градиент_2"/><radialGradient id="Безымянный_градиент_13" cx="2416.81" cy="-1310.37" r="186.81" gradientTransform="matrix(0.15, 0, 0, -0.15, 980.1, -131.57)" xlink:href="#Безымянный_градиент_3"/><radialGradient id="Безымянный_градиент_14" cx="2416.81" cy="-1310.37" r="186.79" gradientTransform="matrix(0.15, 0, 0, -0.15, 914.66, 37.35)" xlink:href="#Безымянный_градиент_5"/><radialGradient id="Безымянный_градиент_15" cx="2416.81" cy="-1310.37" r="186.79" gradientTransform="matrix(0.15, 0, 0, -0.15, 876.24, 37.35)" xlink:href="#Безымянный_градиент_4"/></defs><path id="path2373" class="cls-1" d="M858.5,73.63c88.21,56,114.89,175.83,58.66,263.3S740,450.82,651.76,394.83q-8-5.06-15.43-10.88" transform="translate(-52.16 -33.78)"/><path id="use2439" class="cls-2" d="M636.6,383.88c-84.65-61.15-104-182.41-42.47-266.33C654.14,35.64,772.3,15.1,857,71.82" transform="translate(-52.16 -33.78)"/><path id="path2128" class="cls-3" d="M863.41,61.35a27.5,27.5,0,1,1-27.5-27.51,27.5,27.5,0,0,1,27.5,27.51Z" transform="translate(-52.16 -33.78)"/><g id="text2130" class="cls-4"><text class="cls-5" transform="translate(776.86 33.34) scale(0.93 1)">e</text></g><path id="path2122" class="cls-6" d="M759.55,230.26a27.5,27.5,0,1,1-27.5-27.5,27.51,27.51,0,0,1,27.5,27.5Z" transform="translate(-52.16 -33.78)"/><g id="text2124" class="cls-4"><text class="cls-7" transform="translate(671.86 205.06) scale(0.93 1)">p</text></g><path id="path2150" class="cls-8" d="M798,230.26a27.5,27.5,0,1,1-27.5-27.5,27.51,27.51,0,0,1,27.5,27.5Z" transform="translate(-52.16 -33.78)"/><g id="text2152" class="cls-4"><text class="cls-5" transform="translate(710.87 202.26) scale(0.93 1)">n</text></g><path id="path2623" class="cls-9" d="M358.5,73.63c88.21,56,114.89,175.83,58.66,263.3S240,450.82,151.76,394.83q-8-5.06-15.44-10.88" transform="translate(-52.16 -33.78)"/><path id="path2625" class="cls-10" d="M136.6,383.88C52,322.73,32.64,201.47,94.13,117.55,154.14,35.64,272.3,15.1,357,71.82" transform="translate(-52.16 -33.78)"/><path id="path2627" class="cls-11" d="M363.41,61.35a27.5,27.5,0,1,1-27.5-27.51,27.5,27.5,0,0,1,27.5,27.51Z" transform="translate(-52.16 -33.78)"/><g id="text2629" class="cls-4"><text class="cls-12" transform="translate(278.86 33.34) scale(0.93 1)">e</text></g><path id="path2633" class="cls-13" d="M284.66,230.26a27.5,27.5,0,1,1-27.5-27.5,27.51,27.51,0,0,1,27.5,27.5Z" transform="translate(-52.16 -33.78)"/><g id="text2635" class="cls-4"><text class="cls-14" transform="translate(194.96 205.06) scale(0.93 1)">p</text></g><path id="path2783" class="cls-15" d="M1251.26,179.55a27.5,27.5,0,1,1-27.51,27.5,27.5,27.5,0,0,1,27.51-27.5Z" transform="translate(-52.16 -33.78)"/><path id="path2709" class="cls-16" d="M1358.5,73.63c88.21,56,114.89,175.83,58.66,263.3s-177.13,113.89-265.4,57.9q-8-5.06-15.44-10.88" transform="translate(-52.16 -33.78)"/><path id="path2711" class="cls-17" d="M1136.6,383.88c-84.65-61.15-104-182.41-42.47-266.33,60-81.91,178.17-102.45,262.85-45.73" transform="translate(-52.16 -33.78)"/><path id="path2713" class="cls-18" d="M1363.41,61.35a27.5,27.5,0,1,1-27.5-27.51,27.5,27.5,0,0,1,27.5,27.51Z" transform="translate(-52.16 -33.78)"/><g id="text2715" class="cls-4"><text class="cls-19" transform="translate(1278.56 33.34) scale(0.93 1)">e</text></g><path id="path2725" class="cls-20" d="M1302,234.26a27.5,27.5,0,1,1-27.5-27.5,27.5,27.5,0,0,1,27.5,27.5Z" transform="translate(-52.16 -33.78)"/><g id="text2785" class="cls-4"><text class="cls-21" transform="translate(1191.44 179.42) scale(0.93 1)">n</text></g><path id="path2719" class="cls-22" d="M1255.55,234.27a27.5,27.5,0,1,1-27.5-27.51,27.5,27.5,0,0,1,27.5,27.51Z" transform="translate(-52.16 -33.78)"/><g id="text2727" class="cls-4"><text class="cls-23" transform="translate(1216.87 206.26) scale(0.93 1)">n</text></g><g id="text2721" class="cls-4"><text class="cls-24" transform="translate(1165.86 207.06) scale(0.93 1)">p</text></g><g id="text2805" class="cls-4"><text class="cls-25" transform="translate(178.75 546.72) scale(0.93 1)">H</text></g><g id="text2809" class="cls-4"><text class="cls-26" transform="translate(158.67 504) scale(0.93 1)">1</text></g><g id="text2813" class="cls-4"><text class="cls-27" transform="translate(158.67 564) scale(0.93 1)">1</text></g><g id="g2825"><g id="text2827" class="cls-4"><text class="cls-28" transform="translate(678.75 546.72) scale(0.93 1)">H</text></g><g id="text2831" class="cls-4"><text class="cls-29" transform="translate(658.67 504) scale(0.93 1)">2</text></g><g id="text2835" class="cls-4"><text class="cls-30" transform="translate(658.67 564) scale(0.93 1)">1</text></g></g><g id="g2839"><g id="text2841" class="cls-4"><text class="cls-28" transform="translate(1178.75 546.72) scale(0.93 1)">H</text></g><g id="text2845" class="cls-4"><text class="cls-29" transform="translate(1158.67 504) scale(0.93 1)">3</text></g><g id="text2849" class="cls-4"><text class="cls-30" transform="translate(1158.67 564) scale(0.93 1)">1</text></g></g><g id="text2859" class="cls-4"><text class="cls-31" transform="translate(117.54 690.32) scale(0.93 1)">Пр<tspan class="cls-32" x="71.34" y="0">о</tspan><tspan x="102.77" y="0">тий</tspan></text></g><g id="text2875" class="cls-4"><text class="cls-33" transform="translate(588.97 690.32) scale(0.93 1)">Д<tspan class="cls-34" x="38.88" y="0">ейтерий</tspan></text></g><g id="text2879" class="cls-4"><text class="cls-35" transform="translate(1120.46 690.32) scale(0.93 1)"><tspan class="cls-36">Т</tspan><tspan x="30.73" y="0">ритий</tspan></text></g></svg>