<svg id="Слой_1" data-name="Слой 1" xmlns="http://www.w3.org/2000/svg" xmlns:xlink="http://www.w3.org/1999/xlink" viewBox="0 0 1181.68 778.26"><defs><style>.cls-1{fill:url(#Безымянный_градиент_9);}.cls-2{fill:#1d1d1b;}.cls-3{fill:#fff;}.cls-4{fill:#575756;}</style><radialGradient id="Безымянный_градиент_9" cx="389.13" cy="389.13" r="389.13" gradientUnits="userSpaceOnUse"><stop offset="0" stop-color="#fff"/><stop offset="0.37" stop-color="#fff" stop-opacity="0.99"/><stop offset="0.51" stop-color="#fff" stop-opacity="0.97"/><stop offset="0.6" stop-color="#fff" stop-opacity="0.92"/><stop offset="0.68" stop-color="#fff" stop-opacity="0.85"/><stop offset="0.75" stop-color="#fff" stop-opacity="0.77"/><stop offset="0.8" stop-color="#fff" stop-opacity="0.66"/><stop offset="0.86" stop-color="#fff" stop-opacity="0.53"/><stop offset="0.91" stop-color="#fff" stop-opacity="0.39"/><stop offset="0.95" stop-color="#fff" stop-opacity="0.22"/><stop offset="0.99" stop-color="#fff" stop-opacity="0.04"/><stop offset="1" stop-color="#fff" stop-opacity="0"/></radialGradient></defs><circle class="cls-1" cx="389.13" cy="389.13" r="389.13"/><circle class="cls-2" cx="389.13" cy="389.13" r="13.46"/><path class="cls-3" d="M963.53,612.08a8.57,8.57,0,0,1-6.74-2.8,10.4,10.4,0,0,1-2.54-7.25,11,11,0,0,1,2.59-7.67,9.07,9.07,0,0,1,7-2.86,8.48,8.48,0,0,1,6.57,2.76,10.38,10.38,0,0,1,2.52,7.26,11,11,0,0,1-2.58,7.74A8.79,8.79,0,0,1,963.53,612.08Zm0-1.68a7,7,0,0,0,5.49-2.25,9.25,9.25,0,0,0,2-6.37,9.46,9.46,0,0,0-1.9-6.34,7.44,7.44,0,0,0-10.52-.15l-.27.28a10.5,10.5,0,0,0,0,12.5A6.7,6.7,0,0,0,963.53,610.4Z" transform="translate(-181.74 -150.87)"/><path class="cls-3" d="M987.53,590.59l.3,1.65a3.51,3.51,0,0,1-1.12.49,17.35,17.35,0,0,1-2.25.49,15,15,0,0,0-3,.7,4.56,4.56,0,0,0-1.57,1,5.5,5.5,0,0,0-1.29,2.23,12.64,12.64,0,0,0-.6,3.39h0a5.42,5.42,0,0,1,2-1.89,6.23,6.23,0,0,1,3-.72,5.35,5.35,0,0,1,4.43,1.89,8,8,0,0,1,1.57,5.17,7.6,7.6,0,0,1-1.74,5.17,5.92,5.92,0,0,1-4.72,1.89,5.69,5.69,0,0,1-4.83-2.32,10.73,10.73,0,0,1-1.7-6.42,22.93,22.93,0,0,1,.64-6,7.84,7.84,0,0,1,1.9-3.54,6,6,0,0,1,2.23-1.42,17.92,17.92,0,0,1,3.22-.83c1.06-.19,1.89-.36,2.37-.5A3.87,3.87,0,0,0,987.53,590.59Zm-9.47,11.89v1.73a7.78,7.78,0,0,0,1.26,4.52,4.08,4.08,0,0,0,3.53,1.9,4.12,4.12,0,0,0,3.33-1.5,6.16,6.16,0,0,0,1.21-4A6.46,6.46,0,0,0,986.2,601a4,4,0,0,0-3.35-1.48,4.92,4.92,0,0,0-2.84.83,6.21,6.21,0,0,0-2,2.16Z" transform="translate(-181.74 -150.87)"/><path class="cls-3" d="M1002.77,611.76H1001V599.07h-5.68v4.83a26.42,26.42,0,0,1-.32,4.79,4.82,4.82,0,0,1-1.12,2.47,2.74,2.74,0,0,1-1,.68,3.78,3.78,0,0,1-1.33.21H991l-.49-.1.32-1.51h.61a2.24,2.24,0,0,0,.68-.1,1.7,1.7,0,0,0,.55-.38,3.61,3.61,0,0,0,.73-1.89,29.71,29.71,0,0,0,.23-4.32v-6.17h9.05Z" transform="translate(-181.74 -150.87)"/><path class="cls-3" d="M1017.26,611.76h-1.78v-2.55h0a5.37,5.37,0,0,1-1.9,2.14,4.88,4.88,0,0,1-2.68.73,4.38,4.38,0,0,1-3.22-1.15,3.88,3.88,0,0,1-1.22-3,3.94,3.94,0,0,1,1.22-3,6.66,6.66,0,0,1,3.78-1.53l4.09-.59v-.39a4.2,4.2,0,0,0-.89-2.83,3.18,3.18,0,0,0-2.38-.89,5.72,5.72,0,0,0-2.24.42,6.17,6.17,0,0,0-1.89,1.31l-1.06-1.1a7.17,7.17,0,0,1,5.34-2.18,4.87,4.87,0,0,1,3.79,1.34,5.74,5.74,0,0,1,1.25,4Zm-1.78-6v-1.4l-3.68.53a5.73,5.73,0,0,0-2.76,1,2.45,2.45,0,0,0-.83,2,2.59,2.59,0,0,0,.79,2,2.92,2.92,0,0,0,2.08.76,4.16,4.16,0,0,0,3.19-1.37A5.07,5.07,0,0,0,1015.48,605.72Z" transform="translate(-181.74 -150.87)"/><path class="cls-3" d="M1031.31,611a7.22,7.22,0,0,1-4.07,1.13,6.41,6.41,0,0,1-4.81-1.89,7.25,7.25,0,0,1-1.9-5.25,7.92,7.92,0,0,1,1.9-5.58,6.68,6.68,0,0,1,5.19-2.16,7.52,7.52,0,0,1,1.89.23,9.29,9.29,0,0,1,1.9.72l-.74,1.38a6.41,6.41,0,0,0-1.5-.59,6.87,6.87,0,0,0-1.57-.17,4.78,4.78,0,0,0-3.79,1.67,6.52,6.52,0,0,0-1.4,4.32,6.12,6.12,0,0,0,1.38,4.26,4.56,4.56,0,0,0,3.56,1.53,5.72,5.72,0,0,0,3.13-.91Z" transform="translate(-181.74 -150.87)"/><path class="cls-3" d="M1038.58,611.76h-1.78V599.09h-4.39v-1.55h10.53v1.55h-4.38Z" transform="translate(-181.74 -150.87)"/><path class="cls-3" d="M1045.53,611.76V597.54h1.78v5.21h3.79a5.1,5.1,0,0,1,3.58,1.15,4.25,4.25,0,0,1,1.27,3.32,4.37,4.37,0,0,1-1.29,3.35,5,5,0,0,1-3.56,1.19Zm1.78-1.57h3.62a3.34,3.34,0,0,0,2.37-.76,2.75,2.75,0,0,0,.83-2.17,2.81,2.81,0,0,0-.83-2.2,3.39,3.39,0,0,0-2.39-.76h-3.6Z" transform="translate(-181.74 -150.87)"/><path class="cls-3" d="M1067.07,611.76V597.54h1.78v6.1h7.82v-6.1h1.78v14.22h-1.78v-6.55h-7.82v6.55Z" transform="translate(-181.74 -150.87)"/><path class="cls-3" d="M1093,611.76h-1.89v-2.55h0a5.65,5.65,0,0,1-1.89,2.14,5.09,5.09,0,0,1-2.71.73,4.38,4.38,0,0,1-3.22-1.15,3.83,3.83,0,0,1-1.21-3,4,4,0,0,1,1.21-3,6.66,6.66,0,0,1,3.79-1.53l4.1-.59v-.39a4.25,4.25,0,0,0-.9-2.83,3.22,3.22,0,0,0-2.39-.89,6.14,6.14,0,0,0-2.24.42,6.47,6.47,0,0,0-1.89,1.31l-1.06-1.1a7.17,7.17,0,0,1,5.34-2.18,4.87,4.87,0,0,1,3.79,1.34,5.74,5.74,0,0,1,1.27,4Zm-1.78-6v-1.4l-3.69.53a5.88,5.88,0,0,0-2.77,1,2.41,2.41,0,0,0-.81,2,2.57,2.57,0,0,0,.78,2,2.89,2.89,0,0,0,2.08.76,4.06,4.06,0,0,0,3.18-1.37,5,5,0,0,0,1.12-3.5Z" transform="translate(-181.74 -150.87)"/><path class="cls-3" d="M1107.08,597.54l-4.79,7.22,4.66,7h-2.14L1101.9,607l-.31-.49-.36-.63h0c-.11.17-.21.34-.32.49a5,5,0,0,1-.38.63l-3,4.73h-2.08l4.79-7-4.66-7.25h2.08l3,5c.12.19.23.39.34.59a5,5,0,0,0,.34.59h0l.34-.59.34-.55,3.09-5Z" transform="translate(-181.74 -150.87)"/><path class="cls-3" d="M1115.4,612.08a6.33,6.33,0,0,1-5-2,7.57,7.57,0,0,1-1.9-5.29,7.75,7.75,0,0,1,1.9-5.56,6.8,6.8,0,0,1,5.13-2,6.2,6.2,0,0,1,4.89,2,7.88,7.88,0,0,1,1.78,5.45,7.68,7.68,0,0,1-1.9,5.42A6.44,6.44,0,0,1,1115.4,612.08Zm0-1.53a4.47,4.47,0,0,0,3.67-1.55,7.91,7.91,0,0,0,0-8.73,4.49,4.49,0,0,0-3.65-1.54,4.74,4.74,0,0,0-3.79,1.59,6.47,6.47,0,0,0-1.38,4.42,6.26,6.26,0,0,0,1.36,4.24,4.74,4.74,0,0,0,3.88,1.61Z" transform="translate(-181.74 -150.87)"/><path class="cls-3" d="M1125.59,611.76h-2.43l7.09-7.31-6.77-6.91h2.3l6.34,6.72h0v-6.72h1.72v6.72h0l6.33-6.72h2.29l-6.76,6.91,7.1,7.31h-2.46l-6.5-7h0v7h-1.72v-7h0Z" transform="translate(-181.74 -150.87)"/><path class="cls-3" d="M1144.15,615.55v-5.36h1.32a11.92,11.92,0,0,0,1.52-4,27.84,27.84,0,0,0,.53-5.69v-2.93h8.54v12.65h2.14v5.36h-1.55v-3.79h-11v3.79Zm10.13-5.36V599.07h-5.08v1.56a30.46,30.46,0,0,1-.47,5.47,14,14,0,0,1-1.36,4.09Z" transform="translate(-181.74 -150.87)"/><path class="cls-3" d="M1172.31,604.91H1162a6.09,6.09,0,0,0,1.35,4.24,4.8,4.8,0,0,0,3.5,1.44,7.21,7.21,0,0,0,2-.32,6.81,6.81,0,0,0,1.89-1l.88,1.27a8.74,8.74,0,0,1-2.39,1.23,9,9,0,0,1-2.67.38,6.35,6.35,0,0,1-4.74-1.89,7.62,7.62,0,0,1-1.89-5.57,8.09,8.09,0,0,1,1.8-5.38,5.85,5.85,0,0,1,4.68-2.12,5.06,5.06,0,0,1,4.18,1.9,7.73,7.73,0,0,1,1.48,5Zm-1.9-1.52a5.5,5.5,0,0,0-1.07-3.44,3.49,3.49,0,0,0-2.81-1.24,4.17,4.17,0,0,0-3,1.24,5.59,5.59,0,0,0-1.47,3.44Z" transform="translate(-181.74 -150.87)"/><path class="cls-3" d="M1175.77,611.76V597.54h1.77v6.1h7.82v-6.1h1.78v14.22h-1.78v-6.55h-7.82v6.55Z" transform="translate(-181.74 -150.87)"/><path class="cls-3" d="M1191.72,611.76V597.54h1.67v11.67l.26-.46a4,4,0,0,1,.29-.43l7.57-10.78h1.76v14.22h-1.72v-11.7l-.27.47-.28.46-7.57,10.77Z" transform="translate(-181.74 -150.87)"/><path class="cls-3" d="M1206.64,611.76l2.09-3.9a6.61,6.61,0,0,1,1-1.4,3.09,3.09,0,0,1,1.18-.83,4.33,4.33,0,0,1-2.69-1.25,4.27,4.27,0,0,1,.36-5.68,5.62,5.62,0,0,1,3.78-1.08h5v14.22h-1.9v-5.68h-2a2.52,2.52,0,0,0-1.61.57,5,5,0,0,0-1.32,1.78l-1.72,3.39Zm8.81-12.7h-3.12a3.64,3.64,0,0,0-2.37.7,2.4,2.4,0,0,0-.83,1.89,2.54,2.54,0,0,0,.83,2.06,3.32,3.32,0,0,0,2.35.72h3.16Z" transform="translate(-181.74 -150.87)"/><path class="cls-3" d="M1228.2,611l.77-1.32a5.11,5.11,0,0,0,1.5.64,7.1,7.1,0,0,0,1.72.21,4.63,4.63,0,0,0,3.56-1.44,5.86,5.86,0,0,0,1.42-3.79h-6.51v-1.55h6.49a5.64,5.64,0,0,0-1.42-3.62,4.56,4.56,0,0,0-3.52-1.4,8,8,0,0,0-1.89.19,6.38,6.38,0,0,0-1.42.53l-.65-1.34a7.24,7.24,0,0,1,1.9-.7,8.74,8.74,0,0,1,2-.23,6.4,6.4,0,0,1,5,2,7.73,7.73,0,0,1,1.9,5.4,7.94,7.94,0,0,1-1.9,5.49,6.31,6.31,0,0,1-5,2,7.35,7.35,0,0,1-2-.24A7.67,7.67,0,0,1,1228.2,611Z" transform="translate(-181.74 -150.87)"/><path class="cls-3" d="M1252.66,611.76h-1.78V599.07h-5.68v4.83a25.55,25.55,0,0,1-.32,4.79,4.67,4.67,0,0,1-1.12,2.47,2.66,2.66,0,0,1-1,.68,3.78,3.78,0,0,1-1.33.21h-.53l-.47-.1.3-1.51h.61a2.24,2.24,0,0,0,.68-.1,1.6,1.6,0,0,0,.55-.38,3.63,3.63,0,0,0,.74-1.89,31.19,31.19,0,0,0,.23-4.32v-6.17h9Z" transform="translate(-181.74 -150.87)"/><path class="cls-3" d="M1268.36,604.91h-10.28a6,6,0,0,0,1.36,4.24,4.74,4.74,0,0,0,3.55,1.38,6.74,6.74,0,0,0,4-1.34l.89,1.27a9.56,9.56,0,0,1-2.4,1.23,9.68,9.68,0,0,1-2.67.38,6.32,6.32,0,0,1-4.74-1.9,7.7,7.7,0,0,1-1.89-5.57,8,8,0,0,1,1.89-5.37,5.84,5.84,0,0,1,4.68-2.13,5.11,5.11,0,0,1,4.19,1.9,7.77,7.77,0,0,1,1.47,5Zm-1.89-1.52a5.45,5.45,0,0,0-1.06-3.44,3.51,3.51,0,0,0-2.82-1.24,4.16,4.16,0,0,0-3,1.24,5.65,5.65,0,0,0-1.48,3.44Z" transform="translate(-181.74 -150.87)"/><path class="cls-3" d="M1273.61,611.76h-1.78V597.54h1.78v6.61h0l6.23-6.61h2.31l-6.66,6.87,7.19,7.35h-2.52l-6.49-6.85h0Z" transform="translate(-181.74 -150.87)"/><path class="cls-3" d="M1289.22,611.76h-1.78V599.09h-4.38v-1.55h10.53v1.55h-4.37Z" transform="translate(-181.74 -150.87)"/><path class="cls-3" d="M1298,609.47h0v8.83h-1.78V597.46H1298v2.71h0a5.63,5.63,0,0,1,2.14-2.27,5.74,5.74,0,0,1,3-.8,5.22,5.22,0,0,1,4.24,1.9,7.82,7.82,0,0,1,1.53,5.09,8.77,8.77,0,0,1-1.74,5.68,5.68,5.68,0,0,1-4.66,2.18,5,5,0,0,1-4.51-2.48Zm0-5.51v1.89a4.84,4.84,0,0,0,1.25,3.34,4.16,4.16,0,0,0,3.22,1.38,4,4,0,0,0,3.39-1.72,7.72,7.72,0,0,0,1.29-4.66,6.22,6.22,0,0,0-1.17-4,3.83,3.83,0,0,0-3.17-1.46,4.39,4.39,0,0,0-3.52,1.52A5.66,5.66,0,0,0,1298,604Z" transform="translate(-181.74 -150.87)"/><path class="cls-3" d="M1318.38,612.08a6.33,6.33,0,0,1-5-2,7.61,7.61,0,0,1-1.89-5.29,7.69,7.69,0,0,1,1.89-5.56,6.8,6.8,0,0,1,5.13-2,6.18,6.18,0,0,1,4.89,2,7.88,7.88,0,0,1,1.78,5.45,7.71,7.71,0,0,1-1.89,5.42A6.47,6.47,0,0,1,1318.38,612.08Zm0-1.53a4.5,4.5,0,0,0,3.68-1.55,8.07,8.07,0,0,0,0-8.73,4.52,4.52,0,0,0-3.66-1.54,4.75,4.75,0,0,0-3.79,1.59,6.47,6.47,0,0,0-1.38,4.42,6.31,6.31,0,0,0,1.36,4.24,4.76,4.76,0,0,0,3.79,1.61Z" transform="translate(-181.74 -150.87)"/><path class="cls-3" d="M1328.78,611.76V597.54h1.78v6.1h7.82v-6.1h1.78v14.22h-1.78v-6.55h-7.82v6.55Z" transform="translate(-181.74 -150.87)"/><path class="cls-3" d="M1354.69,611.76h-1.78v-2.55h0a5.37,5.37,0,0,1-1.9,2.14,5,5,0,0,1-2.71.73,4.45,4.45,0,0,1-3.22-1.15,3.9,3.9,0,0,1-1.21-3,4,4,0,0,1,1.21-3,6.79,6.79,0,0,1,3.79-1.53l4.11-.59v-.39a4.2,4.2,0,0,0-.91-2.83,3.18,3.18,0,0,0-2.38-.89,6.1,6.1,0,0,0-2.24.42,5.89,5.89,0,0,0-1.89,1.31l-1.08-1.1a7.17,7.17,0,0,1,5.34-2.18,4.87,4.87,0,0,1,3.79,1.34,5.74,5.74,0,0,1,1.27,4Zm-1.78-6v-1.4l-3.79.53a5.7,5.7,0,0,0-2.75,1,2.38,2.38,0,0,0-.83,2,2.57,2.57,0,0,0,.78,2,2.89,2.89,0,0,0,2.08.76,4.06,4.06,0,0,0,3.18-1.37A5.07,5.07,0,0,0,1352.91,605.72Z" transform="translate(-181.74 -150.87)"/><path class="cls-3" d="M954,643l.8-1.47a9.59,9.59,0,0,0,2.14.83,11,11,0,0,0,2.5.24,7.09,7.09,0,0,0,5.38-2.1,8.46,8.46,0,0,0,2.19-5.68h-9.29v-1.68H967a8.54,8.54,0,0,0-2.28-5.69,7,7,0,0,0-5.28-2.1,12.56,12.56,0,0,0-4.62.87l-.63-1.59a17.06,17.06,0,0,1,2.62-.76,15.85,15.85,0,0,1,2.67-.2,9,9,0,0,1,6.93,2.84,10.55,10.55,0,0,1,2.56,7.4,10.68,10.68,0,0,1-2.6,7.58,9,9,0,0,1-6.93,2.8,15,15,0,0,1-2.75-.26A11.41,11.41,0,0,1,954,643Z" transform="translate(-181.74 -150.87)"/><path class="cls-3" d="M982.68,644h-1.76V631.27h-5.69v4.83a24.8,24.8,0,0,1-.34,4.79,4.68,4.68,0,0,1-1.1,2.46,2.74,2.74,0,0,1-1,.68,3.73,3.73,0,0,1-1.32.21h-.55l-.48-.09.31-1.52h.6a2.36,2.36,0,0,0,.7-.09,1.75,1.75,0,0,0,.55-.38,3.66,3.66,0,0,0,.74-1.89,34.72,34.72,0,0,0,.21-4.32v-6.18h9.05Z" transform="translate(-181.74 -150.87)"/><path class="cls-3" d="M998.32,637.1H988.09a6,6,0,0,0,1.37,4.24,4.78,4.78,0,0,0,3.56,1.39,6.63,6.63,0,0,0,4-1.35l.89,1.27a8.82,8.82,0,0,1-2.38,1.23,9,9,0,0,1-2.67.38,6.33,6.33,0,0,1-4.74-1.89,7.63,7.63,0,0,1-1.89-5.57,8,8,0,0,1,1.8-5.38,5.78,5.78,0,0,1,4.68-2.12,5.08,5.08,0,0,1,4.18,1.89,7.84,7.84,0,0,1,1.48,5Zm-1.89-1.51a5.55,5.55,0,0,0-1.08-3.45,3.48,3.48,0,0,0-2.81-1.23,4.16,4.16,0,0,0-3,1.23,5.73,5.73,0,0,0-1.47,3.45Z" transform="translate(-181.74 -150.87)"/><path class="cls-3" d="M1003.64,644h-1.78V629.74h1.78v6.6h0l6.23-6.6h2.31l-6.68,6.87,7.21,7.35h-2.53l-6.48-6.86h0Z" transform="translate(-181.74 -150.87)"/><path class="cls-3" d="M1019.15,644h-1.76V631.29h-4.3v-1.55h10.51v1.55h-4.45Z" transform="translate(-181.74 -150.87)"/><path class="cls-3" d="M1028,641.67h0v8.82h-1.78V629.66H1028v2.71h0a5.42,5.42,0,0,1,2.13-2.27,5.62,5.62,0,0,1,3-.8,5.21,5.21,0,0,1,4.26,1.89,7.83,7.83,0,0,1,1.53,5.1,8.85,8.85,0,0,1-1.74,5.68,5.71,5.71,0,0,1-4.68,2.18,4.86,4.86,0,0,1-4.49-2.62Zm0-5.51v1.89a4.85,4.85,0,0,0,1.24,3.33,4.15,4.15,0,0,0,3.14,1.4,4,4,0,0,0,3.39-1.72,7.7,7.7,0,0,0,1.27-4.66,6.06,6.06,0,0,0-1.18-4,3.76,3.76,0,0,0-3.16-1.45,4.42,4.42,0,0,0-3.52,1.51,5.63,5.63,0,0,0-1.23,3.68Z" transform="translate(-181.74 -150.87)"/><path class="cls-3" d="M1048.36,644.28a6.33,6.33,0,0,1-5-2,7.53,7.53,0,0,1-1.9-5.28,7.79,7.79,0,0,1,1.9-5.57,6.86,6.86,0,0,1,5.15-2,6.2,6.2,0,0,1,4.88,2,7.85,7.85,0,0,1,1.78,5.46,7.7,7.7,0,0,1-1.89,5.41A6.46,6.46,0,0,1,1048.36,644.28Zm.09-1.53a4.47,4.47,0,0,0,3.67-1.56,8,8,0,0,0,0-8.73,4.48,4.48,0,0,0-3.65-1.53,4.71,4.71,0,0,0-3.79,1.59,6.45,6.45,0,0,0-1.38,4.41,6.25,6.25,0,0,0,1.36,4.24,4.72,4.72,0,0,0,3.79,1.61Z" transform="translate(-181.74 -150.87)"/><path class="cls-3" d="M1058.81,644V629.74h1.78v6.09h7.8v-6.09h1.78V644h-1.78v-6.55h-7.8V644Z" transform="translate(-181.74 -150.87)"/><path class="cls-3" d="M1074.76,644V629.74h1.78v6.09h7.82v-6.09h1.78V644h-1.78v-6.55h-7.82V644Z" transform="translate(-181.74 -150.87)"/><path class="cls-3" d="M1096.57,644.28a6.36,6.36,0,0,1-5-2,7.57,7.57,0,0,1-1.89-5.28,7.82,7.82,0,0,1,1.89-5.57,6.89,6.89,0,0,1,5.15-2,6.21,6.21,0,0,1,4.89,2,7.85,7.85,0,0,1,1.78,5.46,7.75,7.75,0,0,1-1.89,5.41A6.47,6.47,0,0,1,1096.57,644.28Zm0-1.53a4.51,4.51,0,0,0,3.68-1.56,8.07,8.07,0,0,0,0-8.73,4.52,4.52,0,0,0-3.66-1.53,4.72,4.72,0,0,0-3.79,1.59,6.5,6.5,0,0,0-1.38,4.41,6.25,6.25,0,0,0,1.37,4.24,4.7,4.7,0,0,0,3.88,1.61Z" transform="translate(-181.74 -150.87)"/><path class="cls-3" d="M1118.18,637.1h-10.3a6,6,0,0,0,1.36,4.24,4.81,4.81,0,0,0,3.56,1.39,7.21,7.21,0,0,0,2-.32,6.81,6.81,0,0,0,1.89-1l.89,1.27a8.05,8.05,0,0,1-5.07,1.61,6.38,6.38,0,0,1-4.74-1.89,7.63,7.63,0,0,1-1.89-5.57,8,8,0,0,1,1.89-5.38,5.83,5.83,0,0,1,4.66-2.12,5.06,5.06,0,0,1,4.19,1.89,7.79,7.79,0,0,1,1.5,5Zm-1.89-1.51a5.49,5.49,0,0,0-1.08-3.45,3.5,3.5,0,0,0-2.82-1.23,4.09,4.09,0,0,0-3,1.23,5.85,5.85,0,0,0-1.5,3.45Z" transform="translate(-181.74 -150.87)"/><path class="cls-3" d="M1135.26,644.28a6.38,6.38,0,0,1-5-2,7.57,7.57,0,0,1-1.89-5.28,7.73,7.73,0,0,1,1.89-5.57,6.86,6.86,0,0,1,5.16-2,6.24,6.24,0,0,1,4.92,2,7.94,7.94,0,0,1,1.78,5.46,7.7,7.7,0,0,1-1.89,5.41A6.47,6.47,0,0,1,1135.26,644.28Zm.1-1.53a4.56,4.56,0,0,0,3.69-1.56,8,8,0,0,0,0-8.73,4.53,4.53,0,0,0-3.65-1.53,4.65,4.65,0,0,0-3.79,1.59,6.51,6.51,0,0,0-1.4,4.41,6.2,6.2,0,0,0,1.38,4.24,4.67,4.67,0,0,0,3.77,1.61Z" transform="translate(-181.74 -150.87)"/><path class="cls-3" d="M1156.61,622.79l.28,1.64a3.55,3.55,0,0,1-1.1.5,17.29,17.29,0,0,1-2.27.49,14.39,14.39,0,0,0-3,.7,4.68,4.68,0,0,0-1.57,1,5.53,5.53,0,0,0-1.29,2.24,13.33,13.33,0,0,0-.61,3.39h0a5.45,5.45,0,0,1,2-1.9,6.12,6.12,0,0,1,3-.72,5.38,5.38,0,0,1,4.45,1.9,7.84,7.84,0,0,1,1.55,5.17,7.55,7.55,0,0,1-1.72,5.17,6,6,0,0,1-4.73,1.89,5.67,5.67,0,0,1-4.83-2.33,10.63,10.63,0,0,1-1.71-6.42,22.86,22.86,0,0,1,.65-6,8,8,0,0,1,1.89-3.54,6.11,6.11,0,0,1,2.23-1.42,18.17,18.17,0,0,1,3.22-.84c1.06-.19,1.9-.36,2.37-.49A4.53,4.53,0,0,0,1156.61,622.79Zm-9.47,11.89v1.72a7.66,7.66,0,0,0,1.27,4.53,4,4,0,0,0,3.5,1.89,4.09,4.09,0,0,0,3.33-1.49,6.24,6.24,0,0,0,1.22-4,6.43,6.43,0,0,0-1.2-4.15,4.06,4.06,0,0,0-3.35-1.47,4.74,4.74,0,0,0-2.82.83,6.09,6.09,0,0,0-2,2.16Z" transform="translate(-181.74 -150.87)"/><path class="cls-3" d="M1171.84,644h-1.79V631.27h-5.58v4.83a25.62,25.62,0,0,1-.34,4.79,4.79,4.79,0,0,1-1.12,2.46,2.62,2.62,0,0,1-1,.68,3.78,3.78,0,0,1-1.33.21h-.53l-.47-.09.3-1.52h.61a2.59,2.59,0,0,0,.68-.09,1.87,1.87,0,0,0,.55-.38,3.65,3.65,0,0,0,.73-1.89,29.79,29.79,0,0,0,.23-4.32v-6.18h9Z" transform="translate(-181.74 -150.87)"/><path class="cls-3" d="M1186.34,644h-1.78V641.4h0a5.42,5.42,0,0,1-1.89,2.14,5.1,5.1,0,0,1-2.71.74,4.42,4.42,0,0,1-3.22-1.15,3.89,3.89,0,0,1-1.21-3,4,4,0,0,1,1.21-3,6.69,6.69,0,0,1,3.79-1.53l4.11-.59v-.4a4.23,4.23,0,0,0-.91-2.82,3.17,3.17,0,0,0-2.39-.89,5.7,5.7,0,0,0-2.23.42,6.36,6.36,0,0,0-1.9,1.3l-1.06-1.1a7.53,7.53,0,0,1,2.45-1.64,7.71,7.71,0,0,1,2.89-.53,4.87,4.87,0,0,1,3.79,1.34,5.69,5.69,0,0,1,1.27,4Zm-1.78-6v-1.4l-3.79.53a5.83,5.83,0,0,0-2.76,1,2.48,2.48,0,0,0-.82,2,2.61,2.61,0,0,0,.78,2,2.87,2.87,0,0,0,2.08.75,4,4,0,0,0,3.19-1.36A5.09,5.09,0,0,0,1184.56,637.92Z" transform="translate(-181.74 -150.87)"/><path class="cls-3" d="M1192.44,644h-1.78V629.74h1.78v6.6h0l6.23-6.6H1201l-6.66,6.87,7.19,7.35h-2.42l-6.59-6.86h0Z" transform="translate(-181.74 -150.87)"/><path class="cls-3" d="M1209.16,644.28a6.38,6.38,0,0,1-5-2,7.57,7.57,0,0,1-1.89-5.28,7.73,7.73,0,0,1,1.89-5.57,6.85,6.85,0,0,1,5.15-2,6.26,6.26,0,0,1,4.89,2,7.94,7.94,0,0,1,1.78,5.46,7.7,7.7,0,0,1-1.89,5.41A6.49,6.49,0,0,1,1209.16,644.28Zm0-1.53a4.55,4.55,0,0,0,3.79-1.56,8,8,0,0,0,0-8.73,4.54,4.54,0,0,0-3.65-1.53,4.71,4.71,0,0,0-3.79,1.59,6.57,6.57,0,0,0-1.38,4.41,6.15,6.15,0,0,0,1.38,4.24,4.68,4.68,0,0,0,3.75,1.61Z" transform="translate(-181.74 -150.87)"/><rect class="cls-3" x="703.67" y="466.69" width="478.01" height="1.61"/><path class="cls-4" d="M630.82,527.15h-2.47v-11h-3.81a3.62,3.62,0,0,0-2.46,1,7.74,7.74,0,0,0-1.93,2.7l-3.33,7.4H614l3.9-8.14a8.6,8.6,0,0,1,1.44-2.18,4.69,4.69,0,0,1,1.77-1.28h0a7.21,7.21,0,0,1-4.39-2.32,7.65,7.65,0,0,1,.69-10.05,9.44,9.44,0,0,1,6.32-1.9h7.09ZM628.35,514V503.4h-4.47a7,7,0,0,0-4.59,1.33,5.51,5.51,0,0,0,0,7.79l0,0A7,7,0,0,0,624,514Z" transform="translate(-181.74 -150.87)"/><path class="cls-4" d="M634.81,532.09v-7h1.73a15.64,15.64,0,0,0,2-5.24,34.05,34.05,0,0,0,.69-7.4v-3.85h11.13v16.51h2.79v7h-2v-4.94H636.84v4.94Zm13.21-7V510.61h-6.61v2a38.06,38.06,0,0,1-.62,7.14A18,18,0,0,1,639,525.1Z" transform="translate(-181.74 -150.87)"/><path class="cls-4" d="M659.48,524.23h0v11.53h-2.32V508.61h2.32v3.72h0a7.36,7.36,0,0,1,6.67-4,6.72,6.72,0,0,1,5.55,2.47,10.2,10.2,0,0,1,2,6.64,11.65,11.65,0,0,1-2.27,7.41,7.44,7.44,0,0,1-6.1,2.84,7,7,0,0,1-3.41-.84A6.56,6.56,0,0,1,659.48,524.23Zm0-7.18v2.47a6.34,6.34,0,0,0,1.6,4.34,5.52,5.52,0,0,0,4.23,1.81,5.29,5.29,0,0,0,4.42-2.25,10,10,0,0,0,1.65-6.07,8,8,0,0,0-1.53-5.19,5,5,0,0,0-4.1-1.9,5.65,5.65,0,0,0-4.59,2,7.12,7.12,0,0,0-1.75,4.81Z" transform="translate(-181.74 -150.87)"/><path class="cls-4" d="M686,527.67a8.45,8.45,0,0,1-6.52-2.65,9.88,9.88,0,0,1-2.47-6.88,10.14,10.14,0,0,1,2.47-7.26,9,9,0,0,1,6.72-2.64,8.07,8.07,0,0,1,6.37,2.59,11.78,11.78,0,0,1,0,14.17A8.46,8.46,0,0,1,686,527.67Zm.12-2a5.9,5.9,0,0,0,4.79-2,10.48,10.48,0,0,0,0-11.38,5.87,5.87,0,0,0-4.76-2,6.14,6.14,0,0,0-4.94,2.07,8.43,8.43,0,0,0-1.8,5.76,8.11,8.11,0,0,0,1.78,5.5,6.11,6.11,0,0,0,4.93,2.08Z" transform="translate(-181.74 -150.87)"/><path class="cls-4" d="M707,533.12h-2.23a22.15,22.15,0,0,1-4.17-7.13,28,28,0,0,1,0-17.46,21.57,21.57,0,0,1,4.2-7.26H707a23.65,23.65,0,0,0-4.27,7.41,27,27,0,0,0,0,17.13A23.79,23.79,0,0,0,707,533.12Z" transform="translate(-181.74 -150.87)"/><path class="cls-4" d="M722.93,527.15V510.66h-10.2v16.49h-2.32V508.61h14.82v18.54Z" transform="translate(-181.74 -150.87)"/><path class="cls-4" d="M733.62,524.23h0v11.53h-2.29V508.61h2.29v3.72h0a7.41,7.41,0,0,1,6.69-4,6.74,6.74,0,0,1,5.56,2.47,10.2,10.2,0,0,1,2,6.64,11.65,11.65,0,0,1-2.27,7.41,7.46,7.46,0,0,1-6.1,2.84,7.05,7.05,0,0,1-3.43-.84A6.86,6.86,0,0,1,733.62,524.23Zm0-7.18v2.47a6.26,6.26,0,0,0,1.63,4.34,5.51,5.51,0,0,0,4.22,1.81,5.28,5.28,0,0,0,4.42-2.25,10,10,0,0,0,1.66-6.07,8.08,8.08,0,0,0-1.53-5.19,5,5,0,0,0-4.13-1.9,5.65,5.65,0,0,0-4.59,2,7.36,7.36,0,0,0-1.75,4.81Z" transform="translate(-181.74 -150.87)"/><path class="cls-4" d="M760.11,527.67a8.39,8.39,0,0,1-6.49-2.65,11.35,11.35,0,0,1,0-14.14,8.88,8.88,0,0,1,6.71-2.64,8.13,8.13,0,0,1,6.37,2.59,10.3,10.3,0,0,1,2.33,7.11,10.09,10.09,0,0,1-2.47,7.06A8.43,8.43,0,0,1,760.11,527.67Zm.13-2a6,6,0,0,0,4.81-2,10.48,10.48,0,0,0,0-11.38,5.91,5.91,0,0,0-4.76-2,6.09,6.09,0,0,0-4.94,2.07,8.45,8.45,0,0,0-1.83,5.76,8,8,0,0,0,1.8,5.5,6.11,6.11,0,0,0,4.92,2.08Z" transform="translate(-181.74 -150.87)"/><path class="cls-4" d="M778.48,527.15h-2.32V510.66h-5.7v-2.05h13.72v2.05h-5.7Z" transform="translate(-181.74 -150.87)"/><path class="cls-4" d="M794.48,527.67A8.33,8.33,0,0,1,788,525a11.35,11.35,0,0,1,0-14.14,8.82,8.82,0,0,1,6.69-2.64,8.11,8.11,0,0,1,6.39,2.59,10.29,10.29,0,0,1,2.3,7.11A10,10,0,0,1,800.9,525,8.47,8.47,0,0,1,794.48,527.67Zm.12-2a5.9,5.9,0,0,0,4.79-2,10.32,10.32,0,0,0,0-11.38,5.82,5.82,0,0,0-4.74-2,6.16,6.16,0,0,0-4.93,2.07,8.49,8.49,0,0,0-1.81,5.76,8,8,0,0,0,1.81,5.5A6,6,0,0,0,794.6,525.67Z" transform="translate(-181.74 -150.87)"/><path class="cls-4" d="M808.11,527.15V508.61h2.34v8h10.2v-8H823v18.54h-2.32v-8.54h-10.2v8.54Z" transform="translate(-181.74 -150.87)"/><path class="cls-4" d="M828.6,533.12h-2.2a24.15,24.15,0,0,0,4.2-7.4,25.07,25.07,0,0,0,1.41-8.45,26,26,0,0,0-1.41-8.69,24,24,0,0,0-4.25-7.41h2.23a22.36,22.36,0,0,1,4.19,7.26,26.43,26.43,0,0,1,1.39,8.82,25.64,25.64,0,0,1-1.39,8.64A22.07,22.07,0,0,1,828.6,533.12Z" transform="translate(-181.74 -150.87)"/><rect class="cls-4" x="389.13" y="388.08" width="273.46" height="2.1"/></svg>