<svg id="Слой_1" data-name="Слой 1" xmlns="http://www.w3.org/2000/svg" xmlns:xlink="http://www.w3.org/1999/xlink" viewBox="0 0 820 572.9"><defs><style>.cls-1,.cls-12,.cls-13{fill:none;}.cls-15,.cls-2,.cls-3,.cls-5,.cls-9{isolation:isolate;}.cls-3{font-size:25.2px;font-family:Georgia;}.cls-3,.cls-4,.cls-5,.cls-6,.cls-8{fill:#fff;}.cls-4{stroke:#999;}.cls-5{font-size:16.2px;}.cls-15,.cls-17,.cls-5,.cls-9{font-family:ArialMT, Arial;}.cls-12,.cls-6{stroke:#ddd;}.cls-6{stroke-dasharray:3 2;}.cls-7{clip-path:url(#clip-path);}.cls-11,.cls-8{fill-opacity:0;}.cls-9{font-size:13.5px;}.cls-14,.cls-9{fill:#b13507;}.cls-10{letter-spacing:-0.02em;}.cls-12,.cls-13{stroke-linecap:round;stroke-linejoin:round;}.cls-13{stroke:#b13507;stroke-width:1.5px;}.cls-15,.cls-17{font-size:12.6px;fill:#777;}.cls-16{letter-spacing:-0.02em;}.cls-18{letter-spacing:-0.02em;}</style><clipPath id="clip-path" transform="translate(-15 -13.83)"><rect class="cls-1" x="72.37" y="58" width="840" height="471.1"/></clipPath></defs><g class="cls-2"><text class="cls-3" transform="translate(0 21.33)">Life expectancy, 1770 to 2015</text></g><line class="cls-4" x1="67.4" y1="484.07" x2="67.4" y2="489.07"/><line class="cls-4" x1="749.8" y1="484.07" x2="749.8" y2="489.07"/><line class="cls-4" x1="150.9" y1="484.07" x2="150.9" y2="489.07"/><line class="cls-4" x1="290.2" y1="484.07" x2="290.2" y2="489.07"/><line class="cls-4" x1="429.5" y1="484.07" x2="429.5" y2="489.07"/><line class="cls-4" x1="568.7" y1="484.07" x2="568.7" y2="489.07"/><text class="cls-5" transform="translate(67.37 505.27)">1770</text><text class="cls-5" transform="translate(713.73 505.27)">2015</text><text class="cls-5" transform="translate(132.88 505.27)">1800</text><text class="cls-5" transform="translate(272.18 505.27)">1850</text><text class="cls-5" transform="translate(411.48 505.27)">1900</text><text class="cls-5" transform="translate(550.68 505.27)">1950</text><text class="cls-5" transform="translate(0.24 474.35)">30 years</text><text class="cls-5" transform="translate(0.24 374.75)">40 years</text><text class="cls-5" transform="translate(0.24 275.15)">50 years</text><text class="cls-5" transform="translate(0.24 175.45)">60 years</text><text class="cls-5" transform="translate(0.24 75.85)">70 years</text><line class="cls-6" x1="67.37" y1="469.17" x2="749.76" y2="469.17"/><line class="cls-6" x1="67.37" y1="369.57" x2="749.76" y2="369.57"/><line class="cls-6" x1="67.37" y1="269.97" x2="749.76" y2="269.97"/><line class="cls-6" x1="67.37" y1="170.27" x2="749.76" y2="170.27"/><line class="cls-6" x1="67.37" y1="70.67" x2="749.76" y2="70.67"/><g class="cls-7"><rect class="cls-8" x="749.77" y="54.17" width="70.23" height="13.5"/><g class="cls-2"><text class="cls-9" transform="translate(753.77 64.97)"><tspan class="cls-10">W</tspan><tspan x="12.5" y="0">orld</tspan></text></g><rect class="cls-11" x="67" y="54.17" width="682" height="430"/><path class="cls-12" d="M82.4,495.9l83.5,2,55.7-5,83.6-3,55.7-4L444.5,463l36.2-20.9,103-115.8,2.8-3.4,2.8-6.4,2.8-5.8,2.8-5.2,2.7-4.7,2.8-4.1,2.8-3.7,2.8-3.5,2.8-3.4,2.8-3.7,2.8-4.4,2.7-5.2,2.8-6.2,2.8-7.3,2.8-7.9,2.8-8.2,2.8-8.1,2.8-7.5,2.7-6.7,2.8-6,2.8-5.2,2.8-4.8,2.8-4.6,2.8-4.4,2.8-4.3,2.7-4.2,2.8-4.1,2.8-3.9,2.8-3.7,2.8-3.7,2.8-3.6,2.8-3.5,2.7-3.6,2.8-3.4,2.8-3.3,2.8-3,2.8-2.8,2.8-2.4,2.7-2,2.8-1.9,2.8-1.6,2.8-1.7,2.8-1.6,2.8-1.8,2.8-2,2.7-2.1,2.8-2.3,2.8-2.5,2.8-2.5,2.8-2.8,2.8-2.9,2.8-3.1,2.7-3.4,2.8-3.5,2.8-3.6,2.8-3.9,2.8-4,2.8-4,2.8-4,2.7-4,2.8-3.8,2.8-3.7,2.8-3.5L762,71l2.8-3" transform="translate(-15 -13.83)"/><path class="cls-13" d="M82.4,495.9l83.5,2,55.7-5,83.6-3,55.7-4L444.5,463l36.2-20.9,103-115.8,2.8-3.4,2.8-6.4,2.8-5.8,2.8-5.2,2.7-4.7,2.8-4.1,2.8-3.7,2.8-3.5,2.8-3.4,2.8-3.7,2.8-4.4,2.7-5.2,2.8-6.2,2.8-7.3,2.8-7.9,2.8-8.2,2.8-8.1,2.8-7.5,2.7-6.7,2.8-6,2.8-5.2,2.8-4.8,2.8-4.6,2.8-4.4,2.8-4.3,2.7-4.2,2.8-4.1,2.8-3.9,2.8-3.7,2.8-3.7,2.8-3.6,2.8-3.5,2.7-3.6,2.8-3.4,2.8-3.3,2.8-3,2.8-2.8,2.8-2.4,2.7-2,2.8-1.9,2.8-1.6,2.8-1.7,2.8-1.6,2.8-1.8,2.8-2,2.7-2.1,2.8-2.3,2.8-2.5,2.8-2.5,2.8-2.8,2.8-2.9,2.8-3.1,2.7-3.4,2.8-3.5,2.8-3.6,2.8-3.9,2.8-4,2.8-4,2.8-4,2.7-4,2.8-3.8,2.8-3.7,2.8-3.5L762,71l2.8-3" transform="translate(-15 -13.83)"/><circle class="cls-14" cx="67.4" cy="482.07" r="2"/><circle class="cls-14" cx="150.9" cy="484.07" r="2"/><circle class="cls-14" cx="206.6" cy="479.07" r="2"/><circle class="cls-14" cx="290.2" cy="476.07" r="2"/><circle class="cls-14" cx="345.9" cy="472.07" r="2"/><circle class="cls-14" cx="429.5" cy="449.17" r="2"/><circle class="cls-14" cx="465.7" cy="428.27" r="2"/><circle class="cls-14" cx="568.7" cy="312.47" r="2"/><circle class="cls-14" cx="571.5" cy="309.07" r="2"/><circle class="cls-14" cx="574.3" cy="302.67" r="2"/><circle class="cls-14" cx="577.1" cy="296.87" r="2"/><circle class="cls-14" cx="579.9" cy="291.67" r="2"/><circle class="cls-14" cx="582.6" cy="286.97" r="2"/><circle class="cls-14" cx="585.4" cy="282.87" r="2"/><circle class="cls-14" cx="588.2" cy="279.17" r="2"/><circle class="cls-14" cx="591" cy="275.67" r="2"/><circle class="cls-14" cx="593.8" cy="272.27" r="2"/><circle class="cls-14" cx="596.6" cy="268.57" r="2"/><circle class="cls-14" cx="599.4" cy="264.17" r="2"/><circle class="cls-14" cx="602.1" cy="258.97" r="2"/><circle class="cls-14" cx="604.9" cy="252.77" r="2"/><circle class="cls-14" cx="607.7" cy="245.47" r="2"/><circle class="cls-14" cx="610.5" cy="237.57" r="2"/><circle class="cls-14" cx="613.3" cy="229.37" r="2"/><circle class="cls-14" cx="616.1" cy="221.27" r="2"/><circle class="cls-14" cx="618.9" cy="213.77" r="2"/><circle class="cls-14" cx="621.6" cy="207.07" r="2"/><circle class="cls-14" cx="624.4" cy="201.07" r="2"/><circle class="cls-14" cx="627.2" cy="195.87" r="2"/><circle class="cls-14" cx="630" cy="191.07" r="2"/><circle class="cls-14" cx="632.8" cy="186.47" r="2"/><circle class="cls-14" cx="635.6" cy="182.07" r="2"/><circle class="cls-14" cx="638.4" cy="177.77" r="2"/><circle class="cls-14" cx="641.1" cy="173.57" r="2"/><circle class="cls-14" cx="643.9" cy="169.47" r="2"/><circle class="cls-14" cx="646.7" cy="165.57" r="2"/><circle class="cls-14" cx="649.5" cy="161.87" r="2"/><circle class="cls-14" cx="652.3" cy="158.17" r="2"/><circle class="cls-14" cx="655.1" cy="154.57" r="2"/><circle class="cls-14" cx="657.9" cy="151.07" r="2"/><circle class="cls-14" cx="660.6" cy="147.47" r="2"/><circle class="cls-14" cx="663.4" cy="144.07" r="2"/><circle class="cls-14" cx="666.2" cy="140.77" r="2"/><circle class="cls-14" cx="669" cy="137.77" r="2"/><circle class="cls-14" cx="671.8" cy="134.97" r="2"/><circle class="cls-14" cx="674.6" cy="132.57" r="2"/><circle class="cls-14" cx="677.3" cy="130.57" r="2"/><circle class="cls-14" cx="680.1" cy="128.67" r="2"/><circle class="cls-14" cx="682.9" cy="127.07" r="2"/><circle class="cls-14" cx="685.7" cy="125.37" r="2"/><circle class="cls-14" cx="688.5" cy="123.77" r="2"/><circle class="cls-14" cx="691.3" cy="121.97" r="2"/><circle class="cls-14" cx="694.1" cy="119.97" r="2"/><circle class="cls-14" cx="696.8" cy="117.87" r="2"/><circle class="cls-14" cx="699.6" cy="115.57" r="2"/><circle class="cls-14" cx="702.4" cy="113.07" r="2"/><circle class="cls-14" cx="705.2" cy="110.57" r="2"/><circle class="cls-14" cx="708" cy="107.77" r="2"/><circle class="cls-14" cx="710.8" cy="104.87" r="2"/><circle class="cls-14" cx="713.6" cy="101.77" r="2"/><circle class="cls-14" cx="716.3" cy="98.37" r="2"/><circle class="cls-14" cx="719.1" cy="94.87" r="2"/><circle class="cls-14" cx="721.9" cy="91.27" r="2"/><circle class="cls-14" cx="724.7" cy="87.37" r="2"/><circle class="cls-14" cx="727.5" cy="83.37" r="2"/><circle class="cls-14" cx="730.3" cy="79.37" r="2"/><circle class="cls-14" cx="733.1" cy="75.37" r="2"/><circle class="cls-14" cx="735.8" cy="71.37" r="2"/><circle class="cls-14" cx="738.6" cy="67.57" r="2"/><circle class="cls-14" cx="741.4" cy="63.87" r="2"/><circle class="cls-14" cx="744.2" cy="60.37" r="2"/><circle class="cls-14" cx="747" cy="57.17" r="2"/><circle class="cls-14" cx="749.8" cy="54.17" r="2"/></g><g class="cls-2"><text class="cls-15" transform="translate(0 540.35)">Source: Riley (2005), Clio Infra (2015), and UN Population Division (2019)</text></g><g class="cls-2"><text class="cls-15" transform="translate(0 554.95)">Note: Shown is period life expectancy at birth, the average number of years a newborn would live if the pattern of mortality in the given year</text><text class="cls-15" transform="translate(0 568.81)">were to stay the same throughout its life.</text></g><g class="cls-2"><text class="cls-15" transform="translate(567.24 540.35)">Our<tspan class="cls-16" x="21" y="0">W</tspan><tspan x="32.67" y="0">orldInData.org/life-expectancy</tspan></text><text class="cls-17" transform="translate(767.3 540.35)"><tspan xml:space="preserve"> • </tspan></text><text class="cls-15" transform="translate(778.71 540.35)">CC B<tspan class="cls-18" x="30.1" y="0">Y</tspan></text></g><path class="cls-1" transform="translate(-15 -13.83)"/></svg>