<svg id="Слой_1" data-name="Слой 1" xmlns="http://www.w3.org/2000/svg" xmlns:xlink="http://www.w3.org/1999/xlink" viewBox="0 0 821 572.58"><defs><style>.cls-1,.cls-12,.cls-13{fill:none;}.cls-15,.cls-2,.cls-3,.cls-4,.cls-8{isolation:isolate;}.cls-3{font-size:21.6px;font-family:Georgia;}.cls-3,.cls-4,.cls-7,.cls-8,.cls-9{fill:#fff;}.cls-4{font-size:14.4px;}.cls-15,.cls-17,.cls-4,.cls-8{font-family:ArialMT, Arial;}.cls-5{letter-spacing:-0.06em;}.cls-6{letter-spacing:0em;}.cls-7{stroke:#999;}.cls-8{font-size:16.2px;}.cls-12,.cls-9{stroke:#ddd;}.cls-9{stroke-dasharray:3 2;}.cls-10{clip-path:url(#clip-path);}.cls-11{fill-opacity:0;}.cls-12,.cls-13{stroke-linecap:round;stroke-linejoin:round;}.cls-13{stroke:#3c4e66;stroke-width:1.5px;}.cls-14{fill:#3c4e66;}.cls-15,.cls-17{font-size:12.6px;fill:#777;}.cls-16{letter-spacing:-0.02em;}.cls-18{letter-spacing:-0.02em;}</style><clipPath id="clip-path" transform="translate(-15 -14)"><rect class="cls-1" x="87.6" y="63" width="840" height="494.4"/></clipPath></defs><path class="cls-1" transform="translate(-15 -14)"/><g class="cls-2"><text class="cls-3" transform="translate(0 18.28)">Number of human genome base pairs sequenced per US$, 2001 to 2021</text></g><g class="cls-2"><text class="cls-4" transform="translate(0 38.12)">The number of human genome DN<tspan class="cls-5" x="222.52" y="0">A</tspan><tspan class="cls-6" x="231.33" y="0" xml:space="preserve"> base pairs which can be sequenced for one US$.</tspan></text></g><line class="cls-7" x1="82.6" y1="512.2" x2="82.6" y2="517.2"/><line class="cls-7" x1="819" y1="512.2" x2="819" y2="517.2"/><line class="cls-7" x1="229.9" y1="512.2" x2="229.9" y2="517.2"/><line class="cls-7" x1="414" y1="512.2" x2="414" y2="517.2"/><line class="cls-7" x1="598.1" y1="512.2" x2="598.1" y2="517.2"/><text class="cls-8" transform="translate(82.6 533.4)">2001</text><text class="cls-8" transform="translate(782.96 533.4)">2021</text><text class="cls-8" transform="translate(211.88 533.4)">2005</text><text class="cls-8" transform="translate(395.98 533.4)">2010</text><text class="cls-8" transform="translate(580.08 533.4)">2015</text><text class="cls-8" transform="translate(68.59 517.39)">0</text><text class="cls-8" transform="translate(9.17 403.09)">50 million</text><text class="cls-8" transform="translate(0.16 288.79)">100 million</text><text class="cls-8" transform="translate(0.16 174.39)">150 million</text><line class="cls-7" x1="82.6" y1="512.2" x2="819" y2="512.2"/><line class="cls-9" x1="82.6" y1="397.9" x2="819" y2="397.9"/><line class="cls-9" x1="82.6" y1="283.6" x2="819" y2="283.6"/><line class="cls-9" x1="82.6" y1="169.2" x2="819" y2="169.2"/><g class="cls-10"><rect class="cls-11" x="83" y="59" width="736" height="453"/><path class="cls-12" d="M97.6,526.2H318.5l36.8-.6,36.9-2.3,36.8-4.2,36.8-19.5,36.8-8.3,36.8-5.5,36.9-10.9L613.1,361l36.8-9.8,36.8-27.7,36.8,35.7,36.9-172.4,36.8-62.5L834,73" transform="translate(-15 -14)"/><path class="cls-13" d="M97.6,526.2H318.5l36.8-.6,36.9-2.3,36.8-4.2,36.8-19.5,36.8-8.3,36.8-5.5,36.9-10.9L613.1,361l36.8-9.8,36.8-27.7,36.8,35.7,36.9-172.4,36.8-62.5L834,73" transform="translate(-15 -14)"/><circle class="cls-14" cx="82.6" cy="512.2" r="2"/><circle class="cls-14" cx="119.4" cy="512.2" r="2"/><circle class="cls-14" cx="156.2" cy="512.2" r="2"/><circle class="cls-14" cx="193.1" cy="512.2" r="2"/><circle class="cls-14" cx="229.9" cy="512.2" r="2"/><circle class="cls-14" cx="266.7" cy="512.2" r="2"/><circle class="cls-14" cx="303.5" cy="512.2" r="2"/><circle class="cls-14" cx="340.3" cy="511.6" r="2"/><circle class="cls-14" cx="377.2" cy="509.3" r="2"/><circle class="cls-14" cx="414" cy="505.1" r="2"/><circle class="cls-14" cx="450.8" cy="485.6" r="2"/><circle class="cls-14" cx="487.6" cy="477.3" r="2"/><circle class="cls-14" cx="524.4" cy="471.8" r="2"/><circle class="cls-14" cx="561.3" cy="460.9" r="2"/><circle class="cls-14" cx="598.1" cy="347" r="2"/><circle class="cls-14" cx="634.9" cy="337.2" r="2"/><circle class="cls-14" cx="671.7" cy="309.5" r="2"/><circle class="cls-14" cx="708.5" cy="345.2" r="2"/><circle class="cls-14" cx="745.4" cy="172.8" r="2"/><circle class="cls-14" cx="782.2" cy="110.3" r="2"/><circle class="cls-14" cx="819" cy="59" r="2"/></g><g class="cls-2"><text class="cls-15" transform="translate(0 568.48)">Source: NHGRI Genome Sequencing Program (GSP)</text></g><g class="cls-2"><text class="cls-15" transform="translate(520.88 568.48)">Our<tspan class="cls-16" x="21" y="0">W</tspan><tspan x="32.67" y="0">orldInData.org/technological-progress/</tspan></text><text class="cls-17" transform="translate(767.16 568.48)"><tspan xml:space="preserve"> • </tspan></text><text class="cls-15" transform="translate(778.57 568.48)">CC B<tspan class="cls-18" x="30.1" y="0">Y</tspan></text></g><path class="cls-1" transform="translate(-15 -14)"/></svg>