<svg id="Слой_1" data-name="Слой 1" xmlns="http://www.w3.org/2000/svg" viewBox="0 0 1813.78 982.4"><defs><style>.cls-1,.cls-24,.cls-9{isolation:isolate;}.cls-1{font-size:36px;}.cls-1,.cls-24{fill:#fff;font-family:Montserrat-Bold, Montserrat;font-weight:700;}.cls-2{letter-spacing:-0.01em;}.cls-3{letter-spacing:-0.02em;}.cls-4{letter-spacing:-0.01em;}.cls-5{letter-spacing:0em;}.cls-6{letter-spacing:0em;}.cls-7{letter-spacing:0.01em;}.cls-8{letter-spacing:-0.02em;}.cls-10{letter-spacing:-0.01em;}.cls-11{letter-spacing:-0.01em;}.cls-12{letter-spacing:0.01em;}.cls-13{letter-spacing:0.01em;}.cls-14{letter-spacing:-0.02em;}.cls-15{letter-spacing:0em;}.cls-16{letter-spacing:-0.02em;}.cls-17{letter-spacing:0.01em;}.cls-18{letter-spacing:-0.02em;}.cls-19{letter-spacing:0.01em;}.cls-20{letter-spacing:0em;}.cls-21{letter-spacing:0em;}.cls-22{letter-spacing:-0.01em;}.cls-23{letter-spacing:-0.01em;}.cls-24{font-size:64px;}.cls-25{letter-spacing:0.01em;}.cls-26{letter-spacing:0.01em;}.cls-27{letter-spacing:-0.02em;}.cls-28{letter-spacing:0em;}.cls-29{letter-spacing:-0.01em;}.cls-30{letter-spacing:-0.01em;}.cls-31{letter-spacing:-0.01em;}.cls-32{letter-spacing:0.01em;}.cls-33{fill:none;stroke:#fff;stroke-width:5px;}</style></defs><g id="Bacteria"><text class="cls-1" transform="translate(629.05 231.4)">Chlo<tspan class="cls-2" x="85.68" y="0">r</tspan><tspan x="100.87" y="0">ofl</tspan><tspan class="cls-3" x="149.22" y="0">e</tspan><tspan x="171.4" y="0">xi</tspan></text><text class="cls-1" transform="translate(228.03 231.4)">Spi<tspan class="cls-4" x="58.64" y="0">r</tspan><tspan class="cls-5" x="73.84" y="0">o</tspan><tspan class="cls-6" x="97.42" y="0">c</tspan><tspan class="cls-7" x="118.55" y="0">h</tspan><tspan x="143.64" y="0">e</tspan><tspan class="cls-8" x="166.35" y="0">t</tspan><tspan x="181.4" y="0">es</tspan></text><g class="cls-9"><text class="cls-1" transform="translate(478.04 292.4)">G<tspan class="cls-10" x="27.76" y="0">r</tspan><tspan x="43.02" y="0">am-</tspan></text><text class="cls-1" transform="translate(453.03 332.4)">positi<tspan class="cls-3" x="104.87" y="0">v</tspan><tspan x="125.85" y="0">es</tspan></text></g><text class="cls-1" transform="translate(153.02 374.4)"><tspan class="cls-11">P</tspan><tspan class="cls-2" x="25.99" y="0">r</tspan><tspan x="41.18" y="0">o</tspan><tspan class="cls-8" x="64.76" y="0">t</tspan><tspan x="79.81" y="0">eo</tspan><tspan class="cls-2" x="126.11" y="0">b</tspan><tspan class="cls-12" x="150.62" y="0">a</tspan><tspan class="cls-13" x="173.05" y="0">c</tspan><tspan class="cls-14" x="194.62" y="0">t</tspan><tspan x="209.66" y="0">e</tspan><tspan class="cls-15" x="232.38" y="0">r</tspan><tspan x="247.75" y="0">ia</tspan></text><text class="cls-1" transform="translate(17.01 432.4)">C<tspan class="cls-16" x="26.39" y="0">y</tspan><tspan x="47.27" y="0">a</tspan><tspan class="cls-7" x="69.48" y="0">n</tspan><tspan x="94.57" y="0">o</tspan><tspan class="cls-4" x="118.15" y="0">b</tspan><tspan class="cls-7" x="142.67" y="0">a</tspan><tspan class="cls-13" x="165.09" y="0">c</tspan><tspan class="cls-14" x="186.66" y="0">t</tspan><tspan x="201.71" y="0">e</tspan><tspan class="cls-15" x="224.42" y="0">r</tspan><tspan x="239.79" y="0">ia</tspan></text><text class="cls-1" transform="translate(0 501.4)">Pla<tspan class="cls-17" x="59.4" y="0">n</tspan><tspan class="cls-13" x="84.49" y="0">c</tspan><tspan class="cls-18" x="106.05" y="0">t</tspan><tspan class="cls-5" x="121.1" y="0">o</tspan><tspan class="cls-11" x="144.68" y="0">m</tspan><tspan class="cls-3" x="182.09" y="0">y</tspan><tspan class="cls-10" x="203.07" y="0">c</tspan><tspan x="224.1" y="0">es</tspan></text><g class="cls-9"><text class="cls-1" transform="translate(2.02 606.4)">B<tspan class="cls-7" x="27.54" y="0">a</tspan><tspan class="cls-13" x="49.97" y="0">c</tspan><tspan class="cls-18" x="71.53" y="0">t</tspan><tspan x="86.58" y="0">e</tspan><tspan class="cls-2" x="109.29" y="0">r</tspan><tspan x="124.49" y="0">oides</tspan></text><text class="cls-1" transform="translate(12.05 646.4)">C<tspan class="cls-19" x="26.39" y="0">y</tspan><tspan class="cls-8" x="48.46" y="0">t</tspan><tspan x="63.5" y="0">oph</tspan><tspan class="cls-12" x="136.8" y="0">a</tspan><tspan x="159.23" y="0">ga</tspan></text></g><text class="cls-1" transform="translate(3.06 728.4)">T<tspan class="cls-17" x="22.25" y="0">h</tspan><tspan class="cls-20" x="47.34" y="0">e</tspan><tspan class="cls-15" x="70.06" y="0">r</tspan><tspan class="cls-7" x="85.43" y="0">m</tspan><tspan x="123.41" y="0">o</tspan><tspan class="cls-8" x="146.99" y="0">t</tspan><tspan x="162.04" y="0">oga</tspan></text><text class="cls-1" transform="translate(9.05 808.4)"><tspan class="cls-21">A</tspan><tspan x="27.4" y="0">qui</tspan><tspan class="cls-10" x="87.8" y="0">f</tspan><tspan class="cls-3" x="101.48" y="0">e</tspan><tspan class="cls-20" x="123.66" y="0">x</tspan></text></g><g id="Archaea"><text class="cls-1" transform="translate(1064 346.4)">Hal<tspan class="cls-2" x="62.14" y="0">o</tspan><tspan class="cls-20" x="85.39" y="0">a</tspan><tspan class="cls-2" x="107.6" y="0">r</tspan><tspan class="cls-6" x="122.8" y="0">c</tspan><tspan class="cls-5" x="143.93" y="0">h</tspan><tspan class="cls-12" x="168.8" y="0">a</tspan><tspan class="cls-3" x="191.23" y="0">e</tspan><tspan x="213.41" y="0">a</tspan></text><text class="cls-1" transform="translate(802.02 294.4)">Metha<tspan class="cls-7" x="119.84" y="0">n</tspan><tspan class="cls-5" x="144.93" y="0">osa</tspan><tspan class="cls-2" x="209.84" y="0">r</tspan><tspan x="225.03" y="0">cina</tspan></text><text class="cls-1" transform="translate(673.04 338.4)">Metha<tspan class="cls-7" x="119.84" y="0">n</tspan><tspan class="cls-5" x="144.93" y="0">o</tspan><tspan class="cls-4" x="168.51" y="0">b</tspan><tspan class="cls-12" x="193.03" y="0">a</tspan><tspan class="cls-13" x="215.46" y="0">c</tspan><tspan class="cls-8" x="237.02" y="0">t</tspan><tspan x="252.07" y="0">e</tspan><tspan class="cls-15" x="274.79" y="0">r</tspan><tspan x="290.16" y="0">ium</tspan></text><text class="cls-1" transform="translate(687.03 391.4)">Metha<tspan class="cls-7" x="119.84" y="0">n</tspan><tspan class="cls-5" x="144.93" y="0">o</tspan><tspan class="cls-10" x="168.51" y="0">c</tspan><tspan x="189.54" y="0">o</tspan><tspan class="cls-10" x="213.12" y="0">c</tspan><tspan class="cls-20" x="234.14" y="0">cus</tspan></text><g class="cls-9"><text class="cls-1" transform="translate(665.02 441.4)">T<tspan class="cls-17" x="22.25" y="0">h</tspan><tspan class="cls-20" x="47.34" y="0">e</tspan><tspan class="cls-15" x="70.06" y="0">r</tspan><tspan class="cls-7" x="85.43" y="0">m</tspan><tspan x="123.41" y="0">o</tspan><tspan class="cls-10" x="146.99" y="0">c</tspan><tspan x="168.01" y="0">o</tspan><tspan class="cls-10" x="191.59" y="0">c</tspan><tspan x="212.62" y="0">cus</tspan></text><text class="cls-1" transform="translate(711.02 471.4)"><tspan class="cls-10">c</tspan><tspan x="21.02" y="0">eler</tspan></text></g><text class="cls-1" transform="translate(636.05 514.4)">T<tspan class="cls-17" x="22.25" y="0">h</tspan><tspan class="cls-20" x="47.34" y="0">e</tspan><tspan class="cls-15" x="70.06" y="0">r</tspan><tspan class="cls-7" x="85.43" y="0">m</tspan><tspan x="123.41" y="0">op</tspan><tspan class="cls-2" x="171.83" y="0">r</tspan><tspan x="187.02" y="0">o</tspan><tspan class="cls-8" x="210.6" y="0">t</tspan><tspan x="225.65" y="0">eus</tspan></text><text class="cls-1" transform="translate(627.03 554.4)"><tspan class="cls-6">P</tspan><tspan class="cls-5" x="26.21" y="0">y</tspan><tspan class="cls-4" x="47.74" y="0">r</tspan><tspan class="cls-5" x="62.93" y="0">odi</tspan><tspan class="cls-13" x="122.26" y="0">c</tspan><tspan x="143.82" y="0">ticum</tspan></text></g><g id="Eukaryota"><text class="cls-1" transform="translate(1036.03 227.4)">Enta<tspan class="cls-12" x="86.9" y="0">m</tspan><tspan x="124.88" y="0">oe</tspan><tspan class="cls-2" x="171.18" y="0">b</tspan><tspan class="cls-12" x="195.69" y="0">a</tspan><tspan x="218.12" y="0">e</tspan></text><g class="cls-9"><text class="cls-1" transform="translate(1325.04 213.4)">Sli<tspan class="cls-7" x="44.64" y="0">m</tspan><tspan class="cls-20" x="82.62" y="0">e</tspan></text><text class="cls-1" transform="translate(1320.05 253.4)"><tspan class="cls-7">m</tspan><tspan x="37.98" y="0">olds</tspan></text></g><text class="cls-1" transform="translate(1503.06 231.4)">Animals</text><text class="cls-1" transform="translate(1558.06 288.4)"><tspan class="cls-22">F</tspan><tspan x="22.5" y="0">u</tspan><tspan class="cls-7" x="47.23" y="0">n</tspan><tspan x="72.32" y="0">gi</tspan></text><text class="cls-1" transform="translate(1558.06 374.4)">Plants</text><text class="cls-1" transform="translate(1553.06 436.4)">Cilia<tspan class="cls-8" x="81.11" y="0">t</tspan><tspan class="cls-20" x="96.15" y="0">es</tspan></text><text class="cls-1" transform="translate(1548.06 524.4)">Fl<tspan class="cls-12" x="33.84" y="0">a</tspan><tspan x="56.27" y="0">gella</tspan><tspan class="cls-18" x="148.07" y="0">t</tspan><tspan x="163.11" y="0">es</tspan></text><text class="cls-1" transform="translate(1543.06 610.4)"><tspan class="cls-23">T</tspan><tspan class="cls-15" x="21.82" y="0">r</tspan><tspan x="37.19" y="0">i</tspan><tspan class="cls-6" x="48.02" y="0">c</tspan><tspan class="cls-17" x="69.16" y="0">h</tspan><tspan x="94.25" y="0">o</tspan><tspan class="cls-12" x="117.83" y="0">m</tspan><tspan class="cls-5" x="155.81" y="0">on</tspan><tspan class="cls-12" x="204.26" y="0">a</tspan><tspan class="cls-5" x="226.69" y="0">ds</tspan></text><text class="cls-1" transform="translate(1528.06 701.4)">Mic<tspan class="cls-4" x="66.49" y="0">r</tspan><tspan class="cls-5" x="81.68" y="0">ospo</tspan><tspan class="cls-15" x="172.8" y="0">r</tspan><tspan x="188.17" y="0">idia</tspan></text><text class="cls-1" transform="translate(1518.06 792.4)">Diplo<tspan class="cls-12" x="99.83" y="0">m</tspan><tspan class="cls-5" x="137.81" y="0">on</tspan><tspan class="cls-7" x="186.26" y="0">a</tspan><tspan x="208.69" y="0">ds</tspan></text></g><text class="cls-24" transform="translate(228.76 54.4)">B<tspan class="cls-25" x="48.96" y="0">a</tspan><tspan class="cls-26" x="88.83" y="0">c</tspan><tspan class="cls-27" x="127.17" y="0">t</tspan><tspan x="153.92" y="0">e</tspan><tspan class="cls-28" x="194.3" y="0">r</tspan><tspan x="221.63" y="0">ia</tspan></text><text class="cls-24" transform="translate(798.76 54.4)">A<tspan class="cls-29" x="49.02" y="0">r</tspan><tspan class="cls-28" x="76.03" y="0">c</tspan><tspan x="113.6" y="0">h</tspan><tspan class="cls-25" x="157.82" y="0">a</tspan><tspan class="cls-30" x="197.69" y="0">e</tspan><tspan x="237.12" y="0">a</tspan></text><text class="cls-24" transform="translate(1278.33 54.4)"><tspan class="cls-28">E</tspan><tspan x="42.69" y="0">u</tspan><tspan class="cls-31" x="86.66" y="0">k</tspan><tspan x="128.25" y="0">a</tspan><tspan class="cls-32" x="167.74" y="0">r</tspan><tspan class="cls-30" x="196.29" y="0">y</tspan><tspan x="233.6" y="0">ota</tspan></text><path id="path2333" class="cls-33" d="M427.5,250.5,541,587m15-241.5,24.5,302M304,443,566.5,627M278,511,574,638.5m-330-31L599,677M176.5,797,659,739M250.5,721l370-11.5,58.66-459M796,840,621,710,410,386" transform="translate(-26.94 -3.6)"/><path id="path2358" class="cls-33" d="M930,746.5,1370.5,434l189-154m-27.67,492.81L1266.5,507.5m273.24,178.76L1291,490.5m268.5,103L1309.5,477M1560,506.5,1370,434m186.5-17L1456,361.5m103.5,1-84.5-16,44.76-92.1M1414.5,397l-10.6-134.5m-3.9,146-133-163" transform="translate(-26.94 -3.6)"/><path id="path2376" class="cls-33" d="M797.5,840.5l132.29-93.72L929.85,637,1163.5,363.5M929.85,637l-60.69-71.13m41.66,47.8-4.12-88m68.4,57.63L923.84,470.83m79.19,79.9L956.72,411.79m75,105.36L998.08,354.51m49.85,143.54,2.48-185.61" transform="translate(-26.94 -3.6)"/><path id="path2408" class="cls-33" d="M796.5,840.5V986" transform="translate(-26.94 -3.6)"/></svg>