<svg id="Слой_1" data-name="Слой 1" xmlns="http://www.w3.org/2000/svg" xmlns:xlink="http://www.w3.org/1999/xlink" viewBox="0 0 820 572.74"><defs><style>.cls-1,.cls-13,.cls-14,.cls-15,.cls-6,.cls-7{fill:none;}.cls-10,.cls-17,.cls-2,.cls-3,.cls-5{isolation:isolate;}.cls-3{font-size:25.2px;font-family:Georgia;}.cls-3,.cls-4,.cls-5,.cls-9{fill:#fff;}.cls-4,.cls-6{stroke:#999;}.cls-5{font-size:16.2px;}.cls-10,.cls-17,.cls-19,.cls-5{font-family:ArialMT, Arial;}.cls-13,.cls-7{stroke:#ddd;}.cls-7{stroke-dasharray:3 2;}.cls-8{clip-path:url(#clip-path);}.cls-12,.cls-9{fill-opacity:0;}.cls-10{font-size:13.5px;}.cls-10,.cls-16{fill:#b13507;}.cls-11{letter-spacing:-0.02em;}.cls-13,.cls-14,.cls-15{stroke-linecap:round;stroke-linejoin:round;}.cls-14,.cls-15{stroke:#b13507;stroke-width:1.5px;}.cls-14{stroke-dasharray:1 4;}.cls-17,.cls-19{font-size:12.6px;fill:#777;}.cls-18{letter-spacing:-0.02em;}.cls-20{letter-spacing:-0.02em;}</style><clipPath id="clip-path" transform="translate(-15 -13.83)"><rect class="cls-1" x="78.53" y="58" width="840" height="499.4"/></clipPath></defs><g class="cls-2"><text class="cls-3" transform="translate(0 21.33)">Population growth: The annual change of the population, World</text></g><line class="cls-4" x1="73.5" y1="512.37" x2="73.5" y2="517.37"/><line class="cls-4" x1="749.8" y1="512.37" x2="749.8" y2="517.37"/><line class="cls-4" x1="209.7" y1="512.37" x2="209.7" y2="517.37"/><line class="cls-4" x1="300.5" y1="512.37" x2="300.5" y2="517.37"/><line class="cls-4" x1="391.2" y1="512.37" x2="391.2" y2="517.37"/><line class="cls-4" x1="482" y1="512.37" x2="482" y2="517.37"/><line class="cls-4" x1="572.8" y1="512.37" x2="572.8" y2="517.37"/><line class="cls-4" x1="663.5" y1="512.37" x2="663.5" y2="517.37"/><text class="cls-5" transform="translate(73.53 533.57)">1950</text><text class="cls-5" transform="translate(713.73 533.57)">2099</text><text class="cls-5" transform="translate(191.68 533.57)">1980</text><text class="cls-5" transform="translate(282.48 533.57)">2000</text><text class="cls-5" transform="translate(373.18 533.57)">2020</text><text class="cls-5" transform="translate(463.98 533.57)">2040</text><text class="cls-5" transform="translate(554.78 533.57)">2060</text><text class="cls-5" transform="translate(645.48 533.57)">2080</text><text class="cls-5" transform="translate(59.52 517.55)">0</text><text class="cls-5" transform="translate(0.1 418.45)">20 million</text><text class="cls-5" transform="translate(0.1 319.35)">40 million</text><text class="cls-5" transform="translate(0.1 220.25)">60 million</text><text class="cls-5" transform="translate(0.1 121.15)">80 million</text><line class="cls-6" x1="73.53" y1="512.37" x2="749.76" y2="512.37"/><line class="cls-7" x1="73.53" y1="413.27" x2="749.76" y2="413.27"/><line class="cls-7" x1="73.53" y1="314.17" x2="749.76" y2="314.17"/><line class="cls-7" x1="73.53" y1="215.07" x2="749.76" y2="215.07"/><line class="cls-7" x1="73.53" y1="115.97" x2="749.76" y2="115.97"/><g class="cls-8"><rect class="cls-9" x="749.77" y="488.12" width="70.23" height="13.5"/><g class="cls-2"><text class="cls-10" transform="translate(753.77 498.92)"><tspan class="cls-11">W</tspan><tspan x="12.5" y="0">orld</tspan></text></g><rect class="cls-12" x="74" y="54.17" width="676" height="458"/><path class="cls-13" d="M406.2,126l4.6,5.9,4.5,5.7,4.5,5.4,4.6,5,4.5,4.9,4.6,5L438,163l4.5,5,4.6,4.8,4.5,4.8,4.5,4.8,4.6,5,4.5,5.2,4.6,5.4,4.5,5.6,4.5,5.7,4.6,5.6,4.5,5.6,4.6,5.5,4.5,5.6,4.5,5.5,4.6,5.7,4.5,5.8,4.5,5.8,4.6,5.9,4.5,6,4.6,5.9,4.5,6,4.5,6,4.6,6,4.5,5.9,4.6,6,4.5,6,4.5,6,4.6,6,4.5,5.9,4.5,5.9,4.6,5.6,4.5,5.5,4.6,5.3,4.5,5.3,4.5,5.2,4.6,5.1,4.5,5.1,4.6,5,4.5,4.9,4.5,4.9,4.6,4.7,4.5,4.8,4.5,4.6,4.6,4.6,4.5,4.6,4.6,4.4,4.5,4.3,4.5,4.3,4.6,4.2,4.5,4.1,4.6,4.1,4.5,4.1,4.5,4,4.6,4,4.5,3.8,4.5,3.7,4.6,3.5,4.5,3.4,4.6,3.4,4.5,3.4,4.5,3.4,4.6,3.4,4.5,3.4,4.6,3.4,4.5,3.4,4.5,3.5,4.6,3.5,4.5,3.6,4.5,3.7,4.6,3.7,4.5,3.9,4.6,4" transform="translate(-15 -13.83)"/><path class="cls-13" d="M88.5,292.5l4.6-.3,4.5,2.1,4.5-1,4.6-3.5,4.5-5.4,4.6-6.6,4.5-7.4,4.5-7.5,4.6-7.4,4.5-7.4,4.5-8L143,231l4.5-10.9,4.6-12.4,4.5-13.3,4.5-13,4.6-11.1,4.5-8.1,4.6-4.8,4.5-3,4.5-2.9,4.6-2,4.5-.3,4.6,1.1,4.5,2.1,4.5,2.1,4.6.4,4.5-2.8,4.5-6.1,4.6-7.5,4.5-7.2,4.6-7.9,4.5-10,4.5-11.7,4.6-12.9,4.5-12.5,4.6-8.1L261,68l4.5,7.7L270.1,88l4.5,12.8,4.5,10.8,4.6,7.7,4.5,4,4.6,2.1,4.5,2.3,4.5,2.3,4.6,1.8,4.5,1.2,4.6.8,4.5.2,4.5-.7,4.6-2,4.5-3.3,4.5-4.1,4.6-4.1,4.5-3.8,4.6-3.1,4.5-2.3,4.5-1.7,4.6-1.4,4.5-1,4.6-.2,4.5.6,4.5,1.2,4.6,1.7,4.5,2.4,4.5,3.7,4.6,4.7" transform="translate(-15 -13.83)"/><path class="cls-14" d="M406.2,126l4.6,5.9,4.5,5.7,4.5,5.4,4.6,5,4.5,4.9,4.6,5L438,163l4.5,5,4.6,4.8,4.5,4.8,4.5,4.8,4.6,5,4.5,5.2,4.6,5.4,4.5,5.6,4.5,5.7,4.6,5.6,4.5,5.6,4.6,5.5,4.5,5.6,4.5,5.5,4.6,5.7,4.5,5.8,4.5,5.8,4.6,5.9,4.5,6,4.6,5.9,4.5,6,4.5,6,4.6,6,4.5,5.9,4.6,6,4.5,6,4.5,6,4.6,6,4.5,5.9,4.5,5.9,4.6,5.6,4.5,5.5,4.6,5.3,4.5,5.3,4.5,5.2,4.6,5.1,4.5,5.1,4.6,5,4.5,4.9,4.5,4.9,4.6,4.7,4.5,4.8,4.5,4.6,4.6,4.6,4.5,4.6,4.6,4.4,4.5,4.3,4.5,4.3,4.6,4.2,4.5,4.1,4.6,4.1,4.5,4.1,4.5,4,4.6,4,4.5,3.8,4.5,3.7,4.6,3.5,4.5,3.4,4.6,3.4,4.5,3.4,4.5,3.4,4.6,3.4,4.5,3.4,4.6,3.4,4.5,3.4,4.5,3.5,4.6,3.5,4.5,3.6,4.5,3.7,4.6,3.7,4.5,3.9,4.6,4" transform="translate(-15 -13.83)"/><path class="cls-15" d="M88.5,292.5l4.6-.3,4.5,2.1,4.5-1,4.6-3.5,4.5-5.4,4.6-6.6,4.5-7.4,4.5-7.5,4.6-7.4,4.5-7.4,4.5-8L143,231l4.5-10.9,4.6-12.4,4.5-13.3,4.5-13,4.6-11.1,4.5-8.1,4.6-4.8,4.5-3,4.5-2.9,4.6-2,4.5-.3,4.6,1.1,4.5,2.1,4.5,2.1,4.6.4,4.5-2.8,4.5-6.1,4.6-7.5,4.5-7.2,4.6-7.9,4.5-10,4.5-11.7,4.6-12.9,4.5-12.5,4.6-8.1L261,68l4.5,7.7L270.1,88l4.5,12.8,4.5,10.8,4.6,7.7,4.5,4,4.6,2.1,4.5,2.3,4.5,2.3,4.6,1.8,4.5,1.2,4.6.8,4.5.2,4.5-.7,4.6-2,4.5-3.3,4.5-4.1,4.6-4.1,4.5-3.8,4.6-3.1,4.5-2.3,4.5-1.7,4.6-1.4,4.5-1,4.6-.2,4.5.6,4.5,1.2,4.6,1.7,4.5,2.4,4.5,3.7,4.6,4.7" transform="translate(-15 -13.83)"/><circle class="cls-16" cx="73.5" cy="278.67" r="2"/><circle class="cls-16" cx="78.1" cy="278.37" r="2"/><circle class="cls-16" cx="82.6" cy="280.47" r="2"/><circle class="cls-16" cx="87.1" cy="279.47" r="2"/><circle class="cls-16" cx="91.7" cy="275.97" r="2"/><circle class="cls-16" cx="96.2" cy="270.57" r="2"/><circle class="cls-16" cx="100.8" cy="263.97" r="2"/><circle class="cls-16" cx="105.3" cy="256.57" r="2"/><circle class="cls-16" cx="109.8" cy="249.07" r="2"/><circle class="cls-16" cx="114.4" cy="241.67" r="2"/><circle class="cls-16" cx="118.9" cy="234.27" r="2"/><circle class="cls-16" cx="123.4" cy="226.27" r="2"/><circle class="cls-16" cx="128" cy="217.17" r="2"/><circle class="cls-16" cx="132.5" cy="206.27" r="2"/><circle class="cls-16" cx="137.1" cy="193.87" r="2"/><circle class="cls-16" cx="141.6" cy="180.57" r="2"/><circle class="cls-16" cx="146.1" cy="167.57" r="2"/><circle class="cls-16" cx="150.7" cy="156.47" r="2"/><circle class="cls-16" cx="155.2" cy="148.37" r="2"/><circle class="cls-16" cx="159.8" cy="143.57" r="2"/><circle class="cls-16" cx="164.3" cy="140.57" r="2"/><circle class="cls-16" cx="168.8" cy="137.67" r="2"/><circle class="cls-16" cx="173.4" cy="135.67" r="2"/><circle class="cls-16" cx="177.9" cy="135.37" r="2"/><circle class="cls-16" cx="182.5" cy="136.47" r="2"/><circle class="cls-16" cx="187" cy="138.57" r="2"/><circle class="cls-16" cx="191.5" cy="140.67" r="2"/><circle class="cls-16" cx="196.1" cy="141.07" r="2"/><circle class="cls-16" cx="200.6" cy="138.27" r="2"/><circle class="cls-16" cx="205.1" cy="132.17" r="2"/><circle class="cls-16" cx="209.7" cy="124.67" r="2"/><circle class="cls-16" cx="214.2" cy="117.47" r="2"/><circle class="cls-16" cx="218.8" cy="109.57" r="2"/><circle class="cls-16" cx="223.3" cy="99.57" r="2"/><circle class="cls-16" cx="227.8" cy="87.87" r="2"/><circle class="cls-16" cx="232.4" cy="74.97" r="2"/><circle class="cls-16" cx="236.9" cy="62.47" r="2"/><circle class="cls-16" cx="241.5" cy="54.37" r="2"/><circle class="cls-16" cx="246" cy="54.17" r="2"/><circle class="cls-16" cx="250.5" cy="61.87" r="2"/><circle class="cls-16" cx="255.1" cy="74.17" r="2"/><circle class="cls-16" cx="259.6" cy="86.97" r="2"/><circle class="cls-16" cx="264.1" cy="97.77" r="2"/><circle class="cls-16" cx="268.7" cy="105.47" r="2"/><circle class="cls-16" cx="273.2" cy="109.47" r="2"/><circle class="cls-16" cx="277.8" cy="111.57" r="2"/><circle class="cls-16" cx="282.3" cy="113.87" r="2"/><circle class="cls-16" cx="286.8" cy="116.17" r="2"/><circle class="cls-16" cx="291.4" cy="117.97" r="2"/><circle class="cls-16" cx="295.9" cy="119.17" r="2"/><circle class="cls-16" cx="300.5" cy="119.97" r="2"/><circle class="cls-16" cx="305" cy="120.17" r="2"/><circle class="cls-16" cx="309.5" cy="119.47" r="2"/><circle class="cls-16" cx="314.1" cy="117.47" r="2"/><circle class="cls-16" cx="318.6" cy="114.17" r="2"/><circle class="cls-16" cx="323.1" cy="110.07" r="2"/><circle class="cls-16" cx="327.7" cy="105.97" r="2"/><circle class="cls-16" cx="332.2" cy="102.17" r="2"/><circle class="cls-16" cx="336.8" cy="99.07" r="2"/><circle class="cls-16" cx="341.3" cy="96.77" r="2"/><circle class="cls-16" cx="345.8" cy="95.07" r="2"/><circle class="cls-16" cx="350.4" cy="93.67" r="2"/><circle class="cls-16" cx="354.9" cy="92.67" r="2"/><circle class="cls-16" cx="359.5" cy="92.47" r="2"/><circle class="cls-16" cx="364" cy="93.07" r="2"/><circle class="cls-16" cx="368.5" cy="94.27" r="2"/><circle class="cls-16" cx="373.1" cy="95.97" r="2"/><circle class="cls-16" cx="377.6" cy="98.37" r="2"/><circle class="cls-16" cx="382.1" cy="102.07" r="2"/><circle class="cls-16" cx="386.7" cy="106.77" r="2"/></g><g class="cls-2"><text class="cls-17" transform="translate(0 568.65)">Source: United Nations – Population Division (2019 Revision)</text></g><g class="cls-2"><text class="cls-17" transform="translate(513.19 568.65)">Our<tspan class="cls-18" x="21" y="0">W</tspan><tspan x="32.67" y="0">orldInData.org/world-population-growth/</tspan></text><text class="cls-19" transform="translate(767.18 568.65)"><tspan xml:space="preserve"> • </tspan></text><text class="cls-17" transform="translate(778.59 568.65)">CC B<tspan class="cls-20" x="30.1" y="0">Y</tspan></text></g><path class="cls-1" transform="translate(-15 -13.83)"/></svg>