<svg id="Слой_1" data-name="Слой 1" xmlns="http://www.w3.org/2000/svg" xmlns:xlink="http://www.w3.org/1999/xlink" viewBox="0 0 820 572.74"><defs><style>.cls-1,.cls-16,.cls-17{fill:none;}.cls-13,.cls-19,.cls-2,.cls-3,.cls-4,.cls-9{isolation:isolate;}.cls-3{font-size:25.2px;font-family:Georgia;}.cls-10,.cls-12,.cls-3,.cls-4,.cls-8,.cls-9{fill:#fff;}.cls-4{font-size:14.4px;}.cls-13,.cls-19,.cls-4,.cls-9{font-family:ArialMT, Arial;}.cls-5{letter-spacing:-0.07em;}.cls-6{letter-spacing:-0.07em;}.cls-7{letter-spacing:0em;}.cls-8{stroke:#999;}.cls-9{font-size:16.2px;}.cls-10,.cls-16{stroke:#ddd;}.cls-10{stroke-dasharray:3 2;}.cls-11{clip-path:url(#clip-path);}.cls-12,.cls-15{fill-opacity:0;}.cls-13{font-size:13.5px;}.cls-13,.cls-18{fill:#883039;}.cls-14{letter-spacing:-0.02em;}.cls-16,.cls-17{stroke-linecap:round;stroke-linejoin:round;}.cls-17{stroke:#883039;stroke-width:1.5px;}.cls-19{font-size:12.6px;fill:#777;}.cls-20{letter-spacing:-0.02em;}.cls-21{letter-spacing:0em;}.cls-22{letter-spacing:-0.02em;}</style><clipPath id="clip-path" transform="translate(-15 -13.83)"><rect class="cls-1" x="83.06" y="97.8" width="840" height="459.6"/></clipPath></defs><g class="cls-2"><text class="cls-3" transform="translate(0 21.33)">Scientific and technical journal articles, 2000 to 2018</text></g><g class="cls-2"><text class="cls-4" transform="translate(0 41.89)">Scientific and technical journal articles refer to the number of scientific and engineering articles published in the</text><text class="cls-4" transform="translate(0 59.17)">following fields: physics, biolog<tspan class="cls-5" x="196.1" y="0">y</tspan><tspan x="202.23" y="0">, chemistr</tspan><tspan class="cls-5" x="264.64" y="0">y</tspan><tspan x="270.77" y="0">, mathematics, clinical medicine, biomedical research, engineering and</tspan></text><text class="cls-4" transform="translate(0 76.45)">technolog<tspan class="cls-6" x="62.45" y="0">y</tspan><tspan class="cls-7" x="68.58" y="0">, and earth and space sciences. Location is allocated by the country of institution.</tspan></text></g><line class="cls-8" x1="78.1" y1="512.37" x2="78.1" y2="517.37"/><line class="cls-8" x1="749.8" y1="512.37" x2="749.8" y2="517.37"/><line class="cls-8" x1="152.7" y1="512.37" x2="152.7" y2="517.37"/><line class="cls-8" x1="227.3" y1="512.37" x2="227.3" y2="517.37"/><line class="cls-8" x1="302" y1="512.37" x2="302" y2="517.37"/><line class="cls-8" x1="376.6" y1="512.37" x2="376.6" y2="517.37"/><line class="cls-8" x1="451.2" y1="512.37" x2="451.2" y2="517.37"/><line class="cls-8" x1="525.9" y1="512.37" x2="525.9" y2="517.37"/><line class="cls-8" x1="600.5" y1="512.37" x2="600.5" y2="517.37"/><line class="cls-8" x1="675.1" y1="512.37" x2="675.1" y2="517.37"/><text class="cls-9" transform="translate(78.06 533.57)">2000</text><text class="cls-9" transform="translate(713.73 533.57)">2018</text><text class="cls-9" transform="translate(134.68 533.57)">2002</text><text class="cls-9" transform="translate(209.28 533.57)">2004</text><text class="cls-9" transform="translate(283.98 533.57)">2006</text><text class="cls-9" transform="translate(358.58 533.57)">2008</text><text class="cls-9" transform="translate(433.18 533.57)">2010</text><text class="cls-9" transform="translate(507.88 533.57)">2012</text><text class="cls-9" transform="translate(582.48 533.57)">2014</text><text class="cls-9" transform="translate(657.08 533.57)">2016</text><text class="cls-9" transform="translate(64.05 517.55)">0</text><text class="cls-9" transform="translate(14.5 435.65)">500,000</text><text class="cls-9" transform="translate(13.64 353.75)">1 million</text><text class="cls-9" transform="translate(0.13 271.85)">1.5 million</text><text class="cls-9" transform="translate(13.64 189.95)">2 million</text><text class="cls-9" transform="translate(0.13 108.05)">2.5 million</text><line class="cls-8" x1="78.06" y1="512.37" x2="749.76" y2="512.37"/><line class="cls-10" x1="78.06" y1="430.47" x2="749.76" y2="430.47"/><line class="cls-10" x1="78.06" y1="348.57" x2="749.76" y2="348.57"/><line class="cls-10" x1="78.06" y1="266.67" x2="749.76" y2="266.67"/><line class="cls-10" x1="78.06" y1="184.77" x2="749.76" y2="184.77"/><line class="cls-10" x1="78.06" y1="102.87" x2="749.76" y2="102.87"/><g class="cls-11"><rect class="cls-12" x="749.77" y="93.97" width="70.23" height="13.5"/><g class="cls-2"><text class="cls-13" transform="translate(753.77 104.77)"><tspan class="cls-14">W</tspan><tspan x="12.5" y="0">orld</tspan></text></g><rect class="cls-15" x="78" y="94.17" width="672" height="418"/><path class="cls-16" d="M93.1,351.3l37.3-6.2,37.3-7.9,37.3-9.1,37.3-18.8,37.3-26.9L317,269.1l37.3-14.9,37.3-14.6,37.3-17.1,37.3-14.6,37.3-16.4,37.4-9.8,37.3-11.8,37.3-14.5,37.3-5,37.3-13.5,37.3-14.4,37.4-14.7" transform="translate(-15 -13.83)"/><path class="cls-17" d="M93.1,351.3l37.3-6.2,37.3-7.9,37.3-9.1,37.3-18.8,37.3-26.9L317,269.1l37.3-14.9,37.3-14.6,37.3-17.1,37.3-14.6,37.3-16.4,37.4-9.8,37.3-11.8,37.3-14.5,37.3-5,37.3-13.5,37.3-14.4,37.4-14.7" transform="translate(-15 -13.83)"/><circle class="cls-18" cx="78.1" cy="337.47" r="2"/><circle class="cls-18" cx="115.4" cy="331.27" r="2"/><circle class="cls-18" cx="152.7" cy="323.37" r="2"/><circle class="cls-18" cx="190" cy="314.27" r="2"/><circle class="cls-18" cx="227.3" cy="295.47" r="2"/><circle class="cls-18" cx="264.6" cy="268.57" r="2"/><circle class="cls-18" cx="302" cy="255.27" r="2"/><circle class="cls-18" cx="339.3" cy="240.37" r="2"/><circle class="cls-18" cx="376.6" cy="225.77" r="2"/><circle class="cls-18" cx="413.9" cy="208.67" r="2"/><circle class="cls-18" cx="451.2" cy="194.07" r="2"/><circle class="cls-18" cx="488.5" cy="177.67" r="2"/><circle class="cls-18" cx="525.9" cy="167.87" r="2"/><circle class="cls-18" cx="563.2" cy="156.07" r="2"/><circle class="cls-18" cx="600.5" cy="141.57" r="2"/><circle class="cls-18" cx="637.8" cy="136.57" r="2"/><circle class="cls-18" cx="675.1" cy="123.07" r="2"/><circle class="cls-18" cx="712.4" cy="108.67" r="2"/><circle class="cls-18" cx="749.8" cy="93.97" r="2"/></g><g class="cls-2"><text class="cls-19" transform="translate(0 568.65)">Source: National Science Foundation (via <tspan class="cls-20" x="235.33" y="0">W</tspan><tspan class="cls-21" x="247" y="0">orld Bank)</tspan></text></g><g class="cls-2"><text class="cls-19" transform="translate(781.44 568.65)">CC B<tspan class="cls-22" x="30.1" y="0">Y</tspan></text></g><path class="cls-1" transform="translate(-15 -13.83)"/></svg>